<mxfile host="Electron" agent="Mozilla/5.0 (Windows NT 10.0; Win64; x64) AppleWebKit/537.36 (KHTML, like Gecko) draw.io/28.0.6 Chrome/138.0.7204.100 Electron/37.2.3 Safari/537.36" version="28.0.6">
  <diagram name="Page-1" id="Fc7U0pPD9r9OIFH3dabT">
    <mxGraphModel dx="1678" dy="1849" grid="1" gridSize="10" guides="1" tooltips="1" connect="1" arrows="1" fold="1" page="1" pageScale="1" pageWidth="1100" pageHeight="850" math="0" shadow="0">
      <root>
        <mxCell id="0" />
        <mxCell id="1" parent="0" />
        <mxCell id="6Ym5UJqBqQDuSW6-4cnc-1" value="" style="shape=image;verticalLabelPosition=bottom;labelBackgroundColor=default;verticalAlign=top;aspect=fixed;imageAspect=0;image=data:image/png,iVBORw0KGgoAAAANSUhEUgAAAckAAAE5CAYAAAD7rdtoAAAAAXNSR0IArs4c6QAAAARnQU1BAACxjwv8YQUAAAAJcEhZcwAADsMAAA7DAcdvqGQAAGVHSURBVHhe7Z0LfBzFned/svwStmWBAWMH87AexsgiiCRKLJIAiSZYQkmkVTDJsvFal0TaRXuWtLvGEcG7eziL4nD3keRdkZOTnBzfslxMFDkbIRlkQsgGOysCIgjhePTg4YAxYDAyD7919a+ununu6Z7peUiaGf2/ppju6u6q6ofq1/+q6vqnjAvAMAzDMEwAM9QvwzAMwzAWWCQZhmEYxgFTc+u+X/0CB/c2Y8bYsFgL1QqbgnPpWVhRVIfCz31ZxTEMwzBM8uATSRLIlCfWY/VHjskNbtn/agbGb9jBQskwDMMkHb7m1j/2NrkXyDkXACWPAktuwKeWHsPgoy1qA8MwDMMkDz6RnHF8FKfHZ+Lc/CsBz8+BG9qBWelqq4G5FwGljwOXfBrjqXPx7tmFOHf8kNrIMAzDMMmDTyRPnJuNd85cgFMf/584/bZXbJkFXP3Xaqti7sVCIH8FLMzG+KPlePel3+HU+Bwk4lckPdUpSEnRwvUt1AerMdxyvS8+JaUaPSo+gJ7qoNud0mcYhmESB78liXHMnfEhUk4exdmMXDkoB+evVFsFaYuBLwqBTM/E+K/+HO+9e1QKZEIy3AJv2bgU9/Hxbqyq+0voOjb0wj5Udevb2lCsRRsYRsv1Qvx2A1UqJoAg6TMMwzCJg08k58w4ifTU40j5rztx+rX9OHt4P5B5G3DVt4RAKgtywXIpkLi6Bud9qQuYmUZjXDEr5bRKJUHIqkWtT/2ycXWhWpQU4upstWhLFmqfFOLXVqbWbQiaPsMwDJMo+ETy7HiqCDNw4tRZfPjcj3Bq/3eAPV8Cjh0EbnlMCOSVPoHEks/i+BN3IuXM+8iYeQwzU86qVGwQVtX1vmbHFlSnXK+sqh7DMmFdVxabOrZatmvaxdnhdj9iCC/sW4UcYTjTcd7n96EuWzsuNs2kxvQZhmGYRMInkqfGZ+HomQtxYjxNrn94Lg3n3uoHrt/ma2LVBfLdR6uRet5FWDDrBI6fXSAF1h4hfNl1WKWaL3+CXdiutgSHRC4bu9YOqSbLcbSRZdZzH+pWdZvj7HC7n6CnugTPN29UzarKSpTHxaaZ1Jw+wzAMk0j4RJKswbkpH8pATajjs8/H2RJhQS5cESCQcy67CfNvuA8nl1XgjBBXElhbhr14vrAZG5VCZNXe7dyPZ2T4YezaV4W7ay3mV/bVKNxeYrbwDJaqbyCN3X4BaNbmd68ewpPWfCTFKKvah10PR6qSodJnGIZh4h2fSFK/YvrM4zJQE+q8j34TOP0hzj5agdPnfxynZyzAu49UIXX2PMy+IAvvPfkPODmqtWOmyP9PAlm1eFJYeT/BX/qbUVWcZv2pgTZ2+5kgAftL4CfjIQVsVUTtpO7TZxiGYeIXn0j6SJmJWVd9HbPf/QPO/scNOP7SkzjWtw3HOr+E0y8+jFlDP8I7P/8SPvyD1nAqrc8ZJ+RyAFk5WLWvDvcpkRpu+a6huZUGtOzDC0NqtWe3f1vWLVhbuB3fdbAEs2qfxFBzIZ73BrfyHPeTzbF3I6h+CQv1u9v1QTzW/lI7DPu4SZ9hGIaJewwiqexB+jZy5jzMvPg6nL70y5h53SbMySzFrIwrsXD1t3Hm6lrMuPjjWPC5Fsy/5GosSD3uPzaAYrR1V2F7idYc+pdYa2huzULt3f5t5k8qqG+Q+gSztW26NSi/TdTWs+tWBTbH6oTYb9j7PETGvn0oaE2zJHQqTvalPhmR0DmnzzAMwyQSvrlb/0/DjfhvVz4BXPP3GD99HOOZf47jf/gJ5mR9CWeOvoA5rz+KM1f9NY7/qg6p6ZcjvaAW46/swXve/0DnK9fgG9/7tUwwOCRC38XVQ5GJD8MwDMNMJj5L8ipPvTZZ+Qs/wIm0LJx891WcOvQ4zvzp10ibDYwde1t+P5l2zbfkN5Xj7x/Ge2+9gqdeXYCVX6hXqTAMwzBM8hDgKutA7zacGXtFDoQhaEDPOWjfUBLUsDpnxgmcHE9DyoIrseoLNWF4AGFLkmEYhkkcTCLJMAzDMIyfwNGtDMMwDMNIWCQZhmEYxgEWSYZhGIZxgPskGSaO2P6cWohDqq5RCwwzjWCRZJg4gkTyY4vVShzx9BEWSWZ6ws2tDMMwDOMAiyTDMAzDOMAiyTAMwzAORCeSw80oLGzGlE/dHS/lYJh45sVmVJY245BaTQj4b3vy4WtuIrhI0sUyeLLQQjV6Jusi2uZfiGanjI3limUZA8qhnDuHg1PZIi1nLM8vHEzXIoLr4JZYnp+pzDG4f+EQs/MYxr+XpuDjlwSGyu2T/hTYY7nOhfSHGsv76IQxj8nIz46AfIfRXCjqqsemqDw6dtdjqq5RghLaklzdhKFx3amxcmycVYd9++owKdOvBuS/D3VOGU9kuYzl6AZKwn3InMoWaZkn8x4YoXyHmrBaXg/l5DoRmKj7N2lk4c+7xvH710XY34S8jzehk5ZFaK+aulL56UF19i6sHVLXWFzkvANDk3/dpuzvohRrsQtd+kM13CXW1qL081P93DDREllzq9Pbie8tMoi1FyuM+WXXY78eJ8sl3uLWibj99cjW32hjSXEZqvYfgPQXbTpvv4Uy3Fyo4kSgMjmV7e7v+K+lXVrquOZqPV751tTTc9pOmNITQc8nlgTJP+AaaJGBz4kpDTrvSbp/AfkKTOVTcbp/0mDnIDH4IxWhumeCz4OgJlSfVVmNfSraMV5xaHuh2iZCzJpg87DCpwbFaGsTr1DqGmvPaTWqCw3Xxrcsdtf30w4OXBeYniffdY/R31PUZKF0LbBLV8mhA8DaUmQZz8NUHvOz79+uyknnJa5XTIoWDLsy6ciy+e9Z7K5VYhFaJNXDp18k38Nmgt4iD2Cz/qY+JN6p1pkf8Iix5i8fKMqvHnnden7CslG7a2Shbqdu7Yxjn6PpGRnDzVuwffVKZFvKMdQ0gBJ6isTDta4+D93qenTnKUGVWMq2/iIV75AWIa7BgTJ1ruTEeovl2tpuD3WNYohd/rbXIMhz4kuDrNPJun8CU74O96C4zXD9nM6BKrUSiBPW4kVoK57Y86Cy3Lta/H08oFmUnfcMYMNGemac4hVCQP/hH/KwTVmi21YeiIFIFqOsajtK6G/UqSbdP4CVO8W1kY7Y1wH6svV5diCrbp/v2o5356H+PspnAv6eIiRrRR72k/Us6Nm9HXn+NwaBw3OTtQJ56oV7uGsX8qqA3bKYQzgA9YxGizhfUx0qros0KhyfZQP6PdOvVckkCHecEVlzq9rkY/ggBqD+QPSboFta0WLNn5ouKD8Rv3Ey2/oMD1r2rrUYsilHlniVXL19N3rowZfXQ3ugittcNEs6pUUrxnPNXhkodnbbJ/Ma2eVvdw2CPScTXVa7+0fxxnyD3QMdp3OQzWuTdL11XjyIoY834euf11aXedYi7//uxj6neG0VuHKFqHy3Y4OyMAvva0OhtiUqitvU32jZbu3aWMVy9VqU0kWnZ8S4LDe6wGj1lGwHBg46i1s0f0+RQi0UMo9hHByoQpnxWXB89unlYgAHxYkMHchD2caVGCCVpP3zVmjPaLSI8zXVofoLn2OZDOj3iaDzE0dQWacTkTW32mG9EYnUX+UG4/mF7GMoRpvctwy75QM4BW9fQwfU2+JU4XANpuo5Cev+hSDhn/Vi3CWtyDL82qE5NirI8h7vVoIRI0ggjX2eE9kyEjFK8HrEC1NeWeAz4fDcCJ3GgaEe7B4QliP1bQ6I6yb+fvNMKjtBJPyzPPHERiRlk0E9ZOvHZCDz83eSUzOFrSDEypp1wnLeshxV4o9D/EFXy8Z9EoohNK0Wfzgva/v4sJbNKS1tNXxkv5thIMFkY3cNEOZzMtH3z4qbe+D0rMuBGw7nNlHnQRbh7+vxfx/TVg/17sLA18tQ6BSvrcrm1nvliFgSyyH87ccH8NKL2qaIIREzWo7SkguzudBwnWz/pg1WTcD2if57cklxWR7qS+oDBc7puRGQlYstWzBAfZjiH63u3g2sjElbaxCClMmWnt3YbrQspwkxsiRFRSje7AZKlNlOQe+MjhZxE819otS5LPKjPolsLW7dgbzAt8qsOmxWfSQTMmBCYj7vbOqDo8EK4uEThVPlzcautTtRd7k6hDCWbcebKtIhrYgxXyPZlKK2RIV8o6dmGbovQSxku2uQFcZzMin3z4qbe+B0DlrfmDFeasaEnocQuf3CErhdG4BTTv2M91F5neIVQkTxD9lq4E42er+0E39+pdoWKdICKvFfE7L6doZhsYvrtJP6DdXxAX/TdB3z/HWBafuk/D25RDZJWppaJUGeffpbEX+ca5X60Op2YVVOvBi5+Hs01r/U5R5tK0wCwhOcTxdohObuMoxPRkWRjND127LS35c5QfAE50zcQC/ENL5qGgqjkdj1STJxR49hmLt8C2SBjIAe7bOOkgE0hWMZMQyTFLAlyTBxBFuSDBNfsEgyTBzBTpcZJr5IGRsbY5FkmDjB6/WqJYZhYkVOTo5aCh+2JBkmjnj66aej+oNmGMYMvXh+7GMfU2vhk3Ls2DEWSYaJE4aHh1kkGSaGkEhmZUU+5I5HtzLMNObcuXO+wDDJQiyfZ5NInnfeeTIwDMMwDGNjSR4+fBi/+93v1BrDMAzDJDbvvfceTpw4gdOnT0srM5yhOAF9krpAfupTn5K/seDc+Dm0/mcrfvzsjzE2dwwZF2Xg5ImTGDs0ho+kfQTfvuHbKLumTO0dW5I17zNnzoR1o43Q5AIzZ85Ua4nB/v370f/0M3J5fnoGrv3EaqSMn5XrbjmHFPR2dcrWkhmpM/ClL38ZS5cuVVtjwxPbtuEPP/4x0o4fx4UZ4n6fOoVDY2NI+8hH8NlNm3BNWfD7Pdl9ksZmqRkzuPeFSQ7oudafZ33EOP3dL1iwAHPnzpX1H9WDboh64M7g4KD9HxfNUiJ+Tp09haanm/DI+4/A8wUPvvKRr2Cu+EcFPHL6CNqfb8fLv3sZNStqUFdcpx3rkumaN70RvfTSS0hfuFDmJVH5+rCuG3jnnXdwxRVXyIfFLa+9+iqeeur34pxTMHvOHFy8ZBnOkVCr7TIvylMs0DnKX4rV/pPLM2bOwJ9eeRmnTp6U+6wuLMSiRYvoyJA8tGsX/v3f/x1Xr7wa11z3MZR8+Tb76+8AleHMuTP4pztrkZaWJuO+9udfw6q8PLkcilD3+6wQw6f/1//C+48+ii+sWYOPVPwZUuedB/GehFOvv47D7e0YFn+4KUKY19TWasfawCLJMNFjFcmRkRFccMEF+Ih4WT3//PMxR9Rhbp93k0jq/ZEffPCB/HUDGTMnTp6QlR5lqlWQ/nDPI/eg/dD/QaGnEIUZhbKC//L5X8ah9w5hIGVAHvPgKw/itd7X8OCfPYjCK917tpuueb///vt4VYjWiquu0vI35EvIX1qXa2rdwMDAAJYsWYJ58+apmNA8+sgjePxXj+PV117FZ2+4CWvXfQvz585RWwWUpeFXK5OWt9BVcb4pOP7BSWz/12b86dArtCdKbinBZz77WbnsxL4nn8QzzzyDIe8Qll2+HJ8tuhkzhPLMTJ0ltvoe3eAIq/Hh3T8Xb5Hz8KeXX8J54ryp2SUckQx1vx/5x3/Eqzt2oOgzn8aiz31alOwsxs+I405ppaRrcuSBB9AlBLPiwQdxxWp7R08skgwTPVaRfFS8vGZmZspwySWXaK1JLp/3gL3C7ZNMEZUfZSaDqkDkrwivvPMK/t/Agzi36hwyZmXghfdfwHNvPofLFlyGtBlpGHx3EAfeP4Cc83MwljuGDT/doFJ1x3TL+/RZYOTNcxh+4yzGPhQPgcrPWFlTOeSvZd0awoWads+ePYtTp04L64hEKgVvHDuOIyLQ7xvviGUKb2u/h98Zw2GxfPjtMbx6dAx/eutd0iqRzjmZDoVzpDwhoJeBvY89hvnz52OJeAvMzlmJrBW5uCIrR4QVIcOV2SJkZuOtNw/jyOHXMGv2bKSmpqrU3RPsfr/zyisYFJbuKnFZ06+9FBfd/heYl3sZPvjjC/jw2CDmff4GzP3MZ3CeEL/cd9/Frg3hPWsMw0TH0aNHpbbp3VThdFWZRJIsyAMHDqg1d1CFq1ceKRTEuvwV4TfDT+DY/GM4fd5p/O613+HZ157F84eel81exz84jj+8+gcZ98wbzyDl4hQcnXkUr737mko5NNMt7ycOnsLPfn8Cj7xwSux/TsvTJsgy2cTrgdB/3UIPFb2dXSqEivpaZwrRuHJJBpaLoP/KsPR88Xs+MmXIkL9ZIu7KSzLEcfSGp6UjLRiXD2ruyqvVkmaVnTh1xhBOBw0n6c0iBtD1crrfI088gQVC/ObPPoV3Xn4cR0cHcMHN63DmplwsKP86Llr9Gby4/zG8N/gHXCyOS33rLbz7mvtnbdoy0oqiolaMqFUmgYjDe3fy5EkcOnRIrbknwJKkATvhDNrRK15ZiVjC0NEhnMg4gROvn0DjxY34Qc4P0F7YjgvTLsQNV96A7XnbZdztp2/HuVPncPK8k3juVfeTV063vE+fGcfijFRcfuFMzJ8r8lKVtq/yFnlTIIzLhL5O4eDrZ/Cvj72Pbb0fYOBPZ9QewdFFkgJZkqnCkpw9c4YvzBJhJgXxRAn9pCOkpXhaWIwkZidPncWZs+J4Cno6YbzNEZQsXd+F8+YaQppl3RwWpM3WDo4S4/Wz3u+3xIvlwpMfIjXtBM47NYTTnWV4+bc/w6qvfwcfub4Ee79Xj/m/+S5SZ76MFHHe54k/1lefi+NJWkXV1lqUjvT0wFDUGka151RRUnxA2kVwTNqYDgvn5NNba75Xtb1afMzvRS9qJ+jeUssVQa1I+kAet5hEktpp9X5JtxgrDv3NWg/j80QluIB20vYNxbnzROU5299HEorpmPfJ0+fwoRBWoTW+MtgFwml9zizgYiG2c+ak4NDb7iwtsgD1ZtIzIpw6cxbDr75jCiP0+5r4VWH08Dt48fAxvPT6u3jpiLCsxTFnzmlpyOZWMi3DhI6gvN2G03ShYoB+7ezud5oQvnTK5pQI4vfYe+MiXh4mmTl7HGlLxzF7ibY+V+w/R4T4JRM1e8cwNiZCfyMKChrRT8si7K3JVPtEiSFNLeyFY9KZNdi7t0aUiplsRlqLkF4BdBjuVQe6hJxFiIOwynxERu1qfSKgOofGhtCARRqX4fYlPcCSDLtPUgRfxaEqET2sXr4as8Q/LAS+OvxV3Nh3I2585Ea8/v7r2DO8Bzf+VqyLuO+d+J5Ma868Obh00aVy2Q3TMW9NJIXIWESSMP5al/V1go4loT0pLFO3mCxJshCFAC1KnytCmgpzcYFav4DCgjScL8NcLcyfK4/R04jEkpSIYz48edoSztjEaYGs2FgQ7H5nX389zs2ciffeBt58ayYu+OqDuKzwK/D+fCPeePZnuPFvm5FR8t8xLt4/T4p0Fog/0gsudf+sxQ0mC1C3/MTbv1j3WZhyH9omrNHqBvT1NSDfuD0UxjzyxfF6nKxYbdI0lalWq7zV/q21hjgmAkawpxNo7G+BR8UQnhZat9yLe+6J6ppn1uzVXsjUeqzRW9qozjl27JgUyueee042wYbCJJKR9EmKnE0Vh14hU5znii9ow+1psCzlRJ/m0eh7qnFomVrC6JfqyhOQo45Wnb9KrLhkGuZNwnZCWpLCWlF5Ena/1mU90LFSJIXgusUokmQBnj5DYi3E6ZQQIxm0PkISLH9/oTmQVRetSNK1zrBpVnVqdo1Vc6u4cI73+7Kbb5b3+z1hSaacn4ELs1bhjz+ux+k9/xOvN38NR5/5Gc5ccj3eeVHebnm/z18VxrMWFwgxzPdik25R9Jejs5qEy4MWUbmhYZvYgyrOTpT3k1UorNE2vxUaYIGqytXXhCdFkPJoQG6Hnoe10rSmOWrav79xEBV6U6BI31tK8eYKngmDkT3o7MtFjq0Jb7kXty9KiGtOGkfhzTffxKxZs+SnXWRhBiPAkgy3T9JUYahKQ/aRieU5Z2fjax/5GmalC6vqQ7EziYaol393+Hf44zt/1F6rKe601tT7d9l/JwoUUCRHpmPexuZWHcpf/7ULBAmSHkgkT4h0whNJ/6hUvbn11aPHzeGt43hNLb929D0cpvD2e3idwjvviWM0cdTToTTDhcp/6rTI32Ug6zUWBLvf4+KtdOltt2G++KN7pfMt9N5wHQ7vbMbxt4Dnf3IGj3zya3jqhr/ATPH+Sff7siVL5PeUCcWIF4NoR4UuamTl9XkxStsya9BGApWej87yNudmUyPW5lZqTqU8RPwGtzWsZf/MNeUoaFdNgeGkwzhTkIPlajEkjtdca23wPzf+F6Sw+rijhEa20qdfOrNnz5ZCqdeRTphqZvoDphAulIleiRgrE3q7br62GYXzCpG2XJhSZD2JMn7111/F9174niYgQkfOu+o83JZyG9ZeslamFw7TLe/3T5zD2IfU12ZvSRLGZRIlejj0B4QCiePYB2dlWm4ZF8KqW4AkcGRJnjd7ljnMmYW0OTPF8kz5O1f86mHOrJlSsM6KcuvpRGJJ0iEfKOuVfs3hTEAgCzdW0HV1ut/X/cu/IF28XGYKwfxw+EOM/EYIZKf2LvSBuPbXiLBQ/G2lCDG9rLMT89as0RJNJKzCZrAYMnNy1RKTNGTmILevE3ui1jEPWvRnZqL6uF2gN63Sy+3FF18s68K8vDy5HoyArWH3SRoqC3q7Nq2LMDN1Jn553S9RPq8cGZ/OwPzC+Zhx3Qyk5qUi7XNpWPLRJfiu+PdX6X+lUnSPKa8kz/vO//cqHnjydfx++E08NXocP/1DCqp+OIRvbfeiSoRvtR2U4Zv/+4/4xv8+IIL4/cEBuU7bKVSL/Sn89FmINMZkWg/89rBMOxQ0UlUXt7feeBODA8/id0/+Z0D4Lwr7/hN9Kjy177fo2/9bPCXCC8/14823jkQlkjNSteZWCuerX3OYYwrp5xkmPIgC0/21ud8zZs5EflcX5pWV4TMZGVg9bx6uFfG5qam4SYjoyUsuQcqWLUj/q/CftbhAVpgN2Gbb2SQsBTm4owO5DdXmUaq6tekGS6U8sqdT65O04rNgzWWS+1eWcvNqzPBgA7Wk55v7GHtrDevh3N8phASRXu5pOroLL7xQ1j0rV65UW4MT9dytNL3PWVHhyTdrUXkY37AJ46/3bS8eOvwQRk+MYvb4bHxS/CvLKpPTBD311FNYsWKF3Nct0ynvO3a+jlsLl+AkzeIibvDMGSLMDPFRvIMG0WcZ585R+UjMgf4Xj2HjzQu1jQ78vKMDXf/xS7UWG9YKq2pNSbFas4emo3u2X6i6YOas2bg67xqcOhG6s93IrDlzhUj/p28aPvqlUW7hzLgTzv1+2+vF6fp6vCreVsdnzwY++UlcK67fzO7ukPc77mbcoUEw1UCbbA4Vy/pgGoIsgr052KYNf0QLqRN9LiBXNSuztzYdFe20a7/farCmIylAI/VljtLx2hjHgspKYDAHbW1AtV4GEW9Kc80eQ1qVWr7GMst4Jhpo5Gl+g+FuVXZgTN5sw734+78HfrPIf82d7oFDvDWPSv15ihB6rvXnmT752L59OxYvXoyrrroKl19+uRRIt5OKRD136xxR4ZwTlS4ViCoI/Zdw+iWMy0RfX1/4QjWN8r7j/76JZYsvlDPt0AMwJ3Uc5811HpRCH/yTSGo3V1vQb7QcRHNOPECiLPNmz8CRo0fR+vWL1FZ7On72M/zyF/+h1mLDbV/9KopvKVFr9hhFkl4OIrE+Cbo/OhGJ5CTdb56WjmGixyqSP/7xj3HppZciNzcXH/vYx2S3oluRNP1VRNInSZWAMejoy06/dBJk/lIw/qGGA6VlDMTevXt9y8bf3t5e3/pE5U3oy06/kea9MI36+WbjPBHmpc1BWppYFiJpF9LmzhK/+j6ztD7B2amYO2eWtD7p4ZiXNhfzaB+xf7pIOxQkTlTeWIZwBY+uIT34kYRoobyNQUdfdvql84z2WWMYJjpokA55AKGR5eGS+u1vf/uf1LIc6UN9ks8++6xUXTfQMQRVClQZGSsJa4VBv1RZUPswvclTR+qpU6fkpwFvvfmmbCsOB2veL7/8Mtra2mSar7/+ujSryVsGfTj64IMPyqG/9JYei7zJP9nDDz8s3/wp3YyMDHkj9u3bhzfeeAMHDx5Ef3+/FKSuri5ZFlqONO/+V84iY+F8cZ7ihgtNmz8nBQvm0aCYlMAwawbmzEoRwuhfnp82C6kzhDCdOyuFkbZR/Lw5M5A6fgrXZwX/VGLw+UEceOEFnzVHoe7v/lZagjd+7iYZbrjpRtx4k1hW4YYbb5Rxh18/jD/84TmMHT+Ol8Q90vsEVuWtQk4IK/qFwUF5L40cf/89LEhfgBniepLLK+03VesrpOl+1PP2n7/9LUZHR+UzIDKUzdsE9UvQQCbqtL948WIZF4rJes7ffvtt155RYoHxRUUvP8MkOvRc688zzdv64osvSqcO9LdHo2rp79nty7NJJOmPmgSSCEckqUB6xaEHwrpMFdOHH34oP+Y8cuSIqPyO4Ni7Yzh0+HUsXXyxHCUYDta8yasFlf/222+XI6d+9atfST+EFRUVMp5+Kf9Y5P2Tn/wENwkhoAqN8iKTnipfEmT6SJXMehJtEsysrCz8VlTY5KYl0ryff/UsFsyfi1SaBo5Eb66zSEoBpCAFEjIuNXUcZ8+cxVwhkHPnCKtS7iu2C8FNPXcKH79CEwEnBgaeE0L5vMkSLPz09XIC8v5nnpFiREJEHjZ0y0kXCroO5Gpr9uxZ0pNGunijo+PzrrkG5MkkGFaRpPv8jW9+E6tWrZKBhM4YrhFpUvjoRz8qm1Xnzpkj/zj+9NqrWLpE8x0ZqUhG+pwfFvf5DSGOLx36E5Z9ZGnQ+80iyTDRYyeSZEmSMUPOEqgOML7sBiNASsP9TpKQGVkyM2ZOy1Rh0lv1m2++hedfGMQrhw6JSnMOPhBv2YsWLvC95YeLMW/9uxe6EHQONEiisLBQVpZ0QU6ePBWzvIuKivDAAw+gZ88eFBQUyLyoqbekROtju/rqq6VD3yuvvFJW0nSjosk7/TwhiHNnCGFMwcL5FGZg4bxUZFgCxS2cp23Tfmdg3lwhDClnxRvUHHFcKtJFGukinn7nCrGltENBokaVvzHQg0jCufvnnTIcOPBH375kOZGFrXsEJ4GmQJ+S6MfTfuFC95uOe05Ypj0Pd8vw2quvyThr0J9AOmbWzOAvAW4wPms6Mk5By8bnfEBY30PDI6Is4/jg1EksvfjCiJ9zhmEih/4uqc7RX96pftDXaTkYUfdJ6lBVYawwCOM6Feb48eN45ZVXcOnSS1H0+c/j/ZMfikp8Hj4SpXd4Y95UcVPzGvVBlpaWyl+y9Mii+f3vfx+zvKny/8Y3voH3xDmR1UCWN1kOZAXoZaFfugG077vCcowm74VpM6SrqbQ5QtjmkDUprJtUclkVGGYJq3HWzHHMFiE1RViQ4+cw9zzqq5whjzUG8vNIaYeCJiY/I66hMdC1lvFK9E6f9gujMZBo6PvQ4Bf9+IjmblWWzxvCQqO3Qwr0XIULWbGRYHzWdJye8yVLLsEtJcU4fe4sLj7/gqifc4ZhIkMXQwq0LOsita4HJwJqx3C/kxQ1hFrQsKtAqAAkUseOvSunA7pg0QX4fX+//AD9ssuWqT0jwCavdevWyan1SKzIqvvrv/5rvPXWW7j55jUyPlZ5LxTWKo1ULCsrw8KFC+XwYrIuiVtuuUVatdQceNlll4nzH5dNrdHkvWBuKk7r38ULnaAJAd5572RAOEbh/ZN4V/yOid8PTp0Vd1lYivJama8XQWlS2qE4Jyr60ySEhkAP2+kzQvDEMgUSQ6tAUjh54qRvH/qMgo698XOfk95EpopDQsTCwuZZM2J9zunvaNEFi/BfT/8eC86bG91zzjBM1MiXevE3qr9oG6E4u3jCJJJkBYQ9d6sLKHOqUMniSj//fIy8/DLmp6XhyitdT3jkGhogU1xcLIf5UsVF4kQCRp21n7r++pjlnZ2djS9+8Yuy75GgSvHaa6+VyySO1OZNzazUvEY3JjMnJ6q8yUVWyoxxvH+CZpIR1/JMCk6cmeEczs7Ah2dT5X40jd0HJ8+KII61hFShj5R2KKjJ2mhFUiABJOHTOSMU1yqQFIyWpHyLE8ceEteChHeyof5K4t133w0QumgxPudp56Vh+OWXsHDe/Al5zhmGcQ/9rVMwjikwYhenE2BJRtInGQo9cxqBOGtOGs6fv0BaWJPBZOVdVVUlb4CRWOadnvIOFnz4ItKOj8Q0nH9qVKYdiopbb8XKq6/2iR0FEsBPrV6Nhru/g43f3oRrrv1ogEDSixdZV2dJIEUgYaRjaSAViUkoaPooI/rb3pKlS0CDfiikpy+QcW6gZlAasPOlL38Jy2L8HOj3m0bZzkybj4syzp+055xhGGeobqavC/Sgrxt/nTBNJqD3R1LF5pYXXnhBZmJEryx0qGI7JayMd46/hxWZV2KxpeKLlOmUN31GQKNmaQBQrKDyXnDBBdK6ohllQvHkk09i83fulo22ZCl//JMFSJszVzahkvhR/+RZ8asLmQ4NrHnpxRfl8tvH3sFFiy6UA6y+VPZl1PzN38j4YDzc1YV9T+5Ta8DtX/8LtRScX+19zOdgdVTk/1FxnnTOR944guKSEvzZn/2Z3OaGcO730XfHsDI7M6L7zZMJMEz00HOtP89UB/T09MhWRfrbovEj9CUE1WHWv2E7AkSSmg2pyTXW1iSTHFDTKUGCQQNUSGRDQeJBIk8MDQ3JpmqC+m3dVsw06877778v03L7cBs76Pc+thfFa4qFVT9DTk1FI6DdpDHZsEgyTPRYRfLRRx+VIkmzXdEvaZ31pdeJqOduZRgmdrBIMkz0xFIkA/4qJqJPkmEYhmESEX51ZBgmfMibQ1ErJs9lbpjEe/mSnSS6/iySDMMEQpWc8h7vD7Xotav84qVCjHU5kqiijwpyf2Z8Dmp1B54xuj6UjiH9IpND0qkn5ZFHHjEPRWQYZsqgSTDiok+SKq5gPhmN20PtO1nEY5kSHM3PY67PPyhBTpfREsJvp9M2u3ghwrVoUf4je1GbvhU55Fs0ihtn7ZP84Q9/iIsuukh+kkW/+lSlbojanyTDMLEjbgbuhKrkfI6Q12BPUT50f7mBjpCVM2Vox5XnNqChXTlHlts1TE53pTNnLV3vJt35rqo8f1GOzn/W05F7Kwe9I2g1lkM5AQ7cTyzQOVjLJ04yoAwGZ88icUv5poP40jWVF8BGsIJdb3F/+3OwVV072+fH8foFy9M9sRy4w5Ykw8QRcWVJ+oREx1D5GQTEbLWRmHWhVBdBo6iK9HLtPM7LvLzYpI7xWSrUzNdVqnnB15c3eGW5fOlQ/NYcTbSM5VDlD9wvB9scy2cpwwbDudqVj45PZiz3JYBg19u4TdtbwyleJ9R2l8RcJMlTBcMwUw9Nxp9YlqSqII3LwcTVtvIjYa1AO+1nqpD9gisW0FUqKuDllnJZ87ZbNu6nxDqgfGOl6LKWwZcGCatd+ZIc6zW04uZ6y3X9/gYiWx58JqNqLYiyqZWIpUga/ioYhmFiADVHCrEnwddCKGHxoEXuR0JFgzdqRXWpxZdWtqOrtxdd7ZUojZU62ZbPqQxEsG1JTGYOcvs6sSfqcTT69ROhvxEFhus/EQIZa1gkGYaJnj4vRulXVqwN2BaOigiro1aOaKTKtB+NBYPwqorZs6ERgxUVGGzcILa6QC+HE07lsyuD7igmSPmSGw/E5UdDvvmlgJqbfeuhrrcbyOqMU4EkWCQZhomOzBpsEhZfhRy+vxwtwloYrPAP6U8P9ZmAEC5RE6v989FZ3uavLDPXoLygAOVrXNSexnI84DTHsRA6u/LZlUGfmz5Y+ZKczJq96G8clNdUv14VKNVeWFxd79CM7OlEn/jXkO/PI54+A+E+SYaJI6gJiqelM2AcmKOiGCYU3Cep8/IOrF27Ay+rVYZhkovernZUbmKBZKaOQJEk4RFvsjmbn1ARGk9sFnHBBCkcwdLzMARLdgzDMPC02HwywjCTiL0lee1tuO1gK3boiidErfXgtdD87jtw+Xrs2rUel6vVkFx7F3qFGUymsLf3Lhz8FgslwzAME184NLdmoqgE6H5cU8knfnQvVpSICMXLO9YarMC1mpjqlqT63UGWp1srkQSWhLJVWaImS3Mz/Ic/gc2+eJGu8WOnJzaLOFUWhmEYhokBjn2SV6yvwYp7f4QnpBV5F755k9oguHz9Ls0CpPDDFbj3RxYVfPZejBTp22/DT3XxC8blV2LFsyN4iYTQI0T5h9rxvXcdxLekyr6MHWu/Bah4ClsKtEOlqMpNu7DetSnLMAzDMMEJMnDnBhTd9lN8iwSrxtKMarT0vvVT4OCLZhG8VojqDWr5iszgzbRWXn4RBw3HX35TCa796V4h1o+jG4Z0dYQgezwjqPFuESVmGIZhmNgRRCSFTH7zLiFwt6HIqD4kkJ5ulPQqi66X9okBUhwzcYVadY0Q1B/6rE2GYRiGiR1BRVL2FdpZaNeW4CZlWr78eDee1RajQDWxksUqm13vhd6CK9O/rQg3XH4TSuCPN3LF+l34Ib6FtdwhyTAMw8SQ4CJphxDOmhX3wqOaWzeOrIjMkqRmUr3JNqcVmcIy3SLV+AZsUaNdaZvn3hX4odxwOdbf54+nYBy4c8OWH2LFvR4WSoZhGCZm8Iw7DBNH8Iw7DBM9POMOwzAMw0wCLJIMwzAM44BsblXLDMNMMYsWLeLmVis0yXmF5rK3kjzfWx0vxxsmh8PTlCm+BrFsbk05duwYiyTDxAnDw8NxJpIjaC3KRwMaQ3viMFaMMaskDc54odJsA6pjnk+UxPrc4+W8CMNLiqSyA2M0oW6wMoZVfrrHFfDloKcfBdwnyTDM5DCyB52oFP/C9FCfWYO9sajgR7wYRC5yKKFYpZkIxMm5jrQWCYEEOsbG5KAyCh3oMjlhDgsST6t/0d4uykCl34/Gwa2II3eSsbckjxw5opYYhgmX48ePx5UlSZVkNdqwyZuPrTn92OvzNmx++6/s6EfOVmFxqs+yCv7+74HfLNKsvnwvNo21aI565XFdKKV1qjDzG6AdUoDGAM/0FgvjmlJcM/d6/MRnSa7BHrJy9TwbRfnW7AlMU1mg5bkNaGivFPWxXhYNOsd8fyLCYtbS9W7SPZAoa/YX5ej8Zz0dubfW/OtR1rbl3AP3EwsO5xxQBoO1LBK3lG+yxJPOSxbCxsl0sHMW17g/B1vtLMmQFqbh+VAxkRDXza0kkpP5R84wycTTTz8dRyJpqCRHjc6PtQrSLyIKYwVoWB6tTUdXqdqXmu66SiHqQHNl6FR52qXp2NxqqWCN+wthytWFygjtYxDx3tpaoEUs+8opYvXlDV4pcL50KF6/JtZy2u6Xg22O5bOUYYMSGbttVD46fqKxXJsAgp2zcZu2t4ZTvE90A19iIsEqkh0dHViyZAmWL18uf9PS0sIXyVhagPRHvuV74q+AYZiwKPF8On5E0lShKWvK2DcYrAI0LhsEp7e2CN4NKg2fRaVjU0HapekkkrRsl6aTVSPRrVVr3n7BFQuayFsHDNmVzbps3E+JdeA5l6LLWgZfGiSsduWbBKznYcXNOct1/RoHIq1/k5lqeM5sM3WHVSR/85vfYNmyZVi5cqX8nTdvXmQiuXjxYhkZDbolSSK5+dvirYeJC1577TUsXbpUrTHxSjxZkqYmQIWvSdOu8nSsNMlK2IacvUIMirzYELA9CHZpBhNJuzRd5RUolr1SHDuACmX9WdNxyttpP2O5KT4AQxkChD2wfBNPCMFyc87Wc3WKN6BddxurPwysInn3P34XCzPOx0UXLRa/GZg1a3bgS6ED7vZiGGaaMYI9nX2yL00fsDHWUYm+zj0YyVyDcjRgm93ojT4vRtWin0ysKR9EV20XBsvXaJVjZg5y+xzSCBc9z0jSFJV2rRwl4kELDRopGIRXDRrxbGjEYEUFBhs3uBMl23M34FQ+uzK8om0KVr6JxwNxCdCQXyvk0g81+frWQ52zC0Zaaw0DdXrR1V6AnOVqNUZ84cY8fOWLBfir9Z/HnX/zRdz9t2XY/Hfl+MG2rfI3WGCRZBgmEDmqtREbjOrgKUVlH41yzURNGwlIOtLTtVBLtWZmDTZVtqNCrBc9cFQ7RpG5phyD7cAmn0kiKv1+cxrp1lGPbjDm2bo8/DSFcAkVUPvno7O8zW810ctAQQHK1zjZPAaCnLsfh3O2K8Nl6pBg5ZsEMmv2or9xUJ6XXuYKlIozkRtdnHNotFPU06ehtNE1tYbDay//Ti05w82t0wRubk0M4mvgzjTHODBHRTGJQUCf5OO/wLJlS7Hyqiwsu3Qp5s1zP3CH/yoYhmFs6O1qR+UmFsjpDoskwzCMDZ6W6AaPMMkBi2S49FQjJSVFhuoeFccwDMMkJZMvkgaRkSFSpRluRmFhM4bVathEdHwPqksG0DQ0jvHxcbQVq+hEhM5fXP/CZsMVcHNNor3uDMMwCcSkiuRwcyFSSoBuITAkMhS6sVtIT4IwfBADyMOKLLWe6KyuQt6udTDqJMMwDONnEkVyGF27IKywNhgNsOI2ta4sG83CrNaEU1ktzdV+y1MzPIfRvK4e+/fXI1u3hkzHF2oVfzjHG7ErC1mR2eIYbEcJxSeFNbUSGzfnof4+m9cU22vg8rozDMMkCS5FchT3ezJQJ78g1ZYzMjLguT+Mz0iHu7Brv5MVpglQXrdmXQ41DaBEb4YVFfKBMmV5dldh+xYSpyzU7WzC6tVNGBLx++qGxPEHsFlZp+NDa7FrnRIxV8cbC+VUlmK0DfmPGd9XJ1JJAorbhDVfYulfdboGYVx3hmGYJMClSI7A+9R63EIjvXq34a7ch3Ds2EPIvWubaSaGkKxeiWy1aIKaMUXFu1GZmFmla7F6u2qGNcQjeyVWq0UTshlUWXgUyOLbfwBDtM3N8UaClSVJKd7YhAH58qBwew2CXXeGYZg4Z+nln1JLzoTd3Nr78A58QnPuhpxPDGLIrTGZtQJ5+3eha6LMDFGpSwvPF8zNukwQsuqwc+0u3Nel1sOBrzvDMAmKmxl3XIqkB80PAbdmZODWHetx5x3LNYsS5Vjjeo69YgiDBfXZev+WRk+1WJcCWg+9a2y4axf2V5WFrmx1q8VyvGvsrJ5Iy5LgZNVtFjeH+lxpJcQ1iPa6MwzDJAjuLUlPM44dOyZCszZvH6333oFw5qHNqtun9W/pzXMilIAqX62/b6BEi8uuz0N3qO8rhPWzuUpr6itszjYdL0OogTWm4417RlCWpECcd3eVf9npGkR73RmGYRIIl3O39qIu42HcogukhAbwbEN2rzGO526NV3ju1sSA525lmOiJo7lbw+iTZBiGCQfyPRiuZ5BIjmFiTxLdhxAiqX/ucSt2iH/UJ0mffmjhOtyVeyeoe5JhmCTDrpJLlorPeB4sqqEhbygGV1np0i+aYAKuHTlcjshl2gQSQiSX445e6od0CM08+y/DTBsya7A32dxGJeM5xZCR1iJIF4+6420ROtAV3qd/RoIIKwnkVlSiQK3HCy6bW42TCSh665DhuV9sYRhmWqBXcOq3ld76lXWhGxdyH5/VUWTwOG+kF7W+fbRjZWUc9DjLMTstla1N5Wuf5ghaqxvQ19eAfBFfdM89/uNMZVfe94Oda9Izgj2dQGN/i2nciaeF1u2vo3ad1LULA7pXW3P6sXfD5PXHu8WlSBomE9DxbMC96MQeVkmGmX6IytFbqqyLjkq0byWhEUKW78Um3eroL0dntVm4qC5pLZKmic8yIXdU5AFfXx/ryEXDNmM1a3PM9WpTEOzTzERNWyMKChrRL+L33r5I21mWvQG5Kg/pjV9XQ9tznQaM7EFnXy7kZ/EB2FxH33Uyi2ooSCCr0Ya9NfFpz7sUSZo4YAceNj63o+ICPpWLbO6TTAh4ZCsTU0TluEGvCZfnaE1kI14Moh0VujUmRKevz2tubaKKF4ZjdYxWXEU7MOj1C5HTMaEIlqYVKrvhnDLXlKOgXTUr2p3rdKEgx/1nfsbrZMLQCiCfCc36pPWi1seFtdon9DXfvN3SKjBRxHDGHeqblLMJ+AfuXNeJ8mfMn38wDDPNUZaFz4JzY1WQmOWL+qRfHdMvLBS1KWImIs3pRmYOcvs6sSdqtfKgRX8e6D4YnpG9NTehZq/aZtw+Sf3EMZxxh/Cg2TRwp5dHtjIM40dWqg0wtZRayVyDctjsU1CONapWHNnTiT5tUcPpGIOVGnAMESxNq4VrKbvcv7J0mhsBHmxoBBryzX2MvbWGdet1TELci+To/fBIK9ID6fyDB+4wTHJjaBZzNxhDWAzCEhis0I8RIaDZTOvLMu5TO1qDTbn+vKq9uRarz/6YNuo3dDomM0iatK1SaxYueuCoijSXPb8hFx3UWTrNoX5d2T+rriOFCqiXB9vrmHy4nHGHRrdWA229yN7mwdAGsiL9cUaLclJm3CEfhuRxQq0SVd3jCDl7HB23DtgZSzdXE5EmM23hGXcYJnqmYMYdGt0aZ4N0jN4n1PyhZp+IDMMwDBMdLkXSg1vWW0a3hu0FZALJqsM+EkrlE3G4udA/4bbPW36gV337/SzH6xN2k8UYsG+INHmyb4ZhmITGdfuKp/kZ5HyfXGU9hbuuy0DGrcBDYXoBmVCk2ybNhRN5G/H5N+zOQ7305WT1qp9lv58Qw3Xk9ULFd+dRmuSp384DvyXN0i6bYxmGYZhEJYxOCOsUdXH8+YfR6ivZDgwctLfo7PYjsZXe9jW/l8VtbSh264Hf7lhtC8MwDJOAhBBJcpFVJ/5Pv4ZvJK3BNF/dFEFCtnolskn4sndh7ZBu9QlLT+1iwnG/YrRJS7AMu6UoKifRrjzwOxzLMAzDJCQhRJK+jdQtxvV4yPSdpB4ewvodD7sYHj6RUHNoPfI2qxGmq9eiVA01lV71tUUNowVot58Qz2rZ4UiCN4Sm1QM4iBAe+PU07Y7lTkmGYZi4JIYz7hjF0kqwbROIGiyjDZLZgpXCIpSfgJDn/Dz/tnUH8vyWpNGrflep/X5ZK4D6bJVuNnat3Ym6LLOnfhn0QTmmNBfYHEs7MQzDMPGGmxl3XH4nSVCTK/mV1PkE7n0mcNadSflOkmGSFP5OkmGiZwq+k6SJA2g4q6GZ9ZlydF5H/ZUMwzAMk5y4FEkbV1nL16D8E4MY4nnpGIZhmCTFpUiyqyyGYRhm+uFSJO1cZXlxZzx/K8kwDMMwUeJSJAmrqywWSIZhIoB8PU6SU11mikiie+xSJPVJBZiooAkMeD5XJhHQvfrXmv/qe2tFXKjKL9IKMpYVa2+tz7WTDHQesUjfmEYsyxvP2F1LImbn34taY/rpRWiNo4vqUiQ92HDvoLlPciohsdG/V1TBlQeQcEUqWD4seEyyU1CJysGt/gpLVIpbBwsmzsN/Zg32xsAj/UhrEdIrgA7d270IHehCbyzSj1EZEwXHa6m2h42jsFYa8tiLmji6wK4tyW13PYUdxj5JGabQupwsV1lO+ZDnEfYhySQ1OSgtBzr3aFVa77YG5JaLCIWsQAPe/kfQWt2APuWwuUhGmi2F2idpP2APWaV6HFUkegWqflut2wnapuJkCKhwR7CnE2jsbzF1B3laxLpt+rozaUsZd6p95TaB5dgR2/NMNoJcS+v533OPzTWNf2I8446xPzLO+iVj7CrLEWM+BksywD2W3FaN6kI97UABdyyjOMa/bw+q1TZ2wcVMBctrNiG3YRt6hThsHWzEhjVqg4C81uvWxVhHLhq2UdWYiZq2RhQUNKJfxAujC61F0hTx7dtyvdhNVK7eUv3YSrRvtYid7XYhZPlCqPW0+kU+ancfI3vQ2ZeLnFCWiC99VeHblTEo1vNMQtsy6LW0nP/tiyzXNFzaUaFeUCbzhcPNjDuhRXL0fnjiwXIMRaxcZYXCkI9ECKKte6z9A1i5U0+7CttLzJOdO5Zxs9h3t9qzZze2V21GHRzyYJgJx4PSSlGBkThtsjQzklWlKrb0inZg0GsWOoIqWghxtdaaonL1xS3PCRQ7u+0jXgwa450oyAntws+YjlMZGXfXUsfx3hisdPEc6danXxA9aFEvJ2NjHeKlrDqR+iRHcX/1XcjVZ9qhr0DiweNHKIx9ieG6ylKbXOPkHssweTqKy1CFARx8Wa0TTnnTvtt3y7R6dm9HVZlIjV1wMVOIZwNZbJUoNVaAJJD5nSjvV5WbnVUXa0a96FOLjmTmILevE6qFmImGmF1LgwjScyLElKxPWg+0wJcjZ8IfpPAIIZKWmXY8t2DqPX44EDNXWSHQ81GrmscPSiMM91hB8y5GWdV27O7pwe7tVSCNjCgPhokVNFjFrgmtoBxrVB03sqfTLGB9XvGKLchcg3I0QLbERounFJUhK20PhKajId/cL9ZbG6SfzKmM+jkIAs5Px7BP8uHiWsbi/HtrDX3OLpvLJxGXfZLxTgxdZQXFkg8hBC/APZbRYiSo2ZTyulytE0HyLt5IA4RKMNC0UbMY7fII2+RlmBgihHNTrr/ZrNqb67ckaRs10crmNMi+q8EK1dwmgj5wJ3yERUJ9n/kqLWq6U1uMUF9pf+Ogr4+LQgVKA0Xeh9a/ZirjaA3aDGmYzk/HdJ7JaboGvZbG83/gqNw/Ipbn+K+97HOOpE9z4gjhBcTq+cMK+Zg0D96ZFC8g0hKrNwjLajQN7fO5peqpTgG1YBKrq6qAgZXYqUai6ttWNw1h84Fsx/0kwfKhbesg9l+B+1JKoJKR6e4r7bIcV4VuctLsO6YOQ0HKKBJHs7ajOicawGPJg31wJSXsBSQM6Pu9rlKMtcRTlcrEA7H0AhKGqyx3sKssgUEMI5KynmqkbFmJoUiPZxIWFsng0GQGNEZIg76tiy+rg4kPpsBVFjOZyAE7xiZdhmEknhY1AEQGFkhm4mGRnAiinGiguG0cbTx8lWEYZsphkWQYhmGmJTGccYdhGIZhkovYzLjDMAzDMNOU6S2SNAqV50FlGIZhHEhMkQwQN/qu0MUE5TosjgzDMIwLElMks0qxFrvQpavccJdYM8yVGgp2c8UwDMO4IEGbW7NQuhbYpavk0AFgbakmemQl6hOH6y6olOXYXK3mPbWzJE3HGeZGNcWLwBYowzDMtGEGzZBDgdCXowmTRdaKPOw/oM3CSh/f560giaS5VQ9gs5wMnCYOF/bmOiVq++txoIzi7TxoqDlZu7XjhpoGUCKdOprjXU+CzjAMwyQF0pKkabBiGSYFn0upYRwcUN4yyEOHdCmlrD6aP1Wf0Hx1EzY6faAvPXv4t2cJM3U1pW2JZxiGYaYXCTy6lVxKDeBgTxd25ZX5rUPlVFlafjJE4Xtx6IALzyAMwzAC8rFZ1BroeHo6kkTXIoFFkozJPNSX1CNPc7pIbbDI218P6eQ/HCzHSddVVUJ4yVrdbxggxDDTjhG0FqUj3VrhWSvBya4U46USjnU54lFcyNuKwVVWuu78MZZlNeQxmW7Hkn/GHenxX3dMTBSjbYh8MYY70MZ8XHZ9Hrrl5KkivlsIcbZKy+T+imGmAeQEF5XiH3v7nxQya7B3bw3ixefwSGsR0iuADt+k8mPoQJezA+tQ2AkrCaQhj701k3f202DGHXJCbGlOpc87jM2t9KmH9ZMPfd0YbzrOkGZxmz+t7iogbwV/OsJMG8gjP8o3oDS3D50+lRTWZXUD+vo0p8tFrY9b1sV+VBkqyyA9vQjSOFAVZGutHp+ueaS3VpyGdVlJW9MJyN+an/Kcb8rP7F2fMKUt89OsZp+XfHFELeX5uEO5reVQjof3BOwnMJVPPw+bMjidu4qbXEZAt7+x3+xtxdNC65Zzv+eeoNc6GL1dgwF5xBMJLpITDzlp9lmlJVAWJsNMB7RKsnxNJjyllejr3KMqas2Tf0FBI/rlm/9NlvVR1OZ7sUlZBmP95eisVpW8qFS9pSq+oxLtW4NX/uQZX7dgxjpy0bCNql9r/pQfebTX9pOe9HV18uVnqYSFGFU35Pqsl45cL0Yp3U2iTF3q2N4utFduQs1lYtm23JZy3L7IYT8htnbXw7YMimDbJgtqRejLRY6tYRfs3MMRvF50tfehIV+9DIjgf0mJD1gkQ0Buq3yWZDSDgBgm0ZBNreUQGinMh1JU9rlsch3xYhDtqNCtICFgfX2qkheV6ga9Bl2egwK16IjRAiNvy4PeQFGl/AzpZq4pR0G7ahI05mckMwe5soya1aNZR7QgzlMd29vVjspSdbDbctvt53Q9nMpABNs2mRTkYLlaDInTtRZnUGs6d836pPWi1sNiOznP1l8gGjFYEZ4lOtGwSDIMYws1tfortApRZRubXEMgKkyyMGTFJ0MElTwJZL6Q6X5/BRpSVF3jQYssVym65PnpFbMHpZXt6OolC6cSukZGje31cCoDEWzbJEFC7fbFKCj6uYhA99BwLfbWLFH7KDLXoLxgEN6o84wdLJIMw9hATa19qFRNmDJ0GJtcBbp1qKOvy8q1AbJl1C2GtKQ4q2UUKEtWYIonHPKT+1WWiqo5CEKAa2XHIFXg/Wg0VMyeDWTNVGCwcUPwNHSs18GK0/WwK8Mr2qZg5Zs8PBCXAg35ZoHurTWshzr3kGgvJVt9nbTBmninBhZJhmECkU2tluYzY5NrZg02icqNmhDlwBnT+nK0yGYzrUlNhmADT8SxbdSPqPat9uZqFiOlmetvmvPFE0Hyy6e+vJYQ8iaES9T+qnz56Cxvg29QpbRmCmRfbEiM5VADdwIRQmd3PezKQP2fRLDyTSLUJyz7ePVyi1AB9QLi6txD42npR3mnOlfZcjBFTcsOpBw8eHB8ImbJ2fK9Fmz+dq1ai1NoXtZ1wE6e7JyJE55++unJm7VKcO7cObUk3phn8DuzhD5J2JqD/jj6FIMJD3qu9efZ6/XiN4//AsuWLcXKq7Kw7NKlmDcvDampqXJ7KBLzr4LEzfT9Y7y4yqJypPAk6AyTwMgBO5tYIBmNxBTJrDh1lSXLQdMb8Cw9DJOoeFrGEKq1lkkOknjGnfh0lUXT2WHtRpTl7feXjWEYholLYjTjTg+qjaIhoWZFa9zkkhV3rrKGITVSmLPFZVXYv6vLUUwZhmGYxCAKS3IAB6dSBabYVdZwc6HPuiwkc9XY5MsTozMMwyQFQURSDUJJKRGyYxAeGbJRn7cZdTHv1AuHqXWVlVW3z5fHPnEhpOcQYa1my+tD14ybXBmGYRKdICKZhbp9RrGxhDiYwzR+XGVRU+t+VOnNshS6ucmVYRgm0XHX3NpTbbAi9TC1fZKSeHGVJZtaLc2y3OTKMAyT8LiYTIAG7mzByqF9YTWvJsRkAuFCLwu7y+LCimaSE55MgGGiZwomE8iDHDw6DWFXWQzDMNMXFyJZjI1NA9g95W2rUwO7ymIYhpm+uBDJHtxXvx/bjf18MsRBnyTDMAzDREiMZtwpRpvPkmKrimGYBIR8UwbzRMLElgS53jGacUfgm5pNTfNGA1h4Em+GSV6okjO4R5oSp7+TQajKnMVV84pifBZqdcedsbk2I61F5vSNecQBLkRyGM3rdmHt0Di6q1RU8UY08STeDJPcGL3pdwAVySgWmTXYG8wlVqjtSY4UsAqgQ38OROhAV+QvTDbCSj4rfY69Kf1K8ejlLFdbpx4XIjmEA/vjbHRrwATlylXWYw4Tl1OcdaJyEeT0rMZ91CrDMBakw2Xlhd5kZSoL01j5ye265TmC1iLDPr7jiiCd0avjWmsNaZnoRa3vmHRIA8Mx/1rUFun7Ub6GYyRebFNx1vxHTOUwHBdqO0HbVJwMtL/alNiMYE8n0GhxguxpoXVxfasb0NenOcUuuucew/Wxu48uEddya3slNk2Fh2kHXPVJllVtN49u7bkP9eG4poo1Tq6yLlfrThinrFOTB/iEkmEYR0Zat6K9IAfLSbTyG5Dbob31S6/1pBaZOchVIjoiatZcYQ10yZpyVEiTfpwXm3SLob8cndVKTERF6y2leKtHehI6acb4rIwWj0P+RN8gctpEvDBF2iuqAX15q56P2i6PAxr0/HV85bAcp2O73VyeMZFwgdo94RnZg86+XOTY6lUmatrEuarWhr23LwpyH93Tu61BqPKGiI+fCFz1SRa3DWHllhSUbN+vzT5D3wtOqTf/IK6y3EI+JUkot7AFyTC2KCuBrKP8znLNU/+IF4OiYtygarHMNeUoaKfmNw9KKwfhFaoy6s1F6YYcDJJK0v65OdpxaEeFbm0JYenTLVNDeiaokoZlm2P+goJyrKEKfXmOqLwNy7SN0OME8jg9fx1jOYzH6dhtt5Qn6ZAvRi5xvA6G1gB53/3PVZE05xVxaEUS7gbuBMzjOvUjW+1dZQl8k4yr4DSVHCHnbFVeQhiGMSMqPV+fpIt+OaEb8I72omtQVKyZa1A+KMRr1IvcUlVzGtOTIXKLI24Q59enFpMO2TrQiT0mczoSPGjR7zlZ2obnYK9BEOPRiiRciGR8+pO0dZVFWL2ABPUByTBMWMiKswHbVAsnNa32VZbKio2sM2zdisHyNUJQM0GrXV2AHINhOc4VJLSwHBMk/3CI9LgAZF9tLIQkHvFgAzVL55v7GHtrDetWazxS4tSKJFxaknZMsT9J2Vdq4yorHKS/yJXIVqsMw4RCWAXCGhis0JrL8hty0dGipEYIGJlV5apNk1bbhVWprZqPkyHkABet38t4TG1vkPxDYW0+dntcUER5OnKFkKgyUnOi2pIM0MhT2e+rrhuFCqiXi8wabKrUmtCLHjgq948MbRBQPFqRRJAJzslazEa9U1tlVXfQib4nZYJz+l6zZLt0USWLQqNU1wE7jf2letxOYJ1pG1nI1Lkqjs22OY5hpgCe4DzBoW8Ku0oxFhMBZiLF7QTnNONOqAkFgvxVxL8/yUBXWSEw9VeSZxMlrgHbeMo9hmHc0Wv4LER+U8gCmTC4mXHHhassgbLYzFQJI8x5AE9SuspimAmGLUmGiZ5JdpXVg+qSATQJq8tsTfLcrQzDMExy4/LVcfr6k2QYhmGmLy5Ecnr7k2QYhmGmLy76JLVRoNYeSe6TZJjYY+yTbD8wS/5OJNR1okOD1hgmGfjLFScns0+S/UkyDMMw0xOXfZJkTeqfR1BQfiUZhmEYJolxIZI0qYD20b3Pihxai13ZU/8t4XBzoUG4U1AYSrnZJRbDMAwTBi5EkvxJWj7YJ1dVq6d2WjoSyOxdaw3ztHYjrz47tFAyDMMwjIBm3AmFC5HMxsrVFn+S5L9xSh0x9+C+eqBpp3EauWK0DTWR/yxlKZqbiKt7hEW8rh771cw6JKZmS1Q1IZO1aZpxh9JR63KbZX+GYRgmIXEz444LkaTp6bqBEl0cRMg+gM1TOXBHTkxu4/TZ5/oqsIm4rVicx84mrFZeQvbVZSGrbp9v+3h3HurvE1KYVYfNRifTPbuxvYomUBdiKc9b7U9Nzuu46ZZhGCaZcTlwxzrCNc5HtpKliyZsDFVIo2VI0+4NHJSiV1xWhe1KJXt2D6CJEiJhxnbxrqC/KJBVyr4oGSYm7Psb1H4yTYaf7hPrh/4FTd/8F7ypbWUSjSS6f0FFUjZH2gx06akWIlHtb5CcdKTFuAtd1oKF4/qKBDJ7F9bq0+0Z/U4Wb0TTAPmq7MHuAYPFavVVyZ/BMMkKVXJKtEziFYqIKsdH8NP651H+sw/R8rPv47X/k0TimAxiYXiBkaHxES0+VudmetZuxK8Pqfg4IYhIDqNrl7XfT6O4rVs5PJ4qaBYgoN7U3EnNofXA2lJk0cAi1INaTwMwWn+GJtthcbJ+r2BZKF07gN3VuzFA6ckoEmaHNBkmGcn7Pu7+LyFcFEi86l0KZbgc8uI1rMLFy8Tysv+O+h/9d1ykbWGmmDcfvBG1olqt1p8DEarxS7ygtodNgLCO4Nf/owP59IJE6TetQuf/iK+XiiAiSaNanQbn0GCeqR3dSv2JQ2t3GdxbaX2Q1NdIIkf9jwOGflRp+Kr+RmoyLewqxeY8v3usdQfy/JakIKt0LQa2A5tleoQ2MMiYpp2VzTBJCYmXwcqTlWfA2z9VeHfipYE78V0R3/TgiMN+RoQV+RVxDH6MNtpn3VrcZ7VOHCwNU9q2Fo1I23ecoRnXF/c3WmWvKu5fN9rtq/aRUHqGY3zpqDKZ0qH9Aq+Hu+PihREMPgZh4f8rrlYxxNUNtG45tx/8U2zOYdkKXKEW44UgIhlMCIMJ6ORhGngjgsnFpRDEfTbbitu0dRJTfVmut7Vhn9Hpsjze0pxqSXOcnTQz04llOVg6cFCK0UVf+7XPspBv//9GTXCZuPEfv48rlAVa/7VMh/2M3IzbhPjqx7T882cwU23RIBE9iJv1NH5WgX6yNISw/FvzKp+FU52plcuPqMS/WQY0qeNEuK1QE+SlKu7uuufRpjcdisr+yA1q36ZvYB+9DIgXg5vLfowB3Xre90vsK/uiEAiHMtE+vnRISKzXY9jlcXHCoW70DygLPwDLuZUuivAcRDo/asCRr6gXh68Iq/If46slIYhICmtscx7qAyYNoE8iSjDQtJH74xhmumK0iOp/LDTJa2PJCdzu54RsilVWJgWyOkmoSbBlvGa1aNaNAarg8X18rlCtE5SWqNT1uIs+XYErdqumQ0O80Zq5+gYhmE9oQvrCE8+j/C9udi4T7WRMx0qkx00leSvcC5bjORgsennOmvVJ62Rdv9Cov8yI65v3XzYvUlNL0IE7wtTC+NBKbNGbF2UwNmsyDDNtkCIjKk0SPnrj1/uRyBJUu5hwu18oROXr6xuVgQRRWKBy+YsYkBXuBDVTFtajfISE9BEMjFQgV7eqbMvkgkiPmwpky0EHBgOayMNFv1ciGFsNRKj/dDceGdHFlaxKIZQjjTbN8lNHcJEkrE2MIpiaNRmGmQaopsr/pprC8vyC8eZvO/CStqihW0dEsP3cICvqO/Er64AhIcA/pT4+WQGTBfI83jBWrMtKkA/LcZa0ZHlk82kwMpH7+ecx0PhLvPb5Eu3cncrkhH49wj1uyrkZn6sDOr9ifgF5odGwbrzXkWC9JkGbeGNPjGbcYRhmWiIqL71ZrPaTjVgsLMLb6I2f+uoy/dv+7aVVfgtR9eNRk2LTb0uc93ON1mdJI2u1cohAg3RE5YrmVSpuFfo//2PcaKpYtT4z43E/3WdO67vUp9lws9rfGWqWfW23KMnXMlWMQ5nUVhPG6/Fglvvj4gTqU5Z9t3p5RWiDerEwnlvXUbl/+FiupWx5mDzr2s2MOy78SUYG+5NkmPBhf5IMEz2T7E8ywWHPHwzDMEyEJK5ImiYbT4kP7x9GQWZxZhiGSXgSVCRpdh3DlHLkJutAnM2iSgOe+DtKhmGYhCaBm1uNkxkUo8035Ja+4/RbmNVPaLFdNN+sHqd/+GmyRg2usgqrUV2o70seRczH2brYEjajyRXX3d8xWJKWMol0TGmwxckwDBOXJKhIFqNMTS9nnmjdxkXWDSJaCNeBMhXXXYXtW0iUyBp1cH21fwArd6p9S9YB+rI8joxEGxdbaio8nyuu9fonuDZlym7Guvo8EaWtd+exNxGGYZh4JPFHt/ZUa26uqroxvvEgCknTjM2cZBka4/T1ncA6cncld9KpQjdNnqDvbzzWumw8loTRaX/KR49Tu+uzFm2n/NiTCGPAOLp1Mjh37pxaEm/MajQgwyQ69Fzz6FYdmhVoPEKvJJG4vpIC6eBiyzW6f84y7JZNrtap/xiGYZh4IDFFkoTK2Myq+5EM5iLLSjSurxxdbAmsjpjtyiTKXy07Mkksh9A0xR5VGIZhpiPJO+MOCc9AiX/gC1l20u+ljYssNXAnkAhdX2XVObvYom26K64d+jwaNmUaWgHUZ6v1bOxauxM8FS7DMMzkwjPuMEyCwX2SDBM9seyTlCKplmMG/ZGzSDJM+LBIMkz0xHTgzuLFi0GB0JejCQzDMAyTLPCrI8MwDBNbRlpRVNQKcmaW6LBIMgwTCFVy6elI94UitOo1XsA2CrXoVZslU1VJJlHlHDf01prvda260zG71r2odXqO4gAWSYZh7CloRP/YGMYo9JejM99QgRm3ydACj9rEJA8jrUVIrwA6DPe6A12RC1mAsI6gtUhmoKXfAVTE2UsOiyRB312GM39quPszTKKTmYNctRgNstL1WQ26dUoVZTp0A0WzLNQ2k9WqRNpa0frWRTrVDejra0C+2L/IZ/oykTGCPZ1AY7/5BcjTQuuWa33PPfIetNaGaw2OwttXiVI9A08pKvu8IjZ+SFyRJKFS3x1SiAtXWQyTrPR2ob0gB8vVKlTl6Bc8dxVjZs1en0Uy1pGLhm10VCZqNlWivUulQHlVbkJNphDL/AbkKiujv3EQFX4ltUGk09aIAmXl7q3JVPFMRIzsQWdfLnJsL6PlWt++SD4T3lK6V+G2KgzC63ufWY6cAuP61JOgIpkArrIYJtExCuHWHPTvrRFVoyLS5lajZVjRLupHr2YRkgXRrjXj9Xa1o5JMixEvBkU+G1TCmWvKUaD2YSYJ44tRKAz3yoyhz1G89OjWJ60XtS5Hi2zKV9vT89HgKMyxJ3ln3JHYucrS3Fr5Z6yjicQL0fwYNY8Gd38FHMB9Ks7v/kpgslgD51hll1dM0qILYb+wGGLRBEYCmd+J8n4lrJSu2iRUEqWV7ejq7UVXu6H5jZk6qIm9rxN7orbqPGjRX6bonhtesKS1n1mDvabtYQhzlLiZcSdBRdLJVVYW6jZXYftuFdezG9urNqPucrEcwv2Vb7uwTIeagHrpNoss1nrkKTdXQ00DKDHNGcsur5hpAFViNKAiFiMPC8qxRlkJI3s60actSjwbGjFYUYHBxg2aVSor6QbIFlmB3L+yVNtmEG1rOsZtTDR4IG4JGowDtgS9tYb1mF5rrZ8T5Wv8LRZxQMJaksVtmjCNl+3WrDhdvIrLfB5BenZvR1WZ8uuhT0qevRKrjctyo8AwaXlW6VqsponK5cTpTdiokpDxRm8jNEk6SKw1C7O4jd1eMUmKp0XrE6QBNa+ouFCY+i1FxSrEdlOuP67am2uwJAWZa1BeUCDqSL2KFBaIsCwGK7T98xty0dEiJFKk0ybLYpMO5SEsUtrGA3eih/qQtfuu38d0VEC9qBiv9QNH5f4R4fvEJB+d5f1x15eccuzYMTkt3ZEjR2IyYw6lM/nT0lGz6m6UKVdXPdUp2F3WDZSoOGoytfp5DObzkeLJIbPRt2SweJk/+4dkomdaT0tHlaW175NhIiCm09Kp3xCM4n5PBuqkja0tZ2RkwHP/FDVqkFiZmj2Vqyy1WryRvG6UYKBpY0SCJd1fVZWh2OJOyxevrcpysMsrhokNcsDOJhZIJr5wKZIj8D61HreQjd27DXflPoRjxx5C7l3bpmakWZaTqywFbV+9Gmv19lM3CDHU3V9l71qLITkQyOxOK5v6H2W8Qogou7ximNjgaRkDtaYyTDzhsrm1F3UZD+OWY80QC/h+zjPovQPCoqwG2npxh2Eo0tQ0t1roqUbKlpUY8jWHMkxiwF5AGCZ6pqC51YPmh4BbMzJw6471uJNUkSxKlGPNZI3VDQM5YGczCyTDMAwTHe5fHT3NEFanCM3ayCZaF+ZkHGqkHPlqbBVlGIZhmEhwKZLU3Fpn6X+kATzWOIZhGIZJDCZhxp1BDPFXuwzDMEwCEoMZd/TPPW7FDvGP+iTp0w8tXIe7cu80DdphGIZhmGQihEguxx291A/pEJp5vDbDMAyTvLhvbu2tM1iRepjCPkmaUEB910hBusqyxPkmJDfFGyYpp09FjPvTBAUBaVAwTHjOMAzDTBvcD9y5dRD3PmO1JtVI10kniKus1U0YUhOOi2iUkGeOrDrsG2rCarlNmzZOeu8ogW9ycjlBOdS8rMY0ZNjHkwQwDMNMQ8IYuJOL7Ljqf7RzlWWBJjunicrVqp9hdO0CmobM86zyBOUMwzCMEZci6cGGewfxcNx87+HkKsvMcPMWbDfM6epjuAu79htF1oJhijoZ2E8kwzDMtMR1c+u2u57Cjlvjp0/S0VWWdQ5Wp6np7MRTx9rcytPbMdMRcpJscJGUMK6nqNxFrYi4tAHHj6C1qAitj0eZLpOQuLYkm019kVPdJ2mguE0IWbfPh6RJ4JzETXr32IUuNg8ZxoFe1OZ3orxfeYwf60Cud5p8FE1+LWHwyD+yR6yVY81NNdjLbrymHe77JEfvh0dajx5ID1k02tVzfwy9UocBjUAN4iorNMXY2EQOPAwjXQU91eZ1hpne5CLHpwgetNi56JBWVy1qi/wWZ61qXhppLfLFpZOzZhIdZaW11lKc5uHeeT9/urW9ZM3py5S62sd6HFl91Q3oUw6fpfVrt59NOfxkYk050Kmr5KhX85avjtGycU7Tv11Pl8quloMcZ18WZiKJ4Yw7o7i/WrxLPXMMD61XUZ4NuJfetqZCJUO5yrJCoppdj/2yKVYTwqy6fRhqGtD6NVUogfIVae2T5E9AmGmHB6XK63y6T5Uc6BtETpuyODsq0V6hVfTk1V6zQik+Fw3bVDpCwLylFN8iW6Kc91PpyjTJ45Ba3kpCRJauF5v04/qF7VdN8ZmoaWtEQUEj+kX83ppRh/0ofXM5jGTm5KJPWc7k5zLX/7YgcMg7Mwe5fV5pOIzs6URuJdAlT2UUXuRguWOZBUHKwkwcMZhxR4f8ScbT6NYs1O0z9Bnqn2jQpx52TawU79vXP4KVhNKfhgg0Qta0rx74ExBm+kH+HWVlXtqlWT5KLI2WX9EDR4GCcqzRNcRTikoMwqtbSGq/9Ip2YNCrCYIQsA1GJXDcT6W7PEeInmGZto14RS5KxCnkk/WoCZSJYPtZy2GEzqO9S8iaqPsGK1FqKq9TmvRioZ37qDcXpRtyMEgqSfvn5ghLNMKyMFOK6z7JW9bvMI9ujWNXWQzDxBBPixDLDiUaZstv7+2LtH2svCKEz9in2S+sO7XJBAmkm/3sUNaiXhZHK8ztfiaU4PXuQWduaeD+DmkKDYd3tBddg8JypL7NQXHNRr3I1VU2orIwU4nrPklP8zPI+T75k3wKd12XgYxbgYfi1FUWwzBRQuJlbGYlK6iAmgxD0NuFdrL6LhPLBguTmh/7tMVA3O5nRDZtNkBvmQ1At9BC7RcET2kuGioa/AKnEyTNTOrM3LoVg9SHqfo2u7qAHLpwUZSFmTrcD9wJmMc1Dka2MgwzMUgrqEJrFpRNg8Laa3MY2SkqfhokI/erADpoBGhmDTbl+uOrvbn2FqLb/QLwoEVYnYMVKl8K+qAZSlP1pxa1LnfeLxSy6djS1CoJlrcwJYXKlyvVp9V2YVVqq0GOY+KWFCF447Rw5MgRLF68WEbaQqNZb92hVnTW4yGLWFI6OTk52PK9Fmz+dq2KZRjGDU8//bT8+5kszp07p5bEG/OMMN6ZdcjipDE1/GkEE0fQc60/z16vF795/BdYtmwpVl6VhWWXLsW8eWlITU2V20Ph8q8i3uZuZRiGYZiJJ4xXx3ibuzUM6BMQnlqOYWJPJn9gzyQ3LkUy3uZu1ZCePAzfM0p3WTosjAzDMEyUuG5ujbe5W0kg5dysvm8Zu5FXn20WSoZhGIZxIIYz7sTb3K09uK8eaDLNslOMtqEmYFeXsB6H0bxOn2FHWJg73pR7dFX7rU7frHZkcao438w6ygptlvtrM/SYrFa2UBmGYRKeGM64Q/SizmRFqjlcpwI5V+talFpnwZETl5P/yCzU7dSdLI9j3/qL5FRzB8qU1dldhe1bSOjIefMBbNat0aG12LVOCaBv/zYUC9FcV5/nc9DcnWfno5JhGIZJNlyK5Cju99DsAQYr8plydF43dc2tYSMEc6M+H132SqymXxJbKL+UFOT8rkoAjfuT+Mr9NKuSnTMzDMNMD1yKJM3duh63GNtWl69B+ScGMTQV1qSTq6uwvYEIrL4jDXO7+ilGm9xWht1SUNlbCMMwzHTApUhmIucTlrlbR/egc8omPVeurvSmUQk1ndYDa0v9/ZS6VeiEFNt63BdK8YabUS07K0ksh9C0egAHuVOSYRgm6XE/447sk7wV/jl3AmfbISZzxh05wrV+v1oDqrrHQY48dHqqU1CyXRiL37kL+NVF2Kl7CKGBOeugrdMyNbPKIwRkWe4E1unbZaQQ4JQSiKQkq5uGsI/dgjATwFTOuHP48GG1xDCJzZIlS2I2404YIukOnpaOYSIn4aalY5g4ZAqmpROM3g+PaXRrAg3aYRiGYZgIcCmSo7i/+i7kGke3PgTc6rlfc0fDMAzDMEmIS5G0Gd3q2YB70Yk9rJIMwzBMAhLTGXduWW/93IOEM4EnPWcYhmGmNTGccacXD+94CnddZ+yTpJGuO3Ar908yDMMwSYprS9J+7lY9sF9JhmEYJvlwKZI0uNVjsCL1wBYkwzAMk7y4bm7ddlcuHmILkmEYhplGRDFwh2EYhmGSG9fNrZk5sAzc4eZWhmEYJrnh5laGYRgjI60oKmrFiFoNQN8eaj8mKeDmVoZhnOmtRXp6uj/UxkHbUbyJE4vlhEHP3FTj2pIM/E6Sm1sZJpkZaS1CegXQMTaGMRU60MV/81Yya7B3bw0y1SoTWyZSKGM64479d5Lc3MowyckI9nQCjf0tpr9xT4taJ+vJZ2HWasIpLapa1BZp8bW9I2j1LQdu98XLTUKQVVx6ehFafWZZL2p98SrN6gb09TUgX6wX+XcMnb++j0rLV27CGJ8v0lfR5v2N5TIg8/U3v7bW6vs75SsCW55hQddsIojhjDsE+ZM0WpEe3M/NrwyTnIzsQWdfLnJszSMhXEJIcjs067K/cRAVuhr0DSKnTcR3VKK9ohrQl7cqUdC3k2Uq99GEKrNmr89aHevIRcM2iiWRk6asb1uLJxM1bY0oKGhEv1jfW2MpYND8ncptjh/rF+nLxCjei00q77H+cnRWhxA3Id7eUrW/Q77+9JlwmCihDIVLkRzF/Z5bAaMXkGfEA3MdN7cyTNJSkAPbqZlHvBgUIrVBmZiZa8pR0K6aYQvKsYZ0a3mOEDLDMm0j9DjCU4pKDMJLqmO0tCragUGvsMyEUMOfjyuC5e9Ubku8D4pHOyr0cpGF2ecN7vnImI5Dvkxk0AvGVOBSJG28gCxfg/JP8GAehklKMnOQ29eJPZPRJviKEMj8TpT3x6GlJcSNLFZZLhnMzc+uGPX6m2+ZiJgqgSRcimQmcj6xAw8bzcZR8ZbHXkAYJknxYEMj0JBv6LcT9NaKdSmgDZAtooKRPZ3oqywNXzx6u9BO1t5lYtlgYcr0aCFTvIjDn4+JUBadHU7ltrwQ+PM37x8xZDFP1gtHEjKVAkm4FMnluKOXvCwb+iSv8+JOHrjDMEkL9RPKfju9uVGECpAYetAirL3BCi0uvyEXHS0uawI14EZrVgU6aFRoZg025frjq725ypLU+h/1fCjILkTav1JrBjUN3AmJU7lFPPWD5lvzN+8vQ0QDbszpmwYGMUGZaoEkUo4dOzZOC0eOHMHixYtlZDRQOjk5OdjyvRZs/natimUYxg1PP/20/PuZLM6dO6eWxBvzjDDG8UUC9TvSWJrp/rkEfXvaVYoxty8WTNjQc60/z16vF795/BdYtmwpVl6VhWWXLsW8eWlITU2V20MR8q9Cev/w3B/QtNFbJ6zJumjbIRiGYZKfXsNnIdKCZoFMGEKI5Kj8VuretjsCRrl5mh/C+h0P8+hWhmHcMY0/uve0RDn4h5kyQogkjWp1GpxDg3l4dCvDMAyTmMRgxp1gQhhMQBmGYRgmvonBjDvLccedubgrYNIAmn3nVgzeu4GbDRiGYZikJeTAHXiaceyZHHzfNCWdNvtO7x1sRjJMIkMjAPXAMMlCLJ9ndyktvwO9ponNj6GZTUiGYRgmyeHvJBkmjqDvJBmGiS3RfCfJIskwcc7x48dx+PBhDA0Nyd/333/fNAlAMvPoY7/BFz7/Wbz55ptYsGCBijVD1+eiiy7S9r0xT8UyjJ8FC+ZjySUXIzv7CvG7WIqk2yZZFkmGiXM+/PBDHD16FH/605/k74kTJzA+Lv9sk56f7e7GV8pK5MvBwoULVayZd999F0uWLNH2/WLcTI3OxBFpc+di0aLzcemll+CC8zMwd+4cFkmGSRZOnz4thZI+RP/ggw9w5syZaSOS//tH/4a/+uZf4KWXXsKFF16oYs289dZbuOKKK7R9139exTKMn1mzZuK889KQvmAB0tLmYubMVKSkpKitwWGRZJg4h5pWz549K8WSfqeLQBLfb/oB7qz/awwPD+Piiy9WsWbeeOMNZGVlafv+zRdVLMP4IUEkYZw5cyZSU2fIdRZJhkkSdFG0/k4Hvrt1G+7etEFOUu1UP+l1Du3b9q/34dDok2qLM8uWX8/72ZCs++mCaP2lGXdCTSjAIskwTNyi1yNuRFLu+3flKpZhYgN/QcwwDMMwDrBIMgzDMIwDLJIMwzAM44BJJKltP9rAMAzDMMmCSSSpYzzawDAMwzDJAje3MgzDMIwDLJIMwzAM4wCLJMMwDMM4wCLJMEzSQDOouIH3s4f3swL8fzfpnt9FbtPiAAAAAElFTkSuQmCC;" vertex="1" parent="1">
          <mxGeometry x="630" y="-250" width="457" height="313" as="geometry" />
        </mxCell>
        <mxCell id="6Ym5UJqBqQDuSW6-4cnc-2" value="" style="shape=image;verticalLabelPosition=bottom;labelBackgroundColor=default;verticalAlign=top;aspect=fixed;imageAspect=0;image=data:image/png,iVBORw0KGgoAAAANSUhEUgAAAdkAAAKrCAIAAAAyJ2ACAAAACXBIWXMAAA7EAAAOxAGVKw4bAAAgAElEQVR4nOyddXwURxvHn9k918jFPYQECZYAIQlEcEnQ4FKKFSv0xd21aAst0JbiRQrFafFAgOISggSJu1ySc919/4g7mkCZ7+f+uNuZfeaZ2dnfzjw7u4caNPEGDAaDwdQqDABwb9iktt3AYDCYL5T4mJdatYqR/0OtUtauNxgMBvMlU6DFRqOxdv3AYDCYL5ka0mKdVqPVaIxGwwexRpIMNofDYnM+iDUMBlMFH+nkxWbLKFiBFtMU9c52xXyhSGiakZOh1Woqy6PVqNlsNk8gYbHZ71xQPjqtVqmQazVqJpP1nqYwGEy1fKSTF5sto2DEe9o15Yv9PFr1aN/fwty6imxGysgXiFgsFtD0e35YLJZAIDRSOKiCwdQEH+nkxWbLtHPBuBgh9LZHiMlgNHKsV9epgcTC/kncc5kitwojCCEm64MNY5ksFkLoHXzGYDBvy0c6ebHZMgrGeCsTsqycvKxsA1AkMJgkQ6xjuLjVEzuKcp8myeV51e2NpROD+Uz5SCcvNlvMm2qxWqFKehWn1qgorcFoNDIJlh4gKy3taWyMc726JKsaLxFCH7YieFCMwdQMH+nkxWbLbHkjLTZo9YnPo/PkSqAACGASTB0AE0BnRJkpaSSbNLe3qr7od/K4CoMf2B4Gg6mYj3TyYrOlqD5erNfqnvz7QEdrgKKAYACN9JSBRbL0CLEBIYpWpEp5fB7XVCjkCRFBEiSolEp96cUfH74eCA+NMZia4COdvNjs28WL1Qp1bGS0jtYBzQSCIIGgSZIChh4MBEIchoDPZGp06pzkDIFQ3N2nr0hiI7Im/vxjb55RKbEyp7SGuKQ4g9EAgKoYyS6eO93V2anMxpi4+IXL11RRl2pri8FgPgRVnbwAMHXSuKaNGuZ/j7hx85cde9/AYPVm356qzO75dXO1+w8dPfHdzC5cviYmLr5Mkquz0+K506szW0w1a9pSY5K0OoqkSYJgICApgkUDA4DmkDwLsUUjd093FzcTkYkiTyUgzVJSVQqVluRwKRA0q+c/ceKU8V9PDmzVBvIvrVV8KoKmjAa1vLJd8JgYg6kZqj55/zfxmwYe7kWZW3g1HTW0f1Une+HJW40mvP2nGrNvgF6Z825mv5swur5HnZLbG9Rz/9/EMdWaLUnhuLgibZNly7QqnR1C9kz0ikaZRoSARoBYPLGliUWXLh1c7F2f3o9Sa3V6vV6aksxpzoqKvZ2mN7F2tGAAKzYqhmAQjet6XbwRXlljLJ4zHQBOn72QnpxIl15wJ5FIli1ZhAhi4YoKR8eV6rGlhaRrx/bezZqYm5kajMZsac79h4/+PHpCo9FWmP8TRCQU7Ni6Kf87TdNyuSI5Ne3GrdvnL4Xr9R/myZ83LL2Iew8erVi7sXf3bu2CAr6bOU+v1zdv1mT2tO9mzF/8OibuY7uEqVUqVbL/TfimYT0PFot55K+j9+/fb9OmdedOnUQioVGrJNn8qgyiDz4ort7smnXrc3NyKkwyMTWdPnXKO5hduGLNd+NHm5qYfD1k4B+HjjyMegYATRt7Du7b20QszsnNXbt2XZVmi6kqRpGXmcfT6VoTGiEyxlEcEgEQLBMza3NTGy7PzC+orYWtOa1jKHOlSrVKKcu7e/NMFlsKz0EkMDETWgrNKAdHOzNLERRIfQWVyQ9NpCcnxialIqLUIJ3k8Ou4ugCAQSVn8ERl61FJgzdp5Dlt0nidTnfpcnhSUiKPx3NwdHR1dtZqPy0h7tMjxNTU5LedVc3mzl+4cPv2HUQgkUjcsKHnsIH92wcHLlu9TpqTW619JpOxY+um8d9Nl8kV7+bhxUuX7927V/QzRyYHAKlUmp6RQb3HU5qYz47KTl4AcLS3Y7NZh//669Kly7kKtadMCQBAA03TVWhi8Ujzg8pxtWYTEhKkcnUZnclHaaCLzLyV2Zi4hC2/7fx6yAAba+uwnqEMkoFIsmdIF2sry7S0tF+3b38dG8fgiSozW5LCe3cV+k6DmiKSSTLRSOYAg8Pnm1k4IIIvUxi0VNaLyDRzW8s6LevJpNmxqTEKrSoh4Sm/rjUAyBW5ckWuUpcleCLkcFmowpJLlkMZEUEgotSFARFkYWpFI8GKgulmpiZTvx2bnpG+bMVKuUJN5+ehaQQ0IManE9UgCMK3ZfPol6+qdik5NePhk+f5369eu3H2n7/nz5835dtx85esrLYI76ZNuBwOvEdnT0xOvfPwcYkNCAG6eu36tYgIqkRjfozhDebTovKT94/DR1lgjHz8OE+hJphsQG/2HG/hMrEP5eCbm0UEo0ItRoh8Z7PPXrz+49CRsJ6hTo6OoV07AiIc7e3iExIOHjz09Fk0g8Mvo2ylzJagqnExl8+QMai7BrYeCMQVsfk2ckJsYAgQQ6XKzT1//YapRODp54HMgcnhW4tYRutSQYasbGlWtrSg3OpWPaBylS35s/y+FS7269S+LZ/P/3nJsjylDhAJADSUkgqSJHqFdgts428hMZcrFPcePPrj0BGZTJ6fOmxwfzcXlz0HDg3uH+buVkel1jx99nzXvgPZ0hzvZk1mT/tuxZoN9x9GFlmbNG6Md7PGoyZ8p9cbnBwdBvcPq+delwY66smznXv3Z2ZlAwCHw967feu8xSvsbG369Aw1NzNd+8NPI4YNtpCYuzg7de7QDgBmVjrNR3RhQJ9GxOuElD8PHxk+bKh7XbcXL18BQIP6HqFdOrk4O4pFomxpzsXwq0dPnAaAwf3DeoR0AYD8UMO9B49Wrt0IAO2CAoIC/G1trDlsdnJq2qEjx+7ef1jFMaHL3U4YOnhgp3bBg0eMrXAHn+bevXp0c7S3U6pU1/+9/cehIzqdrnL7mM+DKk7eu/cfUgYd0DTBYjdr3KhZY8/CXaqSxPyT94OvhHoTs6iS0GbRxsqkpmqzj548ZzAYoV06urq4AEBMbOyx48cfPIok2TyCwazC25JUFS82Gow6ikJgQAwukFyViYRhYkHSSMcgGZT+VUzM5Ss3MlJj0+VSv/YBGa+TXilfG6GS10R8hNBQeZ+9mjZJSkqKS06rrCNMnjC2pXezv44df/nypbmZWe/evRt7Npw+d5FSpco36uriPG3yxJOnzxw9etTa2nrQwAHfisYsWvH9w0eROTk5gW387z8qGCpyOGyfFl7hV67qDUZ7O9sVi+a+ion94ccfCZIc0L//soVz/zdrnkqlzvekZ2hXB3u702fOyGWyZ9HRCxctXrN65d279w7++ScASOXqii9EpetIA7p178HwYUObNGr44tVrALC2spIrFLt278nJyQlo02Zw/7CsbGnEjZunzpzRa1X9+vadMXOWQqnU6g35dlycnZ4+e3b06FG9Tte3X7+pkyZMnjEnIzOrXNtWUHqJdi81bSsKewW29vt27Kiz5y/u27fP0tJy2JDB1laWq9b/WNVBxHwWVHnyEgwWADT2bNC1Y/t67m6JSUm37tyu3uCHfnSi1s0igkRF0wKaRgRJsrmVCXGx2RJUOi7msnh167rTWiIlI40yUCxKTaiVNNdcx+YwuWYGCiAr+eadiLR0u8GjhnnUddi+a7NRWcX7eqqdy5bPgCr5XtkWkJibPX/xgq6kILc6Ln4+LXbv3Xvq7/M0IAT0s+fRG9atCenS8eCRY/l5OBz21l9+uXHrLg3o8dNokVDYr28Yi8XS6XRXI6517dKZy+Wq1WoA8GnuzWazL12JAID+Yb20Wt33a9aptHoASEtPX7/m+7aBbU79fS7fbF031+kzZ+XKlDQgGhEKoCmaVuv0GbmKyupSIdnSXJqmzUxN83+Gh4eHh1+mgQAEr2LjW/m0bFjfI+LGzTyFSq7SAkCWTFUYL0YA8PvOnQCQn1++Y+fa1Ss96rpVoMUAAMBgMDic4ldS6fV6o7HSMDFBEEMH9nv48NH2nbtoRKDnL0mSHDNqpIuzY2xcwhvWDvOpUn0gyqe5Vz13t8Sk5L///vvK1Wski1vlLoVX8Q8snG9itrJUVO7LW5ht2qhhz5AujvZ2MbGxQNOurq69e/akgHj0JLo6b4shSjpY9DE3NWnk2sCoZnv6dHSwcydBY9RpKHmKUZ5OGHVMDsPR1lFnyFWrlQYjVyejM3JS9QY1Kmen+PPhQ0MVLS9BQFfug2f9egDw7+37NCIBETQiUzKlsXFxjT0boBIt/SDySXGG9EyEkJmJGAFcuhLBZDL9fJrn5wxq4xcXFxcbn4gAmng2fBQZqdIZARGAiKS0rNzcXA+3OkU2b9z4N0euzjeLiqcn+ROmilfLVHhc8i+8NE3n/6QRSSMGIAKAMNJEZla2QCAotI8KLRQXQSNGUf70rBwAEPD5lZU+ZEDfvb9tKfoE+PsWJZXMlv/FycHeRCy6eecujRgABI3IJ89eAICHm1tVvQJ/PosPqv58TExKefAo8vSZ05evRJAsLsGs6sWSBSfvG5h9K2rLbAOPuoP69c6PER87fvz4qdPxCYlOjg6D+/Wp5+ZSjVmAIsMVjIvNTEzbBQSwmHymxFmlUyjykhMSI2mjmk3zzMU8Ow9nNydHoV7/+9ObJM1U63XRrx5H3IvOyEqvukZQUWVi4hNoo0EikTC4gqKbdfmYm5vFxMUXLHSrYN8KNkmlOdaWlpV5wOfxACBPVnJdAcrNk9na2BT91ul0Kk1xiJOiAaAgUJSSnvn8eXRga/9L4RHmZqaeDerv2LWHBkSSJI/Hbe3v5+/nW7QjQRB8fvGanixpboUOvy3WVpYIoezs7PyfXk0bBwe2sbez5XO5BEEIBPzMwgB9eUiS6NA2uIV3UysLCxabTVTXZ//55+zNW7eKfianVzx8zkckFALAN6NGjBn5dcntfD6v2kphPnmqn6HfexT57Pmz3Oxskl2NEBcYrNysq5NjtQ7FxFc42arKbHGWClNRuS9vZtbVyXHsyK9MxKK0tLSDBw89iIwkWTwKiMH9+lhbW48b/fWGzVvjklKqLLKAsvFiHpffI6SPhcQ6V6Fh5cU9eHBdRyoc3VwTYpLre3iE9upjZiI2MxPHvopjW7rZCCkBmfUq5b5GI6vm9iWquJaLVq7TK3OXLV6Uv3ytJDFx8QuWrjTq1IhklN8XVXSpinrypGvnTra2NimpaeXLksnlACA2EWeVECwTExOFQlFkiqbpCm4aFo4sL1+5OnbMKAsLia9PC4PBEPHvLUDISFFqjeb+/fvHjp8oURqt1uqL7xRUeMugiqttJXu19msFAJFRUYBQgL/vt2NHnb1w6fjxY7m5uTRFzZk9q8S+UMbCmBHDA/xb7f3jwOPHj5UqJZvN/mH9uop9QAgA0rKkT1/GFtenpDMl48UIAUIKpRIA9uzb9/hxVMlGyJGp8GM5nztvsvisZ7cubXxbnjl7Yf+R49Vmzj95K9WE2dOqdWno6AmILDuOrNosAJiZmTE0xgrXUZiZmhSZeQdvc3Jzf92+/emzaJLDJxisR09faPceGDdquKmJyZJ5s6rwtuSWsjlIksFnWeopZkzM49u3L6lVCgCwcLCmCUIoFDR0r8vlkaSYyeTXcTp/gMNCiFJpKv03j7JFVwiLb0KQFSwooSmjUadm8U3KJ+UbLL/p/KXwju3bjRs1fNn3G8ovKI58HAUArVo2LwrjWltZujo7HT956k0qAAA3bt8d/tVQX58W/j4tb9+5q1Cp892Iinri6lonJTNHr9MX+19lDzboDZy3/IOAxg0b9Azt+igy8nVMHCCiuVdTmUz2+46dNCJphBgkaW5unpKWUWQfADhstrxwfXFzryZ37t47c+4CjQgAqONS3eucEKLfcIkSQEJiokwmc3apc+qfSyW35zcCQsjayjItPYOmaQAQCPgkQebJZPl5LCTmeTI5XnHxCVP95TQ/g1GvpXRqBqeKpzxKZn/3q7RemcsWSd7W7OKFC6q1XNG+1Xu7du26mNg4BldYdLMu+lXsxs3bFs+bWZ23xZRdXzx5xLhcOfvp43vXbpzX6jT520mCsLKzdGtch2spkCYlR0dECa3NeQwVvPGS/6pXryxauU6nzKXL/ZdU+YtJSYPlLaakZezYuWvUyBEbVi25dOVaSmoak8GwkJgTBPHn0ROJSSkXLl4c1K8Pm8WKfvHSzMysf5+eOTk5p/8+W9JU+e9F0xqtznDz5s3gNv72drb7DhwomrQcOHR42ZKFS+bNOncxXJqTw+PxXJ2d7j149PzFy8qmPrFxcS28m7X0biaTydMzMnPzSr39OT+zrbVV44YNGAyGuZlp08aeLbybvY6J2fzz1vygc1JSUkvvZp6NmjyPfmFhIekf1otBkkWuxsXHAcCAsF5nz18CBC9fxSQlJbm6utjY2GZLc1ydnYYN6m80GiucsZWpdQWNXy6b0Ujt2ffH+LHfkCR5++59lUptIhbVc6+758AhlUrduX3wiGGDD/11/PDREwDw4/crWGzWyHGTdTqdg73dupVLnjx9vnhlFe8ewdQmb7L07Ndd+7Zs3WbUa0gW900MosrNfjV2slZWVUDs0zTL4puU0au4pJRhoyfolBU/mVVewcqKXdT9WB1Sn4s4WWY7QRDPIp9G3pibLpUTHF5gh7ZvUZuCwqtKZAkqG/++XRkXr1xLSEzs2qVL+6AAExMxRVEZmVmXwq8CACD0247dKSmp7dq1C+sZqlKrHz6KPHDwYJ5C9ebB3EvhEcFBQZmZmVFPo4v2SkxNnzN3Xt++fQcPCOPzeDK54tXrmMtXI6qws3P3njGjRn47drROr1u97scyWpxPx3bBHdsFUxSlUCpj4xJ++fXXq9du6Gkiv9zjJ0+ZmYgnTxjD43LT0jOOnzyVkZZqbWObv+/rmLg/9u9v376Dr0+LO3fvb3y1besvv434eviqpQsIgoiJidu5a9dXw4a8ccNWz9XrN2UyWffuPcaO/IokyZzcvKinz/Kf2M7KztZoNBkZBWP2tPQ0LodjNBgAQKVSyWSy1LQKYkqYT4g3OD8YPAEDBB/ELFtcfhT5WZpFDMabF4oaNPF2b9hEqZBXm5XDsrCw8XKoY+/m6lDH1XLhnPFvWAYAqFQKc4uq/hDvbcnOTOPxKjnwNIUoA6Kp/Ec9ACEaMejCR18QZUC0AWgaANGIoElmURsjSo8oA8UovrAj2oiMOorkFE9QaIowagEhiiz9L9Q0jSh9YaGIRgRNMPP3IgxqmmDSZZ69oWlE6RBNASCKZJV7YIkmDCVDP4hGCBCDLn17E1F6RBkBaECIJphAU0DTNMkqU1MakTTJKvQw/14oQRFMgtLTiCzrWGHpFfhcuokKG6f4aStEGxFlAJoqbHaSJphFOWmSRSMSAAijFgAokl1YlpYmCnJiPkE+0smLzRYpWFZGmlateov/WKrn6dq3f08uj2CShF77Cb+RABE0yaIrSaQJBl3JqmqaYJZRBBqRNKP0nAsRFKOiWRhClRVaeX52ZU4CoIr3qtrh0s9xlq1pOQ8L1fAtSi9ZYvnGoRFJVxj6L52zdLmIYnDK74LBfGm8hRYzCCAMuuxEbXam9G3fDvPBX8WMXySPwdQMH+nkxWbLbHmL/4HOk8qj7kcjmqHXae89uf62zhkMekYVTwS+pSnAcozB1BQf6eTFZktufItxcWJybE6OlMFgkARKz367my0EwdCq1YgLTOb7/q+1Xq/TqtUEUfl7lTAYzIfjI5282GyZ7W+hxVqdRqt7o7XE5WEyGAaDXp73YV4ijBDxoS5QGAymaj7SyYvNltn4Flr8PpAMBsmoobIwGMwH5COdvNhsGYrjxWqV8qOWhMFgMJiScHnFzyiWUvpLZ47VuDMYDAbzhdItbHDR9zd94QAGg8FgPh5YizEYDKb2wVqMwWAwtQ/WYgwGg6l9sBZjMBhM7YO1GIPBYGofrMUYDAZT+2AtxmAwmNoHazEGg8HUPliLMRgMpvbBWozBYDC1D9ZiDAaDqX2wFmMwGEztg7UYg8Fgah+sxRgMBlP7YC3GYDCY2gdrMQaDwdQ+WIsxGAym9sFajMFgMLUP1mIMBoOpfd5Di2m9Wi6Xlf7INQYAUMdcPRH+WkEDAOhvrw/rPn7XK+MHcvhjoE+5derskxyq6Hfy5R++G9gpODi424CFZ1OSSqd+jBIxGMwXDqP6LJVApf85ptPy2/qS2xC368bbawNu/jpzxj9eq67+1FMItCorPi5Jqn1vTz8ehid7Fs7ZYz7lzJ7hjgSAMW7PzGnb0vwmTR3lrJfy3NP2jSuR+m4YlVk5lIlEyKiwRAwG88Xz7loMAABk3f5LZ7QzRwU/EWlRjwGsVmO+X9PZNljw3t7VDAzPoUtWNRP4OhAAAHTunetRxqZTZo0JsSMAAAxuJVLfDc3NNX1/sP1t/5g6ZAUlYjAYzHtqMSF2bd66tV0ZSWHZegVZkFxU8T4AlEaakpip4Vk72olZVVjX5SbFp+Tp2ab2jrYiJgAA0Aa1Qkvw+WxCl5sYl6xkWjk7STjlJM0gT0tMlSFTewcLHlk2US9LTUyV0QILW2szLgkAhMSzjS9R4C+VK82hCCsBUyGXE0yegFMqtagARXpScq6BZ25jI+EXNyKlk2Ump8tJU1s7SVHBtPzW2YgsQ0+FXC4jgcHh85gV25SlxqfIkMja3rZksxg1Cg1w+RySUmclJEicPapoMQwG85nyMQZmhsgfw1p1WfmvvoI0KvvWlm+7tw7sHNKrR7s2bXvNPvRMVUE2Wv5413ehfm06h4T16xXasZVfp4mH4owAtOzU5MBuy05dXjuknX/nXr17h7Zp033SnsdyumhXzasTSwe0Dwjq1iu0W1u/zqPXX00vilUbM25snhDq59+hS6/eXTsEtAxdc1cHYEzYPaK1//SzKlD8+8NXHQf+9NSgvTQvuIWPb9ul13TFqQWu5T3cPbVPcKu23br36tE+0Ddw9kU5AFCpZ5d/1c6necvgkJDuXVq37jRy610ZDWCM2jKwy7gjabrnW/v5tWrh02b0gVSqnE151P7pvQN923fv0Su0bZvg0P9tvyMtCCbrIpYEB806dGXbmC5t2nTr/SEOEAaD+eR4z3HxW2KM3Ttl0s+ZwQv37wzx4GTd2jFz2vIJbPsTi/xKxzOML3YvXHPLatKu34Y2NtFnJzy/91DRwIEEoAGAyjq2ZH27KRvP/tTQTB97cfOc+d9PXmp7ZHU7UwS07Nrqb+adsx31w9mvfa30r06v+t+CqTMlh7cPcyLB8GL75Mk/pzT5Zt3KXk3MjZmxz3ItG7EAim8r8pt9vf6PNnu/Gb7Tat7J5W25iC1kQUpJz6iUv6aPX/vAaeCyPQN8bMnc+OhUQQsBABBmdg38vwmY6dvQ1YqVEfHD5O9+Xrmn7aEJ7u5Dfj5oPi90ceqwXVuHOJOIKTAlIKGUzfSTs8aufOA+9qeTA3xsyIzIo6vnbhg3hXVo+1DX/LG1+srqRXlfL9i/wsfhIx0ZDAZTu7ynFlPptw7/bhAVzrUZrm0HBTtVmlt/f/+OB7zQzfPDPPkAYN967LQ+Zwb/eejKVL9uwlJmc6S5NL9R/bqWXAbiWtVt2bVuyWSW75iFA71NEQDUD50159GNkYcPXpzeNsyCzji940RGo29/nxjgRABA/d6zxpy9sPjQiZeDv61nuL1/TxSrw+o1kzqaIgCwsnEp6yDiiMyZJnwGILZQIpFwAEoqNQAYnx3efU3jPWftzJ52BADYWDvWL0hie/Ya41nw3TFoSGiDg5ufvdSCO09oZi5kATB4phKJJF9bS9t8eXhHuNpn3sqxQVYEADj5fLVq5tPOU3bsvtNvUSs2AABNuQ1aMDHYpVy4BYPB/Ed4Xy3OuHd83/NCiUDsYLcBwU6VxYmNSY8iM2iBLvr43sSCTcoMBqgTYlOM4FFSZ5hNew1ofGrzt2Fp/YYPHRDi6yosmUo6eTYokn/gNPZrxvvj9vPXBrCgnj2I0vMapF/Z/0dB8IVKVHOopNgEPdRNjnoiJRsF+JpUGseuFjrvaVQCqtvd37rC2I4uOyYq6mVyVp5Ckfkoh6ZN9QYaoJriaFlUZBzUDfGVFNlEolatmzDOPnqYYGxVFwCAkDRp4oCFGIP5D/OeWsxoNH7PnqFl7t0ZKsstlyloyHsecS69WJ/MvZvbWrHL5uR4jtl5tNHB337fu2H8nrXWrfp9N29y1zqc/ETE4bBLCBwpEPFBpVTRADqZXEfrk++fP/esOL2ut5ezCACUChXNdBbz312KgVbKlTQhEovKSbEu9uSS6auOxXHqNqrnaCHmg1TzpjYVMgVNCMXCkjbZIhGLfi1XFoTBEV/wPm5jMJhPnhqNFwuEfETaDd+4NcysemVh2/oOW+A7ZErc1f0blv88a7TO9PR8Xw4AACWTKYrv1YEuJ1sOAqGAAGAJBSxk2m7WjpnNylXMyBPwkF6Wp6SB9a66hngCHqLycmUUmJccplJJBxYt+kvZfcvZeYHmJABQybuHnI16M5tCsYigsnNyS9ikVTk5OiQyEWMBxmC+EGpygSvp0KyZlfHR+SsZb/68GSFwDhq9emYHXkbk4+SCMCuVeP9BsQnFnSv3NZx6nnVJAGYD70bM1IhLjysYlJL2DeqbGiPDr+fQ5RPfEGTSoKE9/epqRErpGhjjol/rTVt28CtUU2X0s/jioDAiCAQGQ8XzBST0au6BXl69VmyTzrkW/tBg1czLHsclMJgvhBp92IDZbMhYP0bEqklLDt18kZyelhTz6Mrhn3ddyyqrjsanRzfvOnfneWK2QpWXfP/oiftqsVtd60JlMj76ff4vV6LTpJlxt3bPXXE827bHkLYmCICwChnTzzlpz9SpW89FxqWmp8VH3zmz86ej0UYA4PgMGtJQd3HVlHVnHsYkJ8c+uXHi0JX4t3s2m2wQ9pU/++GPU5cfvv0qMTnh+e2/9557YSTsnO2InJtHTzzJkMszX1zeNn19hBYVDWoZ9k52dOz5Q+ExmdL01DYfbdYAACAASURBVLLRC9Kpz9ieFo83z1hz8nFSljTt+eUt09dcBt9RQ5sy376NMRjMZ0nNrmkj7fuu/RWt/37bmjEHFhlpQCTPpmn/eQPLZSRkj3Yu+2Wl2kgDIIbYLWjC+umBgvw1bcBsOXpS/duL+25K19KIaebZe+nyGb6CfOUTtJz624/CVRv3TRm4SU8DIJZZ3YCJvgAAwPQYvWkTvWLtnjlDftXRgEhRs8l7+gS+VQ0I+z7rtulWrvpt6YiDGopGBM95+JYBHb0HzP3u/vTN8/qdmQME1z5w4vIfm6z+5lFhtRsMnfHVv7N2TQrdC4yG3x75c3SpZkcmgfN/XS1avnHRwD0KChDbvFHX2dtn9XXEo2IM5osBNWji7d6wiVqlVKuUl84cq5lSaYNSmpmjpLnmlub8yi4HBmVWplRpYAgtLM04BbJE5x37JnCRatqZ3UOstdLUTBVbYiMp/2QdAKWVZWXm6ZgiCwsxu8zg36jJy8qSGThmVpJKC68OSifPzszVMk2sLITMggEwrc1Ny5AhkZWVmF1BoNcgT0/LBaGlZYWpAEAblNkZOQaexNKk/JOEGAzmP0e3sMEAkJGWolWranZcXAhi8M1t+OZVZ2LwJTZ8SUUpNE0DEFwzO0ezynYm2CJLe1HFaSRHbGUvfnNvK7TPElrYCUtvQ2wTGweTSndhCK3shZWmAgBi8CW2/PfzC4PBfJ7g8RcGg8HUPliLMRgMpvapnRjFO4NEIT9EtKM5fHwNwWAw/yU+My0GxOAKqwy6YjAYzGcIHl9iMBhM7YO1GIPBYGofrMUYDAZT+7xXvFipVGZmZpIkSZL4ETEMBvPlYjQajUYjAFhYWPD57/KYwHtpcXp6ukgk4vF4BEEAAEL4tWIYDOaLg6ZpiqLUajUAZGRkuLiU+5uKN+C9tJjJZPL5fBarqv8PxWAwmC+B/MGoSlXRP3i+AThejMFgMLXPe42LSZLEcQkMBoOBwnHxO988e99nPbAWYzAYDLy3GOIYBQaDwdQ+WIsxGAym9sFajMFgMLUP1mIMBoOpfbAWYzAYTO2DtRiDwWBqH6zFGAwGU/tgLcZgMJja53P7Xw/Me6PVamNjY2UyGU3Tte0L5kNCEIRYLHZxcWEymZXlSU5OjouLe+d3JnxR8Pl8Z2dnW1vbmikOa/GXhVarvXnzJo/HE+K/qvrPQdN0Tk5ORkZG69atK8yQnJwcHR3t7u4uEAjy362IqQyKohQKxfPnzwGgZuQYa/GXRWxsrEAg8Pb2ViqVte0L5sMjEAiuX79eWWpcXJy7u7urq2tNuvT5YmlpCQBxcXFYizEfHplMZmFhQZKkSCSqbV8wHwVTU9PKklQqFZ/Px7GpN4fP59fYqAXPU74s8Hn4hYNDE29FTTYXPjAYDAZT+2AtxmAwmNoHazEGg8HUPliLMRgMpvbB6ygwmC8LfP/20wSPizEYDKb2qSEtNmqV8iJUOqpmSq0CWq9WyEujkGsMAKCJjTh55bWCBgDQ39nYr9fE3a9q39/PBEqnkis0xnfa1/hs++iQYT8/NFSZy6CRy1V6CvS314d1H7/rVWVl6VNunTr7JOfTOnJUxvGZPUMXXpC9xcD0k6wIrVfL5TK5XCaXy5Ua/bsdcExpakiLn//+dXDr1j5+/j7+AR2mHk+tgZ5FKbOzFJWd11T64XEB/j5+pT5BC8J1oLv52+xZUzdeVAAA0KrMhLhkqQ7P6d4IOufMlOCgiUcz3+nw0hppUmxCtqaqxjY+2dzPt9f6+3qgVVnxcUlSbSUZDU/2LJwzdcXxpAJX9LJMqar29cyYlxoXlyZ7C+0qW5FPAir90Bh/n+YtfZq39PFu7uXZpLl/6Nczt11J1NW2Z58zNRQvbjju0LWATQMH7zKdeeqXgdY1UKrm5rp+m2x/3TfKtdLLDVm335JpwWaF/92KSAsPBrBajV61upNNkODju/hfg8q8cOI65TO/o9XHusLrHh7/O8Gu81IvNlRzeWR4Dl2yqpnA14EAAKDzzs3peTzw5La+Zp/b35aXrsinBKPe0LULOkkQGFQ5yU8u7d/+48S7mb+dmufDrW3PPlNq7t4dk8djIuDweGT+b9qgVupIHo9FUIr0uCQpJbR1shMXv1/KqFWqaLaQwzAqM+ITpEaxrYutqMhd2qBWaGgOj8cs6qOUVqnSk1wBhwSg5bfPXcs29FDI5HISkaXyFUGIXLz9W9uWSWDaNAuUMLiVn7NGVVZyitQgtHW0EhQ3nz4z+pnMon4ds0rfkPWJYdQoNMDlc0ijPCU2KY8wd3KyzD82RmV6fJLUKLR3sRWW7R8GeVpiqgyZ2jtYFB7IQqiUf07cY7Re1s6MUitURgZPwCmZw6CWq/U0IERy+KWOBqVVKnUER1Cu4Si9SqmhmMV21LdP/pPmEhbqyQTQARQ8FWVUpMWnyEgzBwcJt9gsIfFs40vkH0ZjdvjZW0pDS7lcxkSIyRVyKuv2lE6lNDIFXCZopAnx6VqejbODCQsAAHS5iXEpKralk6OEU7Zz6HKT4tNUDFMbB6tyLQa0Ojs+Pl3Hs3F2FEO1/9qul6UmpspogYWttRmXLFOR4pMC9HlJsckKgYO7rbCWVBoJ7Bt6edvll96mnb84reOSK+HPZvl4MQCMGoUauAIOSWuyE+LTdCYublY8BABAa6QJCRlajsTeTlLQhWidMk9l5AhFhQea1inyVBRbKOIW9iC9MldJcYRCDgkARlVmYmK6CgksHRwk3FLd0CBPS0yRIbMK+ucnT61dbWnZ6f8Fha44dWHN1x3adOjZu1/vjkHt+q+4WBi+MDze3D9w7O4rB2d0D+4Q0q9fj85BbYetuZiSH3Wgc05MaRMwbn+JYIchclPvNt1X3daDMWrbkG4T/krTPd82oI2/j1/gNwfT3niGZ3i8ub9/yKqb+goTUy5t+KZLULvOvcJCOgS3H7biTHz+rIxKOjC9/5C+o7a//FxCZ7qIJcFBs/68um1kx8C23cN6hrT16zb10MvUfzePbt+mXZdeYSEdAtqN3v5IWTQA1bw6sXRA+4Cgbr1Cu7X16zx6/dX0kpU1xp05/pjXtnuAmE79c1xgq+E740okGx5v6u0XPPnnZd38Os+/UuIBf1p6Ykpbn7AfI8s0uDH9wsJevl2m/BVflCC/fvJiTr2QULfCkwwx1ZHbRnUMCArpFdo12LfL+C13CuOqxoTdI1r7Tz+rAtX11b07zb0k091a3sW3hU8r/+lnK31fpDFh94igfj+dPza/T5vAbt379OrQpt2A9TdSXh6b3TvIr3OvXr26BQT2nn82pahmlPTOtm9DfNt0Dundq3PbgMD+8/Y/VRQ1Ga14sndKqH9gSI+wXh0D2w1YfV3KqFSMjRk3Nk8I9fPv0KVX764dAlqGrrmrK1kRADBE/hjWZtKx2Pvbx3QJbt+z36D1tz6VqADii4UkMJn59dNFLA5uu+Bi0rW1Qzu26dIr7JvtT4wAhpSL60a29Q3o2KN3SKdA3w7Dl56O1QKAMerHfm06LLqqLrClv7u2l69f0Lg/0wuPZszvwwODZp2T08bkCysHtfVv3aVX7z49Owb4tu679oYiP5Pm1YklA9q1CezaK6RrsG+n0etK989Pn1qd+dBZx5ZtjAtcfuzKrfvXT20Z5hh7cPGGS4qidH3klnlnrL/bd/Hunetnfx1fL3Hf9Gk7X1TbwKT7oE0HFgSwGR6j9ly8dPXyuc1h1h+intrHWyZPO5AbuPTIjXt3bx5b0V51bO6UbVE6AEB8WwdzjqmTvfjTnwMXn73qq6uWPfJdceL2/dtXdk9qKju/bHi/uXcbLTh89eG9iKOLgombm1ceSjQCANCya6u/mfcPs/cPZ289fBRxaH6zxO1TZ+6LLzoYxucnT0ebdejhywfCrnOPFsynZ87EFKXqI8+cjee17jOyfxfb3MunrxfdvKKzLp26qXHt1r0pq4SLtPTamnHTz5t+89OGoR6cgm05V46Fq5p27+xUNN4xvti39aH34r/+vXfv9umfR9hGbpo892jZexHc5uN/2zOpKZPZYubx8OtXr1xa0b7KSbTx9e5Fe1mj9ly+/fDGiXU9xVG/Tw0b/bth4JaLN+/dPbd1hEvSkeVbruXLhjFm1+SJm57XmfTb37fv3blxYkN/3pWl38w7la8htOzq6skrwpndvz9668GDO39v6Jr+2/bbFV7kAQwvtk+e/HOU1ZB1B85fvvDPoV9Wz+nViFVRxpd/fDf7tMlXG4+cOnl4mi+7qrpUAP1hyI8RFf4yKOLDt+y4wWgaFlKfKMygfvTTxMW3Pb799a9Tp7aP8iTVDzaN/25vhs/cvZdu3bsffmh5O9XRWd8sj8ijyPp+LUzk92491dM0TdP6qItXssVm7EfhN6QUTdM0lX335kvUyK+FUH5+zdz90oCVp/99EHU34vzBjf8b2rYBj6ZpKi9i1Zi5/zCK+2fC9ikz9sYZPkBVa4pajkKR3iMWf9XKyZTLETkGjB0RJJBHPoopvuFG2fWZMalDXQmPI3TwGbFkXEt4cuSvR1XfaAcAltDMXMgGIHmmEolEYi7mVFhNY8btwzt37tyR/9m1Lzy+ytGzImLXwde2A+bP6ORmwmKJXDtMmdCB//rYkQc6AGTabunF2xc3hFh+cmG9ctwsGrfRVP1Bc0b42Is4fOvmX30dLNbLLXrPnhDsasblmjXoPbK7k/F5VLQeAKiM0ztOZDQavWxigJOQyTGr33vWGH/jg0MnCucBukcnzsTbdA5twQEAZNG+Rxveq9Onnxekah+cOpdi2q5nsEWTHiGuiojTV3LzfaDSLv59x9CgR6h7gcAiAFp+b/PE744QAzZuGtdEUHhtozMvnLxubNG9Y4mYEo0aDps3prWzKZcjdm4zYdGIRsrr+0/Fl75YI7bQ3EzABMQSmkskEolEyK7yeknTwvaTpnWtJ+FxTep0Gd3Hk5TrvSbMD2tiI+QI7Vt/M8SXlfv0SZIRAHR3/9j1kNVp+tJhPg5iLs+8TtDEVd/6qi7/8ucLIwCde/nA3xk2febM6lrXhM0S2jUfumCsH6fiUrW39++JYnWYuWZSR09HKxsXT7+urd0q1FkqM83mm59XDQ1o6Orias2vvWu/4eHGMF8/fx8/Xy9v304zr9eZtvOX4XWLQzTGlLwGc7bNDfPzcHF1tuDIr+w88NoybP7CPk1shRy+ZYNuM5eP8kg/+tupVIrT1M+Lk3b3VrwRAIzPL4dn1A0b0Jy4f/lfOQ0Ayvs3I6m6/q0sQCWVagjzOg2cxSwmz8zRM7BvaDMxeoP++TlQu896kE5NG5sW9SamqbkQqVXq4isRx8PTrchDwqKFjxtxL/qFlPKy+BCl0xn3T/4RXTTKYgfV6RfkVGnfNrx6+FhBimUPD+1/XLB/loxN58bF5dE+Fp/+cLiIp3EUNAUAAELSsGHRjIEUmQgQ16OBS1EEQGxiQlAatQ6Ao3/2IErPa5B+Zf8fBfmpRDWHSopN0EM9EkB958TfaU69QxrnB32RSWDPtuJv/zkTOaFhMyao7565kGnZqYcvH0iPkNCG27eevJwd0luCqJTzpx8gr+ndnEgAAwAgBiQemr7h1+wOG/ZOb2VS3KpU8j8n7zL8l7SXlGhpwrxhQ9ui40faeXnZ0PufvdSBy/vcPmLU9WxQqJhIbCpCpHMD9yLN45iIORCj0gCAMTnycSbp6ddSWOQTYeHrXw9teBCZQ9cziX0ereU392tcJL9I3MTLhazo7cLGpKgnUrJRgK9J9R2J49O90weZ570nhFPnyZMCzRBQOmV27N0zB7+fmClbu3Fk04LrJ2EeGOpfVB/Dy0dRSkHJ1gDSxd/XftP+B1G6QR2a+zUmV92+mz22jvmLy1eSrAPahTlH71h7+ZYypAMr8uZ9jX2onxNJoLaDOu+cunZQv6eDvx7Uq0MTq4LLVXX987OgdrUY8fm8cp2vWIoRi1tyREvwhQKCVqpUFU8b3noywfAcu2vXkDL37ioddNMKmZwGXdTFc3HFLtt7ebt9brfmVerC4T/ilWl+xGKxytaGBgDQyeQ6Wp98//y5Z8Updb29nPNfgqy4fuJijvvQEI+ibs/3697R8tS5U/cnNfMx3jxzKduhZ09vNgCQTl17NPt5zakLaT0HWCaeO/2Y6buok03hMaCyT6/eZDTQKPZ1lq6dRdF5a4z7+3gkL3BtgGlJ9xCXV9J/xBfykVGp0NDwPlqMuHxumVZhl2mVgomrXK6kmU7iUj4IxUJE5coVFIiVChUIxaISUkAIRJXcaVMqVDTTWfwGw1zEFYkqil3UOIRpvTYdOxbcu4NefYIkAwb8uGRnmz8n5ncDJBSXqCytlCtAIBSWEkaRWID0CoWWRuYt/d2prbceKMNcL4fHWwUGNbSwC2q0fHP4PXWw5NbdHHMffw8SAKw6rTjk2Hr3L7v3zx60ZZlHx1GzZn3d0pyspn9+HnzSz0DTaplcD1B4g53Kzc4xEmZCAQGQ32dLyi+tVCg/5hpMxBcKEbvp+K2rg982RvdpIRS8/aCKJRSwkGm7WTtmNivfY+jcK8fDlY0mdHUtcaJxvLt3tf/zxJl70xqoTofL3IeENszfk7Du1N1n/ZIz51L6+P3z9xNewLp2JQQWuQzdujHw2rfDf565rsm+OT75Q07j85Onok3a/q916f+FohVyBQVQWCotz5XTDGdhFWtg3pA3NCA2ESF9bo6ChqLrMZWbk0uRIhMRAYgv4INCLjcWn2W0RqWhoaLlkjwBD+lleUoayl0MPxM49ZrW5xnPv04wgEcFI1EkEotAlpNrKKE5dI40j2Y7m3AQkA6tfO03Hr8TGZtyJUYSNMuTSTBaB9RbtTviQYLjnURey+8Kg+eEuH7ItxtCxmZFntq6au36CdM4f20fYllV//xc+ATmOlWge3rvcdFqfirpxo1YsPWsb4oAcXhcgsrJlhapseHFg0d5JXYlEAKjvpIbJe8Co26zJkLl7Ys3K3toiqY+j0dCGjq9/aSN2cC7ETM14tJjTfk0OvPCiWsG7+6dSs8wmA17hLjlXDl35fLfV1SNeoTUKYp9mLfrGciNOn/h2t//vDTt0CNAWEKKhQ18PK2ajls1xStz3+wlZzMoAAB95Ikz8VYdQ1uWCbZSOQ/vxxbfPYy9fSeN8PD0KLc4DhEkgWiDodobDW8HaeftZWd8fOV6TtGBp1Kvhb8AN68mYgSka30PjuLev1FFbUbLHz98XdIJiioYPZD2DeqbGiPDS5j63NA+f/hURVjaWlbcuxh1W3ibqO5evVu8hkb/4ur1FFZj74ZMACDdfX3Mcx5c+PN6tGlg+yYsAMIuIMAt9+a5P289Y3i19i4z1WFKGveaveyretqohy8MVfbPz4Ya02JKlZOnpWlVbo7mzUevRNbJNauOPkjIkqY9Pbdu1i+P2c0H9m5AAgC7oVdDRsLRn3bciMvKyUp4eHLN4sPJJS6JDHsnOzr24uHwmExpRlpOZY9nvQ2CgBHDGspPLZq88dS9mJT09KSXDy7+sfnQfQ0A0NJ/ZgT6tJ90rCaeKHxPWvDefh/CKmRMP+ekPVOnbj0XGZeanhYffefMzp+ORhuBSv7nxF3CN7Rj2duWpFtIqKfs6o+/XDe26NHVrjgVidr0bCd+/OfGU7HWXXu0rCCewHAdsmJee+rsgjkHYw2gvnPinzT7rqWXWgAAIDLu4JJ1/zxJypamPjv7/YKd0eLgwd3sy4kBMnFwEFNPTh68mZCVnZKe96E0mdFoyPgg5uU1Mzdfik6RZidFnVk946f74s7fhNUhAZA4eGA36+Q/ly45+ihJKk17eX3Hgi03Sqxiub6si1frr7a/MAIAx2fQkIa6i6umrDvzMCY5OfbJjROHrsR/0jeeqLyYu9euXYu4FnH53PHfl4+btDNG6DO0r2clA1Oe/8iRzRTHl87eeeNVujQr/t6fi+fuiHXoO6pLfsdhNfJtwX198vhjcUDb/CNNOrcJcEg6ffQe1ci/pQgBAJ19dcfWoxGPY1LzlIqsV+FHLseRdTxcyKr65+dDDY3oIzf2Gvp7rJ4GWNvdP3zG8e2D7d9gL8Kq+//6aHZN6D5PTgHBc2g97scl/Z0IAADCoe+C2U9nbPhpdOiPNGKI67Qdu2LK7Sm/FO5K1h88bdjN2bu/67kPGA0m/HnwmzrvHcJn1Ru5aRtr7drdi7/aoaVoQAyRY/OvliMAoDU5UoU2Ny2rklj2p8S7PYwiaDn1tx+FqzbumzJwk54GQCyzugETfcEY9/eJSE7g98Gm5ebWhH2Xnl6bF/3L6DiuvUUpoea26tFRcmxvkuvYHk0qjn0S1l2XLLvXb8K6aVtcRyVfyK4zKLR+2b5K2PVbv9Ti8ILhHRJVFJCiup1m/bygwpUsLJ/Rs3s8XLBtdIctwPZbcPHXfh/mZith3WPVr8a1KzZP67NZQyOCa+Pda/X2qZ3ybzAiYZuZm5fo561bOPiIAQiOXeDYRSssF85IyN/ZIMvO08ghI39ZC9Nj9KZN9Iq1e+YM+VVHAyJFzSbv6RP4IbwsxQdZp0XTNIDx5cE5ow8CACIYXFN7D5+RayaM7OhE5K94o8uVRdYZtnEbWrVy+4SQ73U0IgVO/sM2zvu2Jb/gxXEcL38v9pkIXud2zdj5W4i6gW3sftudWt/PxwLlmzUk/rNu3aYcPQ2ACI5Vs96LFw5xIWia5reY8tsPgpU/lOqfE3zft7I1uaYNNWji7d6wiVqlVKuUl84ce6udU1JSzM3NGYyPIeiGh+t6DjvVcuu5BX4gT0/LpUVWVuJysTSjMis9R8s2szav8CkbgzwjLZcWWlqKq17H9HZQOrk0K1dDCCSWpkX3Fqm8+OhckbuT6ad91/bWrVuWlpZubm7vaoDSyrIy83RMkYWFmP1JRLhobW5ahpw0sbYUlnhqM+63wT1+tFhxc1O3wmkArctLT5cTYisLEfMDx2QpnTwrUwYiCwthBeFeozIrVarjW1ibll5bSSuTn6ey67hJSl6OjJq8rCyZgWNmJeG/23kVFRVVv379CpPOnz/fvHlzc3PzdzL8gTBq87KylKTYUiJ4pwpSWllWZq4GOGZWFoJyRzK/f+qZIskH6Z/Z2dl3797t0KHDm2TOj4JlZ2e/+f9GdwsbDAAZaSlaterTjnTnX5WYQisHYcUZSL7Ell/5/gyhpX0le74HBEsosS1rlhA71Rd/8KI+PQi2yNL+k7o7jdgmNg4mZbdSRgoQSZZc4sASWzuIAWj5o2MHrqeVnb2SVq0G9Gz6bs/qECyhpV2lHY3kS+wr6qSIb1e/3DWR5Iit7P/THYlki63s3qOGVffAT69/vjGfthZjMG8JrUh8EivXp548/xocA1wqfHJNJU1PL6fFBEP1ge/t/Uep19Cz6gzPn0TVjCf/MbAWY/5TUOnnlny1IVLHtm4xauVg94pWV5n6jpjnW/Oe/VfAUvuR+GS1mNFo4sHr3zB4n8trzzCfBmSdkQdvD9YYmVz2px25x2BK88lqMZBsvvDzfqgCUzsgBof76fbrWqaG33fzufMFvRsIg8HUGAghmqZRtS9RxgBAjTcX1uIvCz6fr1Qqq8+H+Wyp4viKRKLs7Gwsx29CvhBnZ2eLRDW0LAPP5b4snJycbt++HR0dbWpqik/I/xgURWVlZcnl8soyuLm5PXjwQKvVCgQCfPSrhqZphUKRkZHh5eVVMyViLf6yEAqFXl5eL1++jIuLw3HD/xgEQZiYmDRv3ryyDGZmZi1atEhISMjIyKhJxz5T+Hx+y5YthcIP/4hChWAt/uIwNTVt2bJlbXuBqR1EIpGnZzULhDG1Ao4XYzAYTO2DtRiDwWBqH6zFGAwGU/tgLcZgMJjaB2sxBoPB1D5YizEYDKb2wVqMwWAwtQ9eX/zFkZycHBcXp1KpatsRzAeGwWCYm5t7eHiw2fitWp8fWIu/LJKTk6Ojo93d3QUCAUHgWdF/CoPBEB8ff+/ePT8/v9r2BfPWYC3+soiLi3N3d3d1da1tRzAfBUtLywsXLtS2F5h3AWvxl4VKpeLz+fhNFP9VEEI8Hq/6fJhPDzxL/eLAoYn/NvgFbJ8p+LTEYP5TYC3+TMFajMFgMLUP1mIMBoOpfbAWYzAYTO2D11F8ieB1FBjMp0YNabFRq1TpqIIfJJvPY9XygJzWq5UaQylFQsDkCDlf8MWJ1kgT41Ny9QyRlaODBY8s2GzUKFR6mgZAiMHmclhkiVtDBo1crS9sRQZPwGWUvG9EaaRJCSm5GuCa2jnYmXLyjzmlVSq1FJQEEUwen0PCR0R/e/2ApS9DN2we7kYClf3gn5t0885elh+1TAzmLagh6Xn++9dfbY1WUTQgUuQ/58hPfe0+thhTymwpLZYIKqwhlX54XNeVt/UltyFul3X/ft+e9ZH9qhZak5Op41uKatIRQ/LFDXNWHriVoqZoAEAMoYP/xI1bhtVjgP7W6m4jDmTmiyciOWbOTYJ6jZn8la81A/R31oaO25+qpWlADPOQDX+v7pT/32CGjJt7NqzfefZRpiZ/CI5YZg3CFv8yr50F9WLrwL4/vTSWLJ60Gbzr3NyWH7QzavPSVWwrU07BT1qVmRCXJNUCABgTjq2YuVE23PHM1EZVirFelilnmJvxcCQP8/GpIS1uOO7QtYBNAwfvMp156peB1jVQqubmun6bbH/dN8q10hOJrNtvybRgs8KRHCItPD6BUbHx6S8jp2rmn5rRrMacMb7e+d203SneYzdtDG1oapAmxz67dyvX3a5Ip5AoePamkY1JvTIr/uHZ/bvWj3uY9euRmS14vvMuXw9aEDLu72bfX1zbRZzf1MbEY9OHzzmnqtdz4o+9Axra8Y25iU9uhT8zdzcvbGtms1Ebx7UsemkC4th6fNgRKpV8YGLfyOHh69pVcEkjHXvO/d6W8m5Q6hxDOAAAIABJREFUdZl03tnZPU4EndzW1xyvEsN8dGpOfJg8HhMBh1c496UNaqWO5PFYBKVIj0uSUkJbJzsxsyi/UatU0Wwhh2FUZsQnSI1iWxdbUZG7tEGt0NAcHo9ZJLWUVqnSk1wBhwSg5bfPXcs29FDI5HISkaXyFUGIXLz9W9tWrNWUKiMhSWrgWTrYmbFLnIpGjUKNuAI2SWulCfFperFzHSsepVFoEJfPJo2K1NikPNLc0ckifzBlVGbEJ0kpoZ2zrbBMW9N6RVZqei4lsHGwEhSpgubZufAEvZdSJpczEcHi8dmEJuXpS519A2fRR5pQU2k3rj411J80Z2wHVxIAbO1cPVu2K5WFKanbzMubCQA+AR3buxhDZhw5GDGxRSc+IDaPxwDE4XEL2pFKPrx06Tl5k8m7fh9Tn5u/zdrGqV7LriXsEWbu/m1aV/N8mFGj0ACXzyEpdWZCQqaWa+XkYM4pK4tGVVZScrZRaOtoXdzC+sTz5x7rJCq5TM5CiMkTcErtg8QerVvTJU0ZVZmJiekqJLB0cJBwSQAAY1b42VtKvY9CLmMhxOR+0fErzMen1roXLTv9v3Y/Wi+YzT+68o97mVoaEMPEs+/CjbPa2RAAYHi8uf+Ix703dHn+/bqzsWoaEEPSdODCVf9rZ8sAoHNOTGm7TDXl5I5hhcEOQ+Sm3l+f8f357KKW0duGjd/8ONdIbxvQZhsA03vmyV1DKtHcCtDGnFo7f/3Rh5k6GhApcPAfOGPRhABrEgBAd21p+1nU0sMhj+fM3/kgi7YevOPMzMbXl7afqZ6ypv6Fpb9cT9XSgLiOHWf9MMXh7OJ5O/5N0dKAWFa+439Y/3VjPgIAOvfm5lkr9t2KlxloAMQ0bzJ48bppgRZ03KGJI7+/mqGjX45vfRCArDPmj8Pfwi9jBm1PaT73zC/9rD/KZBmxOWxES+WKN7uhh8SNmzihy+mpuRTwyzlkfHX0wE2V8/DZXxcK8buii1gcPE39v3X1Ly//JSJJTdGIENYJnbVxeW/XgrGuIfnCxoUr/vg3SU0DYls26zN7xYxuTozMv+cNmHM8UUvDjDZ/AxDmfX+7vLjkH1/TspOTAhYpp57ZO8yOAGPyhe+nLz10L0NLAwBimTccsm7HeHrzgG/3vFZQ9LLOrZYBsNt9f2tzSA0/XLztl1+TU1IqTLK2tho/dmzNuoP5uNRqJIzOOrZsY1zg8mNXbt2/fmrLMMfYg4s3XFIUpesjt8w7Y/3dvot371w/++v4eon7pk/b+cJYhUUAACDdB206sCCAzfAYtefipauXz20Oe3MRo/MiVo2df9rQefmRS//e//efPVObJO2eOv7nx5qiLJrILZOX3vGYuO3P48d/HeGZfzlTR6xe/qjVsqP/3vn38s5vm8jOrxgxcP69hvMOhd+7HX5kQRBx8+fVhxPzfUciK7cWA5bvOnn11t17538d7fRqz/Lf7uqBtO+2Yt/KHhLSOuyHy5cvXb24Y4wHiUzsHcVcSycb/seaKCMz/46teHF75i44EJltqD6/Lj4ujeba2JlW0Ki09MHdGNqmdVADZvnEt0cdvnrhzYazDkTcvX//4o7/NZGeWrbyaFp+7Fob+dPEKftzg5Yfu/3o4Z2Tqzuo/po1ectjHWEWPPOPLcPrkLyOKy5ej7h67cR0nyqckV9YM3e/NGDVmZsPn9y7duHgxilD2zbkc5tP2L53cjMms+WsE1euR1y9vLLDe15a3oHRo0a6ODsbjIbyn7FjxtS4O5iPSy3flSC9Ryz+qpWTKZcjcgwYOyJIII98FFMsB5RdnxmTOtSV8DhCB58RS8a1hCdH/npUrVywhGbmQjYAyTOVSCQSczGnwmoaM24f3rlz5478z6594fEUUOlndp1Kqzt82dRO9Sz4HIFN07AFi/pavty/87KscNhoTM6rN3vL7N6+Hi6uThYFs1+aqj9o1vCW9iIO38p76PAgsV5u0XPW+CBXUy7XrH6vEaHOxudRLwpuFhIuXUYOatfYUcJjca1bDOvtRWa9eJFJAYNvai7mEIjkmphLJBJzEx4JhG3vn6/c/Gd+G+EH0mK6HMim96pNE300/ywc0KHdoBkbjz3K1JdML9yJ0svTnl38bebS41KHHmF+3IJUuoRVY2Z6ppGwsbdC5YspYU8XPqdlk6aeBR+v4GW3dBXlo2nKbdD8icFuEi6bb9NixNgQG93j+8/0NE3Tsis79r+2HbRgVmc3MZMpcu0w7dtO/FdHD9/TEmyRuQmHRIgtNJOYm5ub8hlFfhbXqOCHUZkt1RDmdeo7iZgMrqmDZ2BYaDMRAEtgZspnAGIKzMwl5ubmAlYFDfeRQQgNHNAfQakDjwDZ2tgiVGkDf5hegqlxajcERjo1bWxa1NOYpuZCpFapi3sTx8PTrchDwqKFjxtxL/qFlPKy+BCl0xn3T/4RXRSEZQfV6Rdk8/zRE4NtmI9LcWyW3di/uWj/zfsvjF2aMwAAkHlgqJ9JGWUkJPUbFI2+SZGJEHHdGzgXWkEiEzFBadR6gALtNuQlPH0SnZiRI1cqHqdTwNa/wYj0o0GYt/xm28meD84dOXDw8PY5Z/bs7L3kx/ldHQoan5YeGeN1FCjKSNOIY91y4PdL/9eiigl7tYrwf/buO66J848D+PfusheEBMLWIg6GIg7ce1TrrqNu66/V2tbWXbVV66raarVaR9XWbYejblsnrroVEEQEB7JXwgjZubvfH0xliIpE4ft++Yfk1nPP5T558txzF8pn8LxRAQXX7ghBba/S+8JJZUCAR9ElRHsHe8KkNzAAYH0QEp5LybJD/todnjeVycgWQObj2Cy2pVMFdxsASMfOw3tsm7Zi+JDIEWOHD+gWoHqjHsPO5/OnTZmycfNmba4WAAggpk2ZIpfb27pcqPLZNosJsVhUorVXdBoTPGHxFi0plkpIVqfXl36iv3CDgOM/Yfuz/ci5Wq2FkMqeaoOSUpkEdLm6gjGxpEwmLdHQJkTP7ArB4/FKb8kyKcGrZiz64y7UauhTy8lOwkvXsewbkAB8VWCfzwL7fDTpwrqpM7Z+s8C38aYP8mqHkLT6dNEwXy5HaOfsVb+Os7jMq4ik0klJMXEJKQyUN2qRUgX26tPr+d2vhFjyVNdM0WNv2NycHBbM4WdOxBbN4N6kWV2HF/yqR6reXbLHs+2OTTv+mD18w+L63T+eNWtskOLNGXgsl9uPHTP653XrWWD5fD4GcXX1Rl8aZg05WgtAQWcfk6XOpEkHqYSE/K9txeOXLZaWL48nsxOwMZnZxddMZ2pyQGYvq5z+HDbzxLI5u+JbLjyyrI8bFwBAd2zS8ZvqSll5ZeC7tp84udfR/x29fc/6gWveZTKea2Cnzm0r0AVMODRs7AnX/zsfaWnaqFK6jMvakFgqJfiBX2xc3knw/LnLR9r59P5iVe8JGXeO/rJsxcrPpwv+/m2kR2WUspKoVKpRI0ZcuXr1wzGjbV0W9Lq82aPYzZG3wk0FfzAJly8/Bld/HzmRN4aKyVRrCjPTGh0Sll1sUZIggLY8dTNHRXD9mwcIUq5cjCpaUn/zws1caaMmdSvnc4tJjH6g4zTq0sUtP6pM9yMfFvVPEARFgtX6dMEZpmp7Ac25OstLfvpQ9fv2b8iN/euHHfcNlV+wIpy6TRtLdddOX80ptWoIigLGSr/QhzNX2WjA7MVjGpgiQqOtAARJkQRrtdqy76hI/fr1MIirtyrLYkafmW1iWX1WprHiJwiZcWT5sgMhcRmalMiTP87aFM5vNux9XwoA+H5N/DhxB9ZtvRybkZkRF3pk+YJ9icXCkuNey419fGbfuUfpmrSUTFOZm3gGoegxflid+N3fLNx/60mGJu3RlZ1zFx7K8h35YQfJi+xuOfvk7OnOt4Qc3Xs7OSdX8/jK7nmLjmdyC79nk26ebmTGxQNH7qVp0pIy9Cwd99dH7Vr1WBCc/bry2Hrrt6+/27z/xIUbYVEx9+/8t3/llEX/6BsM6BtQgU8fa45GawFGm5ltzisf5TVi3qTmnFs/jR0xe9PhS2H3YmLuhV05sefX368VfXLSqWH/Hj9+rODf8eBIzYvunbT9Rx/6aw/Pm7jyyM1HSampCTG3T+9e8+dtIwAA6ezpITDfOLAnJFmTkZimLXvlrPrC1l8OXAx/lJyty814cG5/cCxVp/47FABh7+Fhx9w98tfVuAx1Umr2m5HJqNqqoj6KOz8NGLXlsYUFWNG3zbmvDv02wr0CS5GqvlMGGrd/3neOlgFS5NH20zULP6hFAgCQHoPnzY78atW6cX3WsATHrk7nCUumXp+6qWBRymfE9NFXZ++Y3H83cHw/3/vXJ3Uq2AMoDPj8l9W871asHttngZUlOPZ1O3/289yxDSrrlmRC+d70mTemrVg1qvuPLMFXBY1asH7SzrGHC/bZZcCUCeem/jJnyDGWdBm55dhMiVqtN6pf4PPkhUskpNTnNy/cmWNlAYAgBY6+3Sb/MmuM33N32XJxXvvP/tbQLKTOad/23PIzP/WWAvDr/2/DLreNP/2y75evDq/Oe5IFT+7db27/wgWtEbtnT99d+CflMmJbO98XvAea5/Px2s3c5ct3zB+1xciwQHBkns0/XJq3S7KuX047+en3Pwzr8j0I3/v5yvIOZe49HX/ixx9/zrSwAAQpVAUOWDh/lBcFALwW42b3C523cVy3DcBvPe/M5iGOeP8dem0I34Cm9fwCDHqdQa87e/zgCy2clJSkUCg4nNcR6NbQH/uPPhr0y8l5rUGbmpLFylQquxIXw2hdRmqmie/grBCVFrVWbVpKFit1crLjv/BZRBsy09QGvsLZQfg6vjxYtKmpWbTY0Vle2oA7Rq9O0ZiFCie5kAKL+tFDvVM9D0kllOPUqVPNmjVTKBTPTmAtuZqMTJ2FFDo4OUoqp6eXtWgz0jL1NCWUOyqlr+txUIxZq0nPNFJSpdMzdckYM1MyDDy5k1Jc/luUMeVkpGcZQeCgcpRwn3qrsObs1FQtaadylHHfjiS+fv16s2bNbF2KmiivP0utVru6ulZwkV6DRgBAWkqSyaB/o6/d5Y+N4kpVHtLSZ6DESldx2ctzpE7uZSz5XJRQ7uIuf8mFn48rVZVTNFKkcC0cZcBVeDUokZ2VjeBKFC6Syt0MwZU6ur1s/VcYyZMqS98KKZC7VugQknyZk7us1EkEz87Zw+5VyodQhbzZ1+4QQqhmwCxGCCHbe2P7KDgNJ/713ycc0esco4oQQm+INzaLgeKLpW/AzWgIIVQF3twsRq8JPkGmGiMIgmFe/fZTZAPYX1yz5D3fiyDejuFZ6CXgB+1bCrO4ZpHJZGq1GuO4+iEIgiAIo9Go0+lsXRb0MrCPombx9vYOCQkxmUwSiQTjuJqxWq0pKSn29vggt7cSZnHN4uDg0Lx587i4uLS0NFuXBVUyDofj7u7u6elp64Kgl4FZXOPIZDJ/f39blwIh9BTsL0YIIdvDLEYIIdvDLEYIIdvDLEYIIdvDLEYIIdvDLEYIIdvDMW01DsMwycnJWq0Wb5atZkiStLOzU6lU5dzFk5iYGBsbq9frq7JgbymxWFy7du2K/0jHK8Isrllomr5586bRaBSJRHjfXTXDsmxycnJycnJgYGCpMyQmJt6/f79evXoSiYQk8TtxeRiGyc3NjYqKAoCqiWPM4polNjaWYZg2bdrgUwuqJZFIdPXq1bKmxsbG1qtXz8vLqyqL9PZycnICgNjYWMxiVPkyMzNVKhWfz+fz8eHQ1VMpPyxbQK/Xi8Vi7JuqOLFYXGWtFvyeUrPQNI1dE9Vb+ccXuyZeSFVWFx4YhBCyPcxihBCyPcxihBCyPcxihBCyPRxHgVDNguMo3kzYLkYIIduzQRazpqz46IiQ0PCoJxrjG//z4bQpV/uMXL2ZAWDUof/8czuNzpsrasuEvqPX3bbauLQviL7327jeI38uq9isNurk0Svxxqot1PNYQ9YO6ztu8z265CTL9ZWD+n62/QENAMCoQ44fzz9ATOK+qf37Lj5vqNqiVltWo1arzdFqc7RandFMYzu7MlRpHwWbG3VgzYoNh24m6RkWAAhS6Nyk7/jpUwf6Sis85pU1ZqabxU4yXmWVypSdpuc7yQWlTrRc/6HfuD3pT31kcBp8uffPcdzDy75eox3tcXiKPwWsMTMhNs7F8Ja9KVmjJuHxE1d96cVms0+vnjb3Tp8N55a04wIA0LqMTMZeKbVtxxZryIiLjVcbSyk0q894EpugMQEA0HEHl85anfOhx7GpDSnWkpX0ONaS+5YdnzeV4dSs1lNPmvL/IiiB3MO3RY+Rn07o4S3CwesvqwpPK0P4hk8+WR/t0OnDRYu6BHjakbrkexf2b9606H8RSRu2fhEoqdBRpCM3fTTNOPfoV4GVU3Qmac+koeGjT//QucxwJ6RtJy8d4UsV/E2Ka7kSlKDv7GUuTKAPVdZibz3CruvkVbzM+s25eX8bry4fvNr11z/G13kb9pny7P/1D65sE9+3obBvIcqt/4IlH9SmWMaYnXz/0t5tm6f/L544uLKHA6bxy6myLKZjdi3ZFCHuuXzr990d83tGXNzrBrbwFY/8ZOvCXzvvmezPBQDamKunuSIxv/AUYsx6nZkUSgQcADDeO3kuztJEl6PVcgmSJxLzCatBZyJFYj5pzoqPTdLxnGp7KgWFfS+MSae3cISSovWxVoPOAHyJkEsAWOJPn4owKwxarZYHBE9UbL4iPJVf6zZtuE+/yNrVa9OW5ZfzxjNnJ8Wn6HmOHu4ORbOx2ri7T6h3fN3Eb0pXPUGSAIwhPS4+k7FzraWSFNYAIarVsr07N2/HWe21ExczrP1ztdocCjgCsYhbxh7QxlwjCMUCitYmPU7IJhW1ajmJKAAAWpf6JEFDS93fcS3RuKb1aXEJalqkcndzEJSoVas2KTYhi3SoVUvFg4qd7IRd/TZt2eKrIgkCWJMmIS7dLHap5SrDC9evQuDcoElTv7w3S+sundyyuk69EBxm6dGJB0CbdHqWLxVwwJKd8DgxV+JRz1Wa/3ah9Wlx8WpapHJ3zz/QrFmXracFUpkg/63HmnOz9QxfKhMWvBctuiwdI5BKBRQA0Pr0+PhUPSFx8vBQCp8+Yc3ZSfEpOp6jh3sp76I3W1UFAn3vyOEo1n/YZ10dn9okIWv58ZiW3MeHDt42AwCYLyzo3nr4xmKdgcyTXR+36fj1SQPQsXs+7fXhrzHm5L8+a9u6TYu2IzdE0WzOsSkd+y45dm7lmO7tew0aNLhfx479J++K0OZ9HbWG/TSwXY+l1yyF62OzD0/t2PbTPSkMk35iTu9BP9406U/M6tSidZtWvZddtUAFsTnHpnTo8MlfKaX1eLPaiD9mDunarseAAQN6d+jY/8stIVl55bFcWTF65AeDFpzOfYHKe60IPv3g96nvtevco/+Anp3bdRrz49mU/No3X1zYqc2w9VE00BEbhvX8dH+KOeqXIa1bNm/RbtyfyWV19ZsvLuzUcdbeCxs/6t6hc99B/Xt3bt1r2p6Y5Ctrx3Vt16XngEG9u7XvMu63MF1hh4Hx4ZHFQzu3ad9rQP++Pdq27zX+p/PJRW8AOjl4+Ygu7Tr3HTSgd5c2vSfveEBX5Cxjc45Oale8nASHSD4+b1DbDj17D+jbuW3HgfOPPjaVuwpUcQKZTEBwuHkfb9Y7awa2/eLA49u/juvRsUu/wcN+vGoGADA+PLxoaKfW7d4b0K9Pjzbt3huXd6DpiDVD2nWbf6GgN99yc8WAVq07fro3Nf/Y0Y+2fNih46yTWpZOPL10eOc2bXsOeH9g/+7tW7UdvOJy/qnEasN3z3i/U6uuffr07dGmfZ/Pf7ud9Vb1SVVRFjMZEXcSwa1ZkGeJDRLKpkHepPrOnfjnXcej3Hst2b20n5JyHrQ6OPjshTNbx9enAADYjEOLf0rosfL4xes3g/9a1pN7Yfnk74KfeyBIhw4zdqwd7UWJui0+cSH47PkD04K4z1mmIpi043MmLr+u+njLiath109t/9QjbM3k+f+kswBAKtzdJRJ3T6dK6+5+VUzK4fUnXafuDr51++rZ7VP847dPnbot5pkLY1S9kev/mt+Bz6k/bnfw+f8unFk/2KW8t47hwrLFYa2WHL5++/r5HV82zjm1+MMh39xsOG/fhdBbFw/M70ReXbt0TzwNAMBmX1g6/pujdM+lB85fD712aveMxgk7pn669k7eJUP60c6pM3bGNvhix5kb4bcv7J3ienLDoTI/B8rDGs5u2gGjt5y+Enrj7N757fWH5ny+JuQNuzD52rGVpPi6GEPKta2/nszxGjigKbdgujXm90mzjtmP+Wn/0SP7prfisUzW+SXjvjlqLX6gt0+Z8HOYgfJp3dxee+tapIVlWZa1RJw5r7Zz4Iedu6xhWJZlGfXNqzFEw9bNpdpTy7/5Q9N+6bErIRE3L57666cpozr7iliWZemUo7M//f6a87htp29E3Dqz61OP0FVfzj2axlTKnlaJKspiVpOuYUhHlaKUBg2pVCkpRp2WUcqF8adxxHKFnYAkKKG9QqlUKuxFBd9PeC0/nju0ibudQKRs0HvWrIEuGSf3nMl4XjVSAjulvZBDEHypQqlUKuSS0qPYGH1y57at2/L/bTscllnempmHB7YHm9pOXjCqmYuIK3RqMnL6KF/tuX2nUxgAqv64XZeu7Z3Y+I3JYgC3gTMnda+vFAukbs1GLfyiLRm+Z3/YM0MreFIHhZQHwBHJlUqlUmEnKPedwzI+w7/+Xwt3mUDs3GzM2E52Fq3j+7M/7+TlIBQ6+L7/Ud9adFTEfQsAMKnHth5Nqffhkhk9fBzFQqlL4OB5CwY7Rv++9WwOC0DfPbgvjAmauHBskIuIJ3Co233K14M8XnJH7bpNmdWvoUoqFKsavv/NzPfsYw/suYxDK14OE7vtf+1btG7TolWLxs27fnJA9NGvW6c1ERZNT09x+WT9slHt/bze8XIWE+UdaH7j1k0EKTevPaEBgI4KPpdWd9DQZuTt4CtaFgB0t6/eYeq2aekIeo3GSCrq+Na243FFDp7+HQb3CbQjAIB++Pe2s6Z2UxaNbu4i4gpVTUbNGOObE7zv1Et9bNtGlXWZkQQAw5SaYSzDAkGSr/D4MMrTz0dWuDi/UetA8Z/Xox5ZwbEyuoxYw8Ozf6kLHzFJeXE79A6wL3PunPDQR6xU9eSfP3cX9JDFMxQd9ziOgXIbkzbCb9CoXuFnECEPbOpNXL4XrWGbOL38Okmln59zwb5SMnsJIazv+07BJydhZ29PMkaDGUBgvRcaaXEb1PKdom4/QUDb5rLfr9y+T7/XLOd+VCJRd0BLZWHFcRs08RdvC32JQnHqNvQtygpR42Y+1OH7kXF05/p4ee/Fkcr242f09qCAteo18WGn9q398ovM79dMa1Nw7U7Qou+7zkXv93IPdM9mrRtRy67fVE+oo4gOPp/g3L7LoNr3t64Ivqbr3Y135+pto3uf1rUokug8vMe2aSuGD4kcMXb4gG4Bqvyzks25E/qQlaqeHP9jV/7mrXEsRT95FM+A6xt40pWmirKYdHRSUnRCcmopNcOkJafShKPKqawqe/63BEIgKN6FSImlYtDr9SxU8DLPc9Yu77ns6LfPXLsrs1CsNjuXZfVPrp3WFVWusGEzP1fxG3ktgRCIRcWyiBRLxSSbm6t7pfYEIRI/PbiJ4PF4z+4+CwBg0mrNhMROVnwiKZVJQafVMcDqc3UsKbOTFXtvUBJZxYbclCyUqFihCJFETIE+t4wBfeh5JF4tu7+bf+0OBgzpUWvM+8vnrm/375wWPAAAQih7atxpuQeaUAS1qcf8ci1EN8gr+NwTVYeOfo5uHRt+t/bcLUMn5bWbmYoWbepTAKB6d8kez7Y7Nu34Y/bwDYvrd/941qyxQQqKzc076a6c0hWdpsJGzfzd3syTrlRVlMWEvGFgLeL6tasP6cBnWiFMytUrjxiXDwLdC8+3p84OVqfVPe90YbQ52mLzmLM0WpBKJXkrJACKd/qwuVod+xr7ZgiJTEKQHv0W/faR19vwgcwacrQWgIK3MKPNzmFImVRCAjy306gS8O3sBGy05qnOfTozMxtk9jISCJFETDA52VoGFAVvG8ZoeLlx3EyuVstA/rsCWG12Dk2IXzLX0TMot8aNlBAR+yibbeFY2gzlH2jKo2Ur958O3bjzOOn8I2XHWf5cktO2fYNlOy6GxHneiBcFTW6YH+yknU/vL1b1npBx5+gvy1as/Hy64O/fRrqLZWKC9Oi/ZMvHXm/tl5yqSguqXp/+jbgxf645lPBUTySTfmbtztvgM3BAIw4AACEUCSFbnVk4E5NyOySxqI1GEBQJVuszwx2Y+NCwovsxcm9eCDEIGvh5U/nr02s0ha0fNjvs1oNiRSBJEhirtfIaR4RdQOM6EHMu+EkZUcaW0VVjK+bIW+GFV7CY9BvXHrKuvj4lR4kSJEmA1VrJtxZy/Zs3FqRcvhhVdEj1N85fz5UGNK3LAcKugY8bG3P1Wkbh0bU+DIvIKb6GCtcnff92WOHdHqz25tVIWubj5/HWnrtvFDop9E46K1a5lHXXVvkHGqh6rVooMkNO7/3vvrxD1wAeAOnWvr131tWTe6/d4zRp21T4zOqUjQbMXjymgSkiNNoKhF1AE2+ICT5b1kn3NqiylhtZa+icKUFwYfHYccv+OH0zMjom6va5/Su//HDmMX2zid+O9s47JTj1mjQSZZ3asC44Ji1LkxR5ct232+4VHyLq5ulGZlw8cORemiYtKaMgYunQrfM2n7+fokl/cn3n3KWH1W59h3eyJwCoWoEBCsuVrSuPR6ZkZqbEXNry7YbL5qIVkipPD4HpxqE9ocmajKR0bSWkJFln0Lj35BHrpnyz42JUfGpaUmzkf4e3bDoVTwMAHbnLdhZzAAAgAElEQVRuSJuWA1ffenNGU1HqI98v3X87LkOTFnNh09drr1NNhw32K5lQHPdabuzjU3vOPUrXpCZrKmkAAqF475Ph3gk7Z83fd/NJhibt0eUd38w/mOU3emxHKQBQvv2HNCGvrflm0/kHaZqM+NCjKxbsjS/6NkffXTuwZfMBq24+vz4J0nTxp/m7rjxK02TEXts174eT+rpDhrYq/X5L9Fz6+NBLFy9dunjp/Kmju5d/OWF1KOU3YnjLsurzOQcaeA1bNRc+PHIo3K5957wr21Ttdu09Eo4duMU0bBMkIwCAVV/Y+suBi+GPkrN1uRkPzu0PjqXq1H+HAqC8B3/SSx6+dtLs7RfuxaWmJj2+e+nQbxtPxr9F2VyFw915dUet3en225oN+1ZO/t3EsEAQfEWD9mNXThrXxbPgCBIOPaYvDJu5ePfkfltZghR7tB49/xvXrxcVDMclXQZMmXBu6i9zhhxjSZeRW47N9gYAbvNxE31uLB66LtXEElwHvwELFs1omfflU9h64sKP4hfs+HrYXgZIgarJ4GnfDVs/O7xge7IuE6d0nrh8xYjuy0HYY/WlH7q+8ggHQtF1/ualiu83rP/ig2U0CwQpcPTpNe1dAgCYXLXGoDenZr8p7xHCrvuC9c0uzfu09zdaGkiRZ7tP1y4eXruUxiLlO+qrMVdmbf+yzy7g+H2xf+8E70ppUgobf7FpDX/R8lVj3vvWyhIc+7pdPl8/7yOfvONAvTNi1ars2Yt+ndDvZwY4cr/3v/5xysHxO/MXZnIzMg16U0Xqk9dy+i8DH/4wtf/3GisQAqfmI39Y9pn/GzSepUpUzjgtFoBOPvbdZ8cAgCApvszFu+nQBcs/HeDLZ1m2sJPx6U0JAiZuXMNb/NSBXjfvfw24eXMJmrRpwj9+UdSjSyA/7xWybod2br/uSPZp3cKRyFuvNf7fH3/8OdPCAhCkQBX4/oJvR75DsiwLDl0W/Pq9w/fr1n4+eEnBSdd7+ruv+FS6qhzTRvgGNK3nF2DQ6wx63dnjB19o4aSkJIVCweG8aKBbczPSNHoQOjgqJdxSv9IwxsyUdD1HrnKSlLZyRq9O0ZiFCie5kMw+9GnnhfqpR7aNcDZrUtINPIWzUvRsSLCm7NQ0LSFzdLIr7U45xpiZkmHgyZ2U4sr8cKINWelqLc2XOxXbT2NqzBPWvZ6z0Cb9lNeuXXNycvL29n52gkWbkpLFylTOdkXX2Mznvm7zZcTwPw5MKWomW7WpKVkgdSq9Il8FbdCkqY18hcpBWDLjWVN2aloOYe+ievaGPUNqdBzrUfH6pHXpSRqL2NHZofxheW+tiIgIHx+fUiedOnWqWbNm5fw4aZUo90A/H2PKyUjPMoLAQeVYSnzQhsw0dS7z9En30tRq9c2bN7t161aRmfM68NRqdcV/N7rXoBEAkJaSZDLobXIbKEeidJWUOwcpkLt6yMueLFK4ivL+m/exlfcxKnBwLWPoKcG3c/awK3dz7mVv7mVRQntn92cHvwlUdetX+pZeHVfq7CF99kWGZoCinnqPcKQqdykAHX9+6/F7z15DIwQNeo7q7PlyzWVK6ODiXtbEsg+gUFXvheqTEjt6iF+0bKgSlXugn4/ky5zcZeWsXe7yGs7lKoC35KOSmPToO2lmw61DNw3CAO9SB0WbstNSUp8dD0YIXGrafWzoaQ38/Et9PepuRBWX5K2DWYxKsoRv+fTzI1pSWrfXrC+6yUr5pkd59535bd+qLxlC1dVbn8WErNeq811Yvqh6dv7ZBr/zskth31oIvqCsZ7EhVCps/760tz6LgeAIJeV3PqOXQPFe6sIKesNV8fNu3nbV8NlACCGbIwiCZVniFZ78UqNUcXVhFtcsAoHAbDbbuhToNSrn+MpkMrVajXFcEXlBrFarZbKyB21Uqre/jwK9CFdX1/DwcLlcbm9vjydkNcOybHp6ekZGRlkzeHt7h4SEmEwmiUSCR798LMvm5uampaU1adKkaraIWVyzODo61q1bNyIigqbflDv/UCXicrl+fn5lTXVwcGjevHlcXFxaWlpVluotJRaLg4KCpNIS4+5fD8ziGsfDw8PD42Ufx47ecjKZzN+/9CHAyLawvxghhGwPsxghhGwPsxghhGwPsxghhGwPsxghhGwPsxghhGwPsxghhGwPxxfXOImJibGxsXq93tYFQZWMw+EoFIr69evz+XxblwW9MMzimiUxMfH+/fv16tWTSCQkid+KqhWr1frkyZNbt261bt3a1mVBLwyzuGaJjY2tV6+el5eXrQuCXgsnJ6fTp0/buhToZWAW1yx6vV4sFuMTbKsrgiBEIpGtS4FeBn5LrXGwa6J6wwewvaXwtESoWsEsfkthFiOEkO1hFiOEkO1hFiOEkO3hOIqaCMdRIPSmsUG7mDVlxUdHhISGRz3RGJmq3/6LoU252mfk6s1vfLFfmkWbFB0Rejs08lGavkp/hYlJ3Du1X59F5wwAAGB4dOHQuYe5eR8Z2tNz+/Wbfiit+tY6QlXbLmZzow6sWbHh0M0kPcMCAEEKnZv0HT996kBfaYWv/bLGzHSz2EnGq6xSmbLT9HwnuaDUiZbrP/Qbtyf9qRTgNPhy758TvG3evWPRpmsphYOokgpiiD25btnqPy/F5tAsAADBc/Tv8fFXM0Y3U1CVs4VysZasxMex5rz4NV/d9NVX/zb9/uK6/lJgGW1KbKwu21IFpUDIVqowiw3hGz75ZH20Q6cPFy3qEuBpR+qS713Yv3nTov9FJG3Y+kWgpEJxTEdu+miace7RrwIrp+hM0p5JQ8NHn/6hc5nhTkjbTl46wrcwkEhxLVfbDxtis099M/Bw+4MbBjlUQmEsD/+YOGbJVW7QqG9n9272jgPPlB595eDmDT98HP7op50LO1bGNl4Ar+Uny1f0dO0kqdKtImRDVZbFdMyuJZsixD2Xb/2+u2N+S87FvW5gC1/xyE+2Lvy1857J/lwAoI25eporEvMLo48x63VmUigRcADAeO/kuThLE12OVsslSJ5IzCesBp2JFIn5pDkrPjZJx3Oq7akUFLYVGZNOb+EIJUXrY60GnQH4EiGXALDEnz4VYVYYtFotDwieqNh8RXgqv9Zt2nBL3zFzVuKTFB1H7uqhkhSrTcas19NcsZBL0LkpsfFZPBdvD3uy4EUwauKfpJpELrU87Hn5q0l4kqzjO9X2UPCfyT3GmJmSpDbwFO5u8sJpjPr8yWs6a5BWq+USwBVKBRw682FEirS+j1PpTfxyMMl/L1t12dJq7u/rh3vm74Srm1dAq8YOo0etX7C6W7MF7SUAQJt0egslkgiKV2auAQR5lVnAmpuakJhpFSldXJTigjqxapPj4jUmrp2zh6tc8Ly2PM+1SUdHSlhspSRJAliyk+JSdDxHT3eHolpizHodzZUIuQStTXmckMVz8fa0z9ssbcxMTcow8JTFqw5ok07P8qUCDliyEx4n5kpcPWUUwym+XwBgNWgNNPeZFxF6Xaoqi+l7Rw5Hsf5ffNbV8anTkJC1/HhMy4OLDh28/Zl/Cx6YLyzo/mXk0D/+/tI//xRgnuz6uN9652UXV76bumfiRz9cSDOzMZ+1/QuAqjP+932T3I5N6bJG9e1cu33zt4VorCxBimt1nbhk0Qh/KQFgDftp4P+OtFwXPL91fpay2Yendl1gmPLvlmGcU/NGzjkSb2JhVqcTAKRi4MZT35aVuSUxmhu/Llj067knuQwLBE/p/97nc78a4iMhAICJ3zlu8ImOWxfKd0xb/u9jPbf1t/9ufl+3c9ygI0FLxmo2LTkYrWVYgpI3HrN0RZ/0tbNXHL6fTbMEJan7/oI187q7UgAA9KMD82avPXU33ciwQJDiWl0mrVwytIFAf3n5iMm7HuUy7JLebZcA8Dsv+++nNmfnj5h5Tjrs13/mNH+xw8oknDhwzeAx6rPBnk8vKPAb+0m33ZP+3X9xevueUrCGrew/5lDLDRcXtS2ozKyDkzt9q59+avtIVxIA2OzQHQsWbj4RpbGwAATl2Penf5d14T48sOCrFYfuZVpZAIIUqpp/tmbTJw3LqWjrnTUDRxxqsSl4QcGWCCrzyvcjVu0MUVtZgpLW6TF56aJhfhICgI7bPvb9fzrv+E6+ffL3xx/ruW0WnN4yRP5o/zczfz4ZkVZQdV2nrP5+uI8gf+UfRn908NPsJTPWXUgyi3rOn5K1dJn6f3//PbFBQfDSkesHDdmm/Ob41mHOtuqN2rhpc2JSUqmTnJ1Vn02YUMXlQa9VFb3NmIyIO4ng1izIs8QGCWXTIG9SfedO/PMuzVDuvZbsXtpPSTkPWh0cfPbCma3j61MAAGzGocU/JfRYefzi9ZvBfy3ryb2wfPJ3wVnPGytAOnSYsWPtaC9K1G3xiQvBZ88fmBZU4SAG+tGOKZPWRdWZuPnoletXLx34cYjowuJP5x0rusLExP+zYOo2U9/vdh4+/NeC7goCAIB5uHPhbt5HO85cuX3xwPJ+dhHbvhr8yTbrB+tOXb5+7d/1Y70S/l668T9Dfgkd3QO6TFr794lLt29ePLioI3125fJDKQwIm07YtP2Lxlxu8xkHzlwIPnt6cRchIVB5OotktTwVL3xMjXdD79Gypi18S+69uEkLf47+Tsh9awXWwyT9Pf3TFRd5732369j54H8Pbf1x4ajmEibl78WLjlMDNp64fjfs+n/Hdi6fMLR93YpXdB7LjS2bU95bdfLq7bBLB37sLzi35IvF57ILDjETf3zepK3G/st+P3Zs3+IeCgJIR4/G3aZsOHzm6p3QK0eWdKLPrPj+QErhsbHG/D5p1jH5mNX7jx7Z/1XPPoPaix8ePRBW2CVtjTj+7yNhqwHdVTa8LDDu44/eqV3bSltL/pswfrztyoVeiypqF7OadA1DOqoUpXQ7kkqVkmLupmXQUKf8Nz5HLFfYCUiCEtorlMq8ouedjbyWH88d2kROAECD3rNmhV0Zt3/PmWmdBjqWuz5KYKe0F3IIgi9VKJVlXww0Rp/cuS26oGyEQ2C/PgHiW3/uCON2X75gVJCMAIA6HT777vOwPkt/3Rvd8/O81hWTEy/4+M8VH9UpqGQGAFhW1uWLqT3qCwGgTo+P3t91ZNWjwHlzBjaSEgCSNuOGt9w1597dRKa9NwlASJsPKTzn6r43rNumE4ejHtPgzJcqHMRcIDhSB6WyoC+3+bSDN6aVu8N5NcayT49pYzIzNFZCoVKSpYx1Ezs6idgbaWoLy1Jsfm0XLc/mvZS3Sjpy7/ZLxqZfr5jZz40EAGeVRwMAoJMzMmmeR70GrmIOCcrajbvVhlKG1RWtkmXzp+aXNG8Kr+X4ucOaKggAqNtz+tcRl0bt/uPUtA4DlSwLwOTECcbvXflxQVWzLEibf1Cs6oa/u+Hfg1EPrayKCyzLApOe4rLw76XvF7R5Ow56V/nZP4euTwpsLQQAS9ixk/HS9pM6yW05/o8giGFDP1j03ZKCigcAIIBwcXEhCAIHJlYzVdZfTBIADFPqu4dlWCBI8hVuo6c8/XxkhYvzG7UOFP95PeqRFRwr45ITa3h49i914dO5KS9uh94Ns8IjMij/1s2LBoCQji1b1ydWh4Znsg2UAADAadiz1zvP1jDH28+noEOXsJPLCKqWbz1RwVoEdnZCeGQwFFYUa0yLvhP5OFmdk6tLuG9gLRZLpZ+CBEGUPeaYYVkAknx+RbLZkRFxRN2+bZ75Tk/V6TOs1Z+L5r0/5taHHw7r36G+w8u86aha/r72hYXg+jRrJN569d5DGpQEAACnUa8SVc0aUqPDIx8lqXNyc+Ojnqk6QYu+7xYrqDBoUG+Pv/8+eHFa6+5SMN0+fjLZoeucdjJbX6Pl8/nTpkzZuHmzNlcLAAQQ06ZMkcvtbVws9BpUURaTjk5Kik5ITmXA9dm2L5OWnEoTjiqnshrFz88eQiAQFDtrKLFUDHq9ngWojHOJkPdcdvSZfmQ6PCeX5XrKRMU2QEjtpQSTnZvLQl4Wk1I7Wck+GaFY+FSpCB6P93Qx81OR1UX+/u3Xq8+myxv413V1kIlMWebX0RQi7Z0c+ez9pFQL+D57nYrNTk3RE47OyudfwGJ1Wh1LykruMlV7yNpDdQ/89uuujVP2rZIH9P/86xmD/V4w5gihuHhdk2KJGPQ6HQNAAQCQUju7YttldXd3z5216ky6vEHDem4OMpEp0/zM6mRPj4rk+g/o77Pz14PBmm59RTeOn0lTde8XJHyhIr4mcrn92DGjf163ngWWz+djEFdXVZTFhLxhYC3i+rWrD+nA+k+f1kzK1SuPGJcPAt0Lz6WnAofVaXXPSyBGm6MtNo85S6MFqVSSt0Ki6PsvAACbq9Wxr9xPTsjsZYQlKzOXhcLhXmy2JpuhZHYy4jmfHxVLIfre1jnfnxP8b+u/kwKkBADQd38KO/fXKxa8NHz/QF/uiRuXwoydWjw9BoPNvvZfOC3t0KRu/hvl2crUFVUmIZKICCY7K4eBEgOSKWXgoJnrBn6ZdGP/z0tXLpqglR5a1fOFxskxuTm5xTZs1WbnglgiKf040pG/fbM0WPjx9lOTG+dX3crQ4D/L3QBVu8+gZr8sO3o2o4vT8WBNrff7NnljfqhIpVKNGjHiytWrH44ZbeuyoNelqq5MUPX69G/EjflzzaGEp64CMeln1u68DT4DBzTiAAAQQpEQstWZhTMxKbdDEouu6hEERYLV+sywfyY+NKzofozcmxdCDIIGft5U/vr0Go2+4Dxms8NuPShWBJIkgbFaX7S9Sbo1beJGR1y4nFm4JJN86fx9qNM4wK5yvtgaHkbHs+5tuvvnd4OwmvuRyYU7SRAUQbBW69O1ybzUrWmkc/fB7SQph9fuvG8s/jqrvblh4zmda+8hbcQA+ZVp0KiLVWbozZiCEhD2vn7u7IMLF5PKKgQhdA0auWjOQOecO6GPX/CmPibudkjRZVFj+JVQPd/H37v05rrhYXQc6962e8PCqrtXrOrKQDr1HNSBf+vUP/+eOJ9Tr3dvnzfq+QD169fDIK7equwqMVlr6JwpQXBh8dhxy/44fTMyOibq9rn9K7/8cOYxfbOJ347OP6s49Zo0EmWd2rAuOCYtS5MUeXLdt9vuFf9u6ubpRmZcPHDkXpomLSmjIBXo0K3zNp+/n6JJf3J959ylh9VufYd3sicAqFqBAQrLla0rj0emZGamxFza8u2Gy+aiFZIqTw+B6cahPaHJmoykdG2FM5njP3xCB+65H2evD76frFEnRPyzfOaGEPt3xw/0qqTxqAIPTxUknN9/9qEmNyfl7r8rZ26JKFo1Ye/hYUdHHt1zLT5DnZyabQXD5SW9m3UYuzXmxW9dJpS9Zs7uLg1b9dHYOVv/uRIRHR0VevHQhmkjJ+5IfGfUgs+a57WWqVpNA5Tmy1tXHLubnKlJjr7429z1/xVVJuU7aEwbfuiaad/tu/4gPjEu6vo/u05G03Tcv5t+O3I1MjZNq9em3v3n0OV0gXd9jxd85xHsna1zN52/n6JRJ4TuX7x4b7JLv+Gd5aV/7Ak8aqkgIXjfmQdqbU5yxD8rZvwWznnuJyRh13FgD7vbv647n+vfp09lHUaEKqYKP/t5dUet3en225oN+1ZO/t3EsEAQfEWD9mNXThrXxbPwapZDj+kLw2Yu3j2531aWIMUerUfP/8b160W5+dNJlwFTJpyb+sucIcdY0mXklmOzvQGA23zcRJ8bi4euSzWxBNfBb8CCRTNa5t3HJ2w9ceFH8Qt2fD1sLwOkQNVk8LTvhq2fHV6wPVmXiVM6T1y+YkT35SDssfrSD10reHM16dx3yS/0ymXrvhqyzsgSpNC5Sf+lm6Z0V1bW5R5OwP+++Thq3rZpA/5gCUrq/d7U73+oP32mtqA6gz6e2S90/uZP3t0I/FZzTm7skaPONuWwaRX/PCmGcuvz4x/KbavX7V43c5+eZgGA4LkGDVn03Wfv+xc29IWtv1w8Ln7e9lkf7GGAFKiaDpmxdPjamQWVSboP/HGjeemyXxf97y8jwxKkqPaHG4Z2FRliDnz38yotzQIQlMSj1ehl8/uVeXWgjMrwmbD2c+OmBYN/zjvE/gMW/TizTVl3znMafzR3fOScLVP6/c4SlLRur+krVtSfOiO39LmLCIIG9lHt/TWl1afvutn8FndUwxC+AU3r+QUY9DqDXnf2+MEXWjgpKUmhUHA4Lxro1tyMNI0ehA6OSgm31NOJMWampOs5cpWTpLSVM3p1isYsVDjJhWT2oU87L9RPPbJthLNZk5Ju4CmclaISl6BM2alpWkLm6GT37F1tBZvLMPDkTkW3iVUYY9ZmZGhBqnSU8l7DVXfGoElJ13PlKkdpKUNyWXN2amouZe+klHIJVpd0P5nn5V3O6Dw4depUs2bNFApFmXPQenWaOuvx4blTN8b6T/315w99n72C9ZzKBGDMWnV6lplr7+QozT++tDEzLUNrIcRKZ0WJo1NxjFGTnKbnK11KHuJSZjZoktP1XLnKqbSqKxUdveGD97e7Lf3npz5lNLnffNevX2/WrJmtS1ET5fUYqtVqV1fXCi7Sa9AIAEhLSTIZ9DbpE+NIlK7lP2mAFMhdPeRlTxYpXPN/YLFgxCsAkAIHV4/SFyD4ds4eduVuzr3szZVfVJ7UyVX6cstWZPVCB1dPh7KmErxi+0WIXRt4v/IGKZHCRaRw+XT1kpQRU1d+Mk2wddVQ76euYj2nMgFIntTR7ekqoQRyl5et4eJrFji4lV0bz84sfIGZAQBAd/33vx8o351UVt8HQq8PfhNDpSIdO89Z91Vn+eNdi9Zd0VTzuwpMaY9j7oef3/L1/P265uM/yrtSiVCVeqOuFaM3Cr/u8J8OD7d1KaoAk3Zs7gc/hFoFri3G/rBkaMn79BF6/d76LCZkvVad78LyK+spvqjmIT3Gbr861Aw8IQ8HTyBbeeuzGAiOUIKPuUWvhuIJ34ib7FDN9fZnMXpBJZ4NhKoPgiBe8oYfZGv4zb5myXu+F/EKz2FCbzj8oH1LYRbXLDKZTK1WYxxXPwRBEARhNBp1Op2ty4JeBvZR1Cze3t4hISEmk0kikWAcVzNWqzUlJcXeHh/k9lbCLK5ZHBwcmjdvHhcXl5aWZuuyoErG4XDc3d09PT1tXRD0MjCLaxyZTObv72/rUiCEnoL9xQghZHuYxQghZHuYxQghZHuYxQghZHuYxQghZHuYxQghZHuYxQghZHs4vrhmYVk2NDQ0ISGBx+PhfXfVDMMwFoulTp06vr6+ti4LemGYxTVLbGxsenp6UFAQTb/4z0WjNx5BECEhIZjFbyPM4polNTXV2dlZKpViFldLHA7H0dHR1qVALwOzuGaxWCwURREE8eK/3o3eDiSJF4HeSnjYEELI9jCLEULI9jCLEULI9jCLEULI9jCLEULI9jCLEULI9mwxsIk263Q6kxUonkgi5lNv9s1fLG21Mvk/rEuQFEWRb3Z5EUJvparNYkv2k8iIqPgMvTUv3QhKqPCs7+9X255b8ZXQJiPDFXArrUVPm400JeBRpU5k0iNO//fYWPAnQXJFdo4utet4eyoEFS1BZRcYIVT9VGEW05lRly/fy+G7eDdp4uog5oFVn50Sez867FKmvlU7X0XFisJm3f/vOh3QtaGicrKN1cdeO6fx7tHcpcz1EVxn/xZ15QQwtNmQo06Jiwu9FJ/g27JlXXkFylzZBUYIVUdVlsVszsOw+1kc92Ztm7kJ8r/mC8UyhaM99/zlmLBol46+chLy+gRYgsMp6rpgGauVJiguRQIAnZWYkssorBaLhQSC5HAogrFaGILDoQjGrMvVW0mBRCwotnSJ9QFDW2jIXx+jS0rKZPjF11ey7KRA5qDIj1InF08vr8TQ/25G3rxr3ynAsVgFMlajwWBmOSKxkFO4llIKXFAyq0lvMDGUUCwq1mZmjNlZFoG9lI/JjVBNUlVZzGbFx2WDva+Pq+DpsOM61fN2fBIWF6duIHckgUkJPXEt650OnX3l+fOxuof/nb4nbNYryM3w+Oql8BQjAzlXjj8GIKT1O3T2FSVcPxEpbNyYFxsSozaxAMCRuPk0Dawj5wIAkxl59mK8Y6segU4F4WaOv/5vqNW/W9t3yKSQC7fjdAzArX8SAYBfu827jZ2eG4KkyK2hf3Lq9bgHSQ0cPfkAYE6/dzPsYXquhQUAIPkOXoFB/s4CyC2twPYEnfngZkhMSo6JAQAguHaeAUEBHmISgNU9vnEuPFPaoGOnBjLsmEao5qiiLGaNmRo9iOooxSUDhq90lBHpmRod6ygtN34IkUfTDvzwczfSXYI6NJATBMnhEWABYI1xYXddfIO6tbDnM7nJUbdCIq6HiTo1c+GVWyiC7+zfriXvv8ux0sAuAU4EQXAq2qnLdXRWUPHpGZm0pzMFwBVIlV5NfZzkUhHHoom5ee1+WLSLUyNlqQUGIAUShWcjb5XCTsyls2NvX424E6lybu7KBYIrEvMpnURcfskRQtVNVbWLTSYzSwiEglImEQIhn2CzjEYWys9iIDk8PpciCILi8QVPXTojHes19lLwAADsPBo2ykz7L/ZxktGldmnbK7ZliifgcQgAkvvM+p6LFAp5BG0yWgEoAELqXk+aP4Wj9K6liA7NyTaySlHpBSaEzt7eBbPL33lHdT81M1vHutoTwHNp0qPPixQEIVQtVFUWEwAALMuWNo1lAYhXerA5KbEvNhKDkjsqOI/Ss7UMlJ/FryJvV4oKzZh12VnZuUaz1WrRGFigmFL3tXBxqz47MzvXYLJYrdm5LDAMw+bXEkKoBqqiLCb4Qj7B6g1GFkTPBg5rNBhZEAgFZSVRuaGWh6KKD0kjuFwO0FbrSxa2Iiw6nYnlqUQcAGANyXdvhD3KAoncTiLgcSmjFdjSh8gBAIA54/6tW9HpVqG9vVTI55GRDhwAACAASURBVHIslgrsIUKoWquqdjFfrpBARnqalnWwezpzWUN6Wg4rekdRFNJPR5Pl+aHKWiyWYn8yJpMFONz8ljLx9Brz5n21FihrSE5QMzxnR3sSwJx45/ZDnVOTrk09RCQAgDX+WnyGqaxl6bTIm1EaiV/HVt4yCgCASQ1JSc14pfIghN52VTVyipB5eDqQOY8j43RM8ddZY/K9B2qwq1VLnlcUDocCi8lcOBNrUKt1xaKUIAhgn/3+z+o0GmPha1Z1qpqm7OQyEoCgOBRYTeaiOLdkqrXFikAQRJmdJ2WwaKJvRaYxMi9vFReA1eVoraSDi4sovy7p7OycsgvMGnO0JkLm4iqlCsqenV38g6RC3wMQQtVMlY0vJiReAX6p/4WHXbqcXdfL1UHCIyz6zJTYmIepVqVfC+/8EVykzMGB8zgpKspZWEfBZ/Tq2LsPsoo1YgmRRATGtCfx2RJnPsNyRHk9wqwmJiRa6Ocp59M5iZFhcSbRO3VceABASBwcBExczN14aQOVEIxZ8fei0uiiFRJCsZiiM57EauTuIpalRIJS7gBk9JrUFIZgaYtRl5WRmJCcRUtqNWle357KW4OIYtTxsWpFLTvSqEm4Hx5vJgl+WQXmS8RcNjkxNt3Z24FryU6OiXikI6Fg3IQp8eaZ2xmKgA5BnkLsPUao5qjC++5IWZ2W7UUxkVGxd689yvuxNYpvr6ob5FvPRVLYvcp39w/U3Ax7eO1MDADBETt5Nw4Q3Q4raDkSolp+DZKvR90OjgdCVKdt10ZSACCV9XzsMsLO3TMwACRfXiuwiX/+XRiUk09gPV3og1vnYgGAEipr+zfxirqVWbA9rouPn8vViPDzJ8KBcm/Rq5lria8KrCXt3rU0AILkcPkimYO7v59XLSdxQZEF7v4NM25E3L1wIgKAEjrWadzK9+Gl+DILrGoQUFsbFnP5ZDQAwZfXbtSqcfKle/mbok0mK202GF9nXzdC6M1D+AY0recXYNDrDHrd2eMHX2jhpKQkhULx4r+cxliNRhMNFE9Q1lMaWNpkMNJkWTOwVpPBRFMCIZ8izHGX/w2l/bq2rSNkTAYjTfKFAk6JJiVtNhgtwBUIS33uRP7m+AIB52U7bRiLwWBmOQJhqQ87Kl7g/BeMehNDlSwra87NMfNkEt7raRVfvHjRwcHBy8vrtawdvQEiIyObNm1q61LURFarFQDUarWrq2sFF+k1aAQApKUkmQx6m/wAJckRiMrfMEHxReJyJnP4T6+Afd5CFE9Yzv0Tz9lcRZBcobjsBxyVKDDBEYhLrQKCJ7HDGz0QqnHwqQcIIWR7mMUIIWR7NumjqFQ896CeLkCV7CJGCKG3xtufxUBW+Ik+CCH0hsIUQwgh28Msrlm4XC5N07YuBXqNGIZ5/kzozYNZXLOoVKqUlBSdTmfrgqDXIicnJz093dalQC+jGvQXoxdQu3bt7OzsK1eu8Hg4irkaMpvN3oXPxkZvFczimoUgiMaNG3t5eWVnZ+OX2WqGoii5XC4Wv+JtS8g2MItrIplMJpPJbF0KhFAR7C9GCCHbwyxGCCHbwyxGCCHbwyxGCCHbwyxGCCHbwyxGCCHbwyxGCCHbwyxGCCHbwyxGCCHbe9X77liWrZRyIITQW+0Vw/CVspimacxihBCCgix+6WfSvlIWW61WvV7PsixJkgBAEPg7RwihGodlWYZh9Ho9AFgslpdbCfYXI4SQ7b1Su9jJySk9PV2v11MUVVkFQgihtw5N03m9EyqV6uXW8EpZLBaL8WGpCCH06rCPAiGEbA+zGCGEbA+zGCGEbA+zGCGEbA+zGCGEbA+zGCGEbA+zGCGEbA+zGCGEbA+zGCGEbA+zGCGEbA+zGCGEbA+zGCGEbA+zGCGEbO8VntPGWgy5RgtQArGIVzLSaWOu3sISXJFEgM/TRAih8r18u5hJ3Tu+bcvmLTtPO55V4neW6OiNI1q0aBnUffGll3zIPUII1SCv1kdBShVy86XDp9OfCWNLxKGjD+2UDvibSwghVBGv2F8sbNG5FefmkX8TmeKvGm4eOpbasGt7ZYm1M0ZNQsz9B4nZ5men0Pr02Pt3I6OfZBjoirwOAIw5J/VxzIO4DH3JH/tjDeon96MeJGmtAMCY9VqD9anPC6s25XF0dGx6yUXNWQkxkXcjHyblYIseIVRVXul3PYA1C1v163x25qHjsSPGexX0C+f+d/CUNmhSJ8X2/cXmZdTXNs5f9Nu5WC3NEhy5T68vl8wd4iMCADrx9PKvFu+5lWZiAYDgKfxGrtgyrbWkrNcBmOQTS2f9cDAkUUezAITApc34Zas+aSbLa4cb7v8xb8aKfx7lMizBc2w6/Ovh9MpvYscH//K+nAAA44PDy+es/Ds0zcwSpNC15ei5iye1V1EArDZ8x9yvfz7zWEuzAAQldus8Y+PaIbVfqYoQQqgCXrFdbLXwW/bv7nD/yNGoggYmqwk+cI5p37+zffHfpqYf75r65fqH/rP+OBcWdu30+g9Ewd99/sPlXADQnl4x5w9N+6XHroRE3Lx46q+fpozq7Ccu+3UAIB3cfNt8svLPU5duhV//Z91A6fX1S3fG5G1Od+XHSYvOUO8t3fffrZtXDi7p9GTF138kFpYu59L3n8z5l/v+6hPXQsMu7pkbGP/btJm7n9AAdPSOb5dfU43ffib0zu0bwQe2Lfj4/SCPV6sfhBCqkFfMYpZlBc369nSNO3YoNK/bgUk9deiysMuA9jJg2cJuAcvtP7aGiPrMmjvIXyngStzbTpg+0DXl+J7zWmD0Go2RVNTxrW3H44ocPP07DO4TaEeU+ToAAPD9B4wf0s7Xw0HAk3h2HNnHFx7fizEBAJt9/vcjSW6Dv/mmTwOlUCiv3fqjRZ+35hcUhEk7tvVwWsNxiye2ryXlChx83p81vg0dsudwDA1MpiaLFbv51HUScvgyVd2g9wZ3ro1jQBBCVeHV+igAAIDbsE8fr117D9+Y0rSNkI4/dihE8e6ElkK4WzQLnRB2J42VmO8f2hWf/5IujQOGuMdJNFm38/Ae26atGD4kcsTY4QO6Baj4AABAOpb+egGz+lFERExiRnZubnpYJsvKLVYWgH4Yfk8vbtqyoaBgPsKuURMv6lLeH5Z7IREWkW/q+T9+z/8UYuINAibhcZwFGjQeMLTR0bVfDEoZ8uGoob1beUkxiBFCVaQSshgo7z69fTZtOXRxepsuSUcP3XPvPSeQB09dKtPm5LKQHXXxZGrR0ApF02auKj4AqXp3yR7Ptjs27fhj9vANi+t3/3jWrLFBCqqs1wHMj48snLHsYKygbsMGno52YtAYC1bK6nNzQSqTFYtRUiqVFDT/zTlaM2tJvH3q5L2iGeo2bVJbBgAC//HbDjT869ctu1Z9tnOFc8shk+dMeq+OABBC6HWrjCwGyvO9vk3WrT50LlVx7+iTugP71qcArMXnkEjFBOX24U+/DCp1nBtp59P7i1W9J2TcOfrLshUrP58u+Pu3kR5k6a+7Jf05f/7fur4bTszpoKAAgEncMfJERN6aCJFUArlabbFxHazRaGLzd5QnlfAIeZdZW2cGlrrnfNdWo+e1Gjk19sIfq75bP2ucWX52bqvKqCKEECpP5dwDTTp379+K/e/PJRuPpwf0e69ELyvlERioosNOnU9jSl0+H1fZaMDsxWMamCJCo61lvk7H3n9okQd1a63I34zu/r0nBdfmqDr+PqLc29ciTIVL6+6FPyqYzPVt2pCbfPFsuBHKQUpqdxz3/cxuorQ74RXYe4QQelWV9DwKwqFL33a8sNMXdEH9e7iUXCk3cOSE1pyLy75cuOdqdGJqSsKjsPP71m+/lMECq76w9ZcDF8MfJWfrcjMenNsfHEvVqf8OVdbrQLrVdiMzrx44fDdNq02PDt44Y+VFE5Hf3CbsOgzv45r416JFB8ISNJqUmMvb5q4O1hd0mJCq3uOH1E7YOW3aLyfvxCanpjy5f+P4tnUH7tMAdOSBtdtP3oiKV+fqsxNvHzh822DnXbdy6gchhMpVKX0UAEDI2vXt6nDyTFD/rqX2QlDug1dsJlb+sHH5+D/n0ywQlMil8QdzhgEAQcef+PHHnzMtLABBClWBAxbOH+VFgaaM16H20G8m356xds6Q418DKXTvMPG7NQHffxKWvyVxq+k/LzR+s2L+iL0WIAUurUZ/+XHTeRsKCiIJmvbrGumyn3ZPHfazhQUgeA51209sBQBA5oRtW7xpqYFmAQiOnXfHz1fO6FBJ9YMQQuUhfAOa1vMLMOh1Br3u7PGDr3t7rFWnSc/UsUKFk0Jc9EHAmHLS07NMIJCrHKVc4rmvA7CmrJS0HEKmUtnxSwt/WpeRkmkVK53seem7//fu95LFV9b2FhdNZ0w5GenZZq7M0dGOX9SQt+oy0jU6K0fq6OSADzVCCL1OvQaNAIC0lCSTQV9Z7eKKIjhihYtY8ezLJF+mcpeVnL2s1wEIvr2Lh33ZG6LESjcxAACbFXozhlX1d396SBzJlzmVsmaOWOkiVpa/DwghVNmqOotfP2vY9oVHLYEtGnq52Aus6RHHN/10wugzqZ9/9dtVhFC1Uf0CirBX8h5sWrNvTbrBygIlcfHvMHnt9I/qVb89RQhVH9UvoahaveZs7TUHaIvBZKX4Ah6FT+5ECL3pql8WF6C4QhHX1oVACKEKwd+7Qwgh28MsRggh28MsRggh23ul/mKdTpeenk5RFEXhbREIoZqLpmmapgHA0dFRLBY/d/6SsF2MEEK290rt4tTUVJlMJhKJSJIEAILA0WMIoRqHZVmGYQwGAwCkpaW98847L7GSV8piLpcrFot5PN6rrAQhhKqBvMaoXq9/ucVfKYspisK2MEIIQUEWv/TFM+wvRggh23vV++6wXYwQQvDKYYjtYoQQsj3MYoQQsj3MYoQQsj3MYoQQsj3MYoQQsj3MYoQQsj3MYoQQsj3MYoQQsr0qyuJr165VzYYQQqgSVVl2Vd3v3eEzjhFCqCzYR4EQQraHWYwQQraHWYwQQraHWYwQQraHWYwQQraHWYwQQraHWYwQQraHWYwQQraHWYwQQrZn0yxmLQatNkerzdFqcw1mmq3SjRseXTh87mFu1W60mjCeXzSg/6R9iUyJKZbrKwf1/Wz7AxoAgFGHHD9+O42u8vIh9PapunugS2JS945/97vrlry/CEqorNOky7DPJw5tLH/9HxHmq5tnfvVvk2UX1vWXvvaNVTesLi32cUqWueQHGavPeBKboDEBANBxB5fOWp3zocexqQ3x/neEymfLLM4rQP0RS7/p5ghWvTru/+zdZVwVWR8H8DO3+9INFi2KiohgYgciKu6uPnaundid2F27dqyxrt3dHaioICLdcInbMTPPCxruBcwx/t/PvnicO3HOmTO/e+6ZGZ6w8/v3LxwSoTi4d4jT1754WY2HLV/RwcZf8JWP8wujOwTNWG5DNnCHIAagUpTPF2NCB0/vRt4+fi06/TFu7eZRntpXx89F4gghhKvlUpmq5C9cUqeUSpXaguEYrpLJVThCiFBmxka+iYzPUpUcqBEaRcG6urzkqIiI6FRZyX2xbBq09LLlYkU7VmgIhBAuS/vw9m1UUq62fFlxRfqHyMgPaXI8v3SlC1cGqcpOjI6MjEnJURGll0vi3kW8i89UlN4YV8ulKh1CiFBkfIh4G5UiLfycVGbFRr59l5Cj0Vc7UiWJK/2pJifh3ZvIuExV+WErrspO/hAVnZitLvlZ0aGROjv+3duI2Axl+dmHgt3G6NutAZjYpUlTF2Pso46SmxwdGZUgKXUUUhr/KjxRrmd1AH4WlI+LS6Fb1ajBQzezsgmE6LqXq7v1P9V4y60FTZj5H5M5J8e3mqucdGl3Hxsa0txe4B+imLjS7fqSv28nKgkSowlrBUxbs7hbTRZCCI/fO6jHSZ8lg3N2hB5/k60jEcaybDRo2arRviYYQrqX64P7nGq07dr8pkxE5p0Z57/Oau5MwbHF+5+kq0mEMYzr/D5v3bQ2NvmDOjL36fbpU7bcSlSRGMaxaTJkboe4KcuwpbeXtmKVq4Ym4eLa+cv/fZQkx0mEYdw6kw7tH+pER7rka+vnLNr/MFlFkAjjWjcMnjg3pHMNNkL55Rnwuufatq9C11yJUxAkxrJqMnrtAu+XoTPWXYmVEyRGN6k3YNmmiX6mWGHtGi8dnLV18Yl3eTiJ0U3qDVy2ukv6hqnLT0bm4iRGFzr1WLBpXvv8GuDRx2ZN23ApPF1FkAij8au1mbA2tJcbp+jQwWvavl21/lK0FCcRxrVvOW7VsgEe/PwcVcecXhgSeuxtDk5idKFz0KROGBOr9GySeWfGtZgnn3R2X19bWuVHIaXhBxfM3XwuIltHYnRh9VbDFiwa1MAIQ0h7f/n/hv+rab/u6sr28DsG/KQoHxeXool++VpOd6hhX9Vftcqby+Y9qD3t4O3HT59e2TXBU3J20dLjaUXjJzx679zt6p6bz98Le3r7zIquorC/Z217pmfEixAiMo4vWBXTcsnpO09ePDi/rb/Dh0PzVl+TIoQQIjMvLBy7/pl57/Xn7z19dvPgDPeHMxaczzNQpifrRk4+kOA+YuOJy9eunz6wbdH4DjXpCKnCNo4avz/dZ+b+aw+fPrtxZHFr5fHpfy65k1c0AtQ+3zT7UvVpR24+f3rr2Ozm6P66P4MnnDIbeeD6o7D7Z9b2MA7fvWRXeNFwGo/eO28/a8i+64/C7p1aFSQO3zkpeOhOXa8tVx88fXJp66Aaif8t3nJHmb8yzdzOs834zSev3H/x/N7pxf741ZXLT6QSxYfePOOk8Z87Lz959vjOkTktiVur5u3PvwOH1C82jpt9Quo359DNsLBHN3b0Rwe2XVF8yk3PCo5CpJ2dMWLZI6uhu688Dn96df8Ih7C14+aczSARQjRTe3uBwLaaRfmvPQB+FpRnMZH74cmdO3du3bxyYvfSYaN3Jjj2mRhsX9VikYRj7zmj/Z3MeByBjfegPwOsNeHP3+qKPib5rSbO7tnAVsTlmjh1HNuvIT31xYtkAzML9IZDFg7wrWbM5YgcWowc7M/Pexn2QYcQIpLPHbya4zpw4YRWNY04PDPnNmPmD3LD9KYRmXt9z9E48x7zlw9q7mpraVPLs0VHH3s6QtKbuw9FWwTPntvD00bI4Vu4d566eIhL2vHtZ1KKEpGw6RYyyr+mCZdrWrvn4AB7JGX7Twnp5GbO44prtBsa7ElLCn8jKTwuSQrbjJ3cydWMxzWq1XFoDw+6VNtg1OxgT2shR2jXdHgfX1bOm9eJ+bXFRI3+GN7Vx9laxGGLnTr3bm+nexfxobglCIugaSFdalsKODxzjx5jerqS0S9eyUiEkOrR0f9iBO0nzf69jhmXxbPw6DprYnvjKp6gMgweBY8+tvuautmEhf28rXlMrmWDviH93fOuH72cQiBEdxn2z/0nx8bUhywGPy/K5yjwqMMzhh5GCCGEsd16rzwxsXU1bpW3ppl5ehYPojEjEyNMrSgxDclw9qzDK/pYYGrMQhlyhf590avXq2tc9MubaWwqwhQKJYkQ0r17FYnbBPvUKDoS3bZBfUvaB331iX71RsFv2Kx+mUrool6EywUN/epyig9Yo4mv3YaDz8M1vW3yl3Jc6zgWnRGRsQiji92dCwOIJjIW0chshYpEKL+YDCcP98LdYWJjEUav7u7ML6wCx0jMQR8UqqLjkcq0d6/efEjOypPJEiKUpFarLf46Ydeu714UdTRjU2MaoVAoSSQmkt5G5tI9/LyFRW3DrVvfjXE6V38zVsjQUUR5L8OiSaFl3LmD+wsOo4sn6XjchwQC2VA+YADg66M8i5kNQk7s7G1NU4Wt7DXsv3fJ5EeNfTC+gF9y4hLDyn3Ow0p/bPC3ddl1EUIFa6tlMg0mFItKfioQCfXOmJJyqQwJxaKysyykXCpDAqGw1HKRWIBpZTI1iTgIIYSxebzS22EsNtvwxCzG5XNLfYqx2KzSq5NkwdFfH5g9bc3VDGPXOs62JiKeOltTaj2Mw+cbmBhSyBQks7q4RDtjfLGQhj4hiw0ehZTlykhSEXf/spxZtJBbt6GHLb/yeWkAfgaUZzGiMZhsNpvGbjRyUqeL47csPdlmS3frgpEQVhQmCCGESLlUTn7stMoXuJbZAgGLjM6VloxxtUqld12MJ+AjaW6erkzbYiKxCOVl55RcTmZLckl2dSNOYRk/vqxV2wJ/s2Pm0uvcIXsuj68nxBBC+OvVYdcPVW1HPAEP00rzlCQqynm1ouoPU1SpuBhfxMdo9kFLdg6pCU/AgV/S9/PzDzP2HzumCXl73ZrL+TOiGJfHRUpJVtFdIjI37EmUroJdfC0M5zou9OTHj+KKpleJzPDwFL2PWNFrebhx5Y9vPpWX2YeTt5eR4smtJ8XLte9u3U1m1fWqzURfmTL6XTxp17RdnYKxPCl5+0Z/8cuj27m7GuHh9x4Xv6KoDH8R8WXPAyb2bOCIoq5fizMwl08SBLwhCX5q308WI0Sz7jZ5SB3pheXr70tJhOjVvDzNNPd2rTz7OiVbkvLu9o7Zm+9qqPjJSrPp1LuN+O3OmasvvUmVZCW/vbJl9rZn+rMMM2rVv4dDxrF5k7ddC49LSvzw6ubxEw8yCMRrMnhwfdnJhdN333ufJsmMe/rv/Jm7Yux7Dulo8dVPAse+miVKvH706vssaV5K+PmVITteMarakmzvnj0dZReWz9n3MC5TkhHz+MiClReyv8TvjRLojj2HdzZ+tXHc9D233sanpSXHvL5zcse2Swk4Qgh/vbFHY+9ua56ov+gxAfiefE9ZjBDD8X/TeldPPR66NUyFENdv7KKh9WWnp/3esknzVn/Mu2E3dmnvalT8hMXM2s/ZHOIrOzq5e6tmTdoPWBnpM7q3o4GS8BpN3LpmgFPcrvHBHdu1Dug1as3VRA1CiOHYf91fE+on7xwV4N+sSaeBoc+s+q/9a6qP4Ot/vTDqDZ49rF7ufxO6+vn4tR78V3rnlSuDrKt67tl1Rq1f1ssybOWgTk2a+geGnDMZtXyI6xc+D5hpmwU7lvWyebNxVM+2/q38A/4YteZivAbDEEKELDNbqUhPy4W/bAF+Xpi7p5dzbU+lQq5UyK+dO/FRGycnJ5uamjIYlU86P3z40M/P75NKSKpz09LzMJGFhbiC21jfhk6anpZLiiwshPTIjcHBh+puvT6/qaEZBlwpSc+SIZ65hQm3ZHDhqtzMLDldbGEm+Laz9bhSkpouZ5pYWQg/ZVaEUEpSMxQsM2sz3tf8PsSV2emZMoJjZGEmLHqhRJn2Lp60d7biUt0DwC/n3r17Pj4+VVlTp9MhhLKysmxsbKq4887B/0MIpacmq5UK6u/dVQZji63sxVSXIh9DaGErRAghIuXZs3hkG2BXwdiSzjWxtjPRs5wjtrSlokJ0roltNT0FqiIa18TG4dM3ryo619javuzjy1xLZ5evfmQAqPT9Z/F3QX1vy6y7/GbebtUtRQxVyrPjm9c+ZvvO7egAN/0BAF8CZHGV0E1NyJf7Qg/GS1Q4iTFFDvU6TN8a0gPeQgAAfBmQxVXCcPl95b7fEYmrVWqCweEyIYQBAF8SZPHHwOhsLq/y1QAA4CPB+A4AAKgHWQwAANSDLAYAAOpBFgMAAPUgiwEAgHqQxQAAQD3IYgAAoB5kMQAAUA+yGAAAqAdZDAAA1IMsBgAA6kEWAwAA9SCLAQCAepDFAABAPchiAACgHmQxAABQD7IYAACoB1kMAADUgywGAADqQRYDAAD1IIsBAIB6kMUAAEA9yGIAAKAeZDEAAFAPshgAAKgHWQwAANSDLAYAAOpBFgMAAPW+jywmtUqpVKlDSHplTlDQ5JPpBNUlKoHQKKQyFf5J2+JvdwwN6Lc5TFfhWjqVVKrQfk91/qpIrVIqleaV+E9f8xY2O5F0dGJQ4KKbSgN7U364depGtIz8yEKUb/OiTghKUkWfDh3ZrX2r5m0D/7fmvryiVbXJD89cfJ1d3KgfsW0VlTvET+S7yGLl3cXtm/bfEY2ThCw1NjYlT0t1iYqR2ecm+rccfTzjk04/qZIkxsRnqSpKCvz1xt98u61+9h1V+ovC5ZmZ0hIRh8ftGdjYp7F38X++rRbe0ZTeqLjZSW1OckxsmqGw1Tz4e+qUCauvyD6uTOXbvKgTftSOfnbaF1vGTzuS6NRn6pyJ/YKb1OJWsK7u9b65MyYtOZlIfPy2VVT2ED8VBtUFQAhJ75y6muM+MMCRjj7uivoGiIwrp+4SPrPbWX6tby1N2Mnz8bYdFjZgf6UDUEz1YEXPdTbbDw6rRc9fQGZn59JqBC2Y3M4CK1iHaV2ndEcs2exxFe6e1XjY8hUdbPwFH1MmPW1eohOCInj8vbvxzCaLZ/VtL6p0ZYZH3wWh9QW+9rSP37aKyhzi50J9FpPZN0/eVNQb28Gh+CrAEMIVGYlJ2YTQ2sFKWO7ywBXp8YlZOM/SztaEg5VYrpKpEJfPoePS5JjEXJpptWoWPDpCCOHytLhECS60q2EjLFtnnTQ1ISUPM7azN+eVORSRfOHUU0bTRa3FGrlUQ+MKuSU3xlUyhYZEGKKxeHx2iU1JrVKmIlh8frmSE1qFXEUweQJOwUfKR6cvpNYI7uLBLN6tNDkmMQczcahuKaDjSpmKxuWz6QgRGoVcjZUqA66UKQgmn88u0TdxRWZSUoaKZWJtYyks2qtOmhKfIFEzxVb2NsacyroyoZIkxKfKSK6prb2VoAqdxFCZSenDi7czdUEyqTSPjhgcPo9J5GbnYDb127RsYYoZ2FtRs5tgKH8ERMMwRKolifEZGr51NRtRcZFYNg1amtO5+bsidUqZhs7nsWi4LC0uQYKLbKrbiplldl++zfV1Qm1OQkyynGlRvZoZByvaL0K4Wq7Q0ovPYP5RrbIrTAAAIABJREFUlYgj4DJLVEgnS0tMytHxTK2tzfiFxa3oLGjzUhJS8kiBuY2VCbdEx9HkJMalKhjG1vaWJbsuoVHIcaaAy8R0eckxyXk0I7vqVgJ6UXkIQ32Srf/k4yqZEnEFHDqpyoqPT9WIazha8ogcSS7iu3B1Uqm0bCcvj2bm0cyXVnAqUBW21eQkxiXnatnGdg42ImZRW6ppfD6bpslJiE2SMy2rVzMrbqnSh6ioqRFCmtzkhFQ5y9zerlRKVAGpksTHp6s5Zna2Zh+14Wdx9/QK6j2ofdDvzdsF6D5SfHy8XC5XV8GtW7cM7EObfHBQnfpDD6dqdTqdNuvoII86fTacWDXQ38PVtZazi2Nt3+AFF+PVRevLIo/PC25Sx9HZpZazq3ODdoNWXk0o/FRxZUr9+qP3X9vUv0Xd/BU82oz7523C7bUDm9V1reXsUsulTpOB257maov2FnFsbnDTOo7OLrVc3Dz8By6/lqQuUTj1u81dPXwnXc7VZpz408u9VehTVfGHmui/f3et3W32rE4u9YYdTtMWfyK9PtXP3XvSxRyd6vHSti5N595R5u8u6cL0DrUbD9z5Wla4avaFSb5uPbZFFRxVnXR1ea+mBbXzaDtm181dA+q2WfRYpdPp1O+2BrnXHXYit/hAiisTvWp3WP2ysMx5r4/MDG7m6eTiUsvZxdG14aDDSRqdThZ5dEpQYxcXl1r51WzWd3OY0uBJ1abfXje4haebo7NLLWcXR3fv9tPPpmgMrl5RmdVhG4IbO+cf19mllrPH77viNLrso8Pq1p1wQV7BHgubXafT6dTvtwZ71B297fCMrvXdXGs5uzi6N+4660RUwfaqx0vbuvjOvKHU6fL7T91mM/67sOR/zdzzG8G9cbf5F+JLntSyba4r0wl1Op0i+tSs7vkld3X2Cpxy9Mq67p7dtkapdTqd6vHCVu7eM24Wt6A24/DgOq69d8cXtJI268nOcV19XQsa3N0n5GJ2hWdBnXxr7fCO+bWr5ezq1m7pA4VOp9Np0u9vGtHB062g6/r0mLbvZU5BEdXvtwZ7dlxx9ujM7g3dC1bw67vmdrpWp1O/WFVBn9RPcWVKfa9J52JvhPZq4uLi4txiwbkz87oX9qVazi7ObZc9URnYuLhItd1HnMzTaZLPVbKtNvv5jtEd6xVW2bl+6z//ea8uOINNpx+7HPqHr4uLSy1nV6f6HUbuep6tLXOIippap9Nmh+2d0DW/tV2dvTr8ue1RplZXJar4S8sHNK/rVtCfW/S5detWVSJOrVbL5XK5XB4fH1+1I+l0Ol37oN/bB/1ev3Ezd08vqsfFRNKF008ZTRa2Lh4jaZ/v3MwbueDk8nqW9IyHf0+buHvu6kaNVrYRIkTm3lo6bOZFk95Ljw9uVp2TF3Fhw8ylE0dguw6Nq8vJ31p5K3SRZvSSU2s8jRXhB6aN3bhowCMzp55zji5rbI1iziwatWDj0iNtDwx0oCMy786y4bMu2QxZd3Ggr6X2/dnQCXMmTTU7uqNftfyvcDzi9NlIk7aTfPkYp2W3luIxF88+G+vZiJX/YdzF869p9SYP6qN8eXzrmSvp3X4vmMeQ3T97LdusXdcmpX43k5I7K0aEXDYevm1NX5eCwpLZN0/cUNQb2yH/gHjMgUmTd8c1nLDv0O+eRsqYW9tnT137VmvuWKWmJLOvLRo+95IgMGTXoJbV2XlJUXFYbXMakXp88cJztN7bLgz3sUQ5Se+fP06zdyw7VCyifbxl+rb3dWcdPhzoxFdmxL55/IbmaWp4HF1RmenOfTYfNp3VZX5Kvz1b+1SnY0yBMY1IkuSSHEb8rQunpSpMYFGzbn03q1IDneJmL6qa8tpfe4Nm7LzSylGgeH9x3ZSFs0bxbY+F1OeULxCRcXzBqqajl5xeW9R/5q1u5LOyrVBvmyNUrhOqX20aN/Ooqu28w1MDnbm57y6umzVt2wfcpV2VTgORfCxk5Mrn1Xot2veHjw09Jy4yReAtIFIPGToLunc7xo3bnOw5fNXSbp6meEbM2xyLOiyE8A97xo3ekNo4ZPuWoLqmuuRHBxbNXjhcJji6uktBR8Oj987d3n7S5vPt3Ux0idfXT5j596xtfheme7l26eK6swp9sgzli81jnrO9xvw9y8uKLbCyZDao33TD/8Ze8V5xdJIXk841qmpa0Eybjd7sWcG2+Lu9c1c8tBy7Z3vfukbarPiIp2Eyd3s6QiRCiMg8sWB164lrL26qbaKNubpxxuzl4xba/LestXGZwa3+pkaISDs7Y8Syl3Un7t7Ys56R9NXh+WNXjZtjeWxdgHllw2NV2MZR4/fjnWfuH9PORaz8cGP7/CrW+fNRPO+Cx547+ZLnH9jcqEQjYQ0GLxjgW82YyxE5tBg52J+f9/L5Bx1CiEg7u+tMqvOAJSEd3Mz5XKF1/Z5z5vc0f/fPrmt5hbd2SMKt94xBPnYiDt+qYf+B/mKt1Lz79FH+NU24XBP37oMDq+ER4ZFahBCRfnbXqfQ6QxeNbl5NyOSYuHWfNqwJ/vzIqaiC2zeaF6fOxVl36OLNQQgJ/ILamqddOf1IVVDy6AvnIliNu3awq9kpqB759Myl5Pxf06T0ztlbeXadgrwLgwJDiJQ+3Th6/H+0P9ZuGOEpKKwrmXHl9F3cO7CdDQ0hhPA3J448I3xGz+vvbcVjcUxd2k2cEWRd1XtJRPLp3eczHAesmP9H41pWVnbOXv5tG1jQEJmXmY2zrJxdbQVMlsC8Rr12v7V305NhBXTZWblIVMO9phmHyTW2cWvStYevVQVRXGGZWUITUyELIQbP2MzMzMxUzKEhkmSx2Dm3/pq/avPmdUsmD/utVZvei6+lFFezVLMXEredMK1rHUshl29Zp/vMqZ2MYo8fuWfg0Qp6wyELy/SfsA+FNw/LtDlC5Tqh6tG/R6MFHSbN7ulhymHxLD26zRzfWkhU8UEN/O3RvXdUXuNWTg1qUMPaysHNp22r2iLM8FlQPzq4L5zVduqKse08HCyta3j4dWrqyEZI8+SfPWGs9iEL+/nYi7k801otR4eO8VVc/+vfd4VtRZL8VhNn92xgK+JyTZw6ju3XkJ764kUyjujVK+uT+suenOs+Y9vMYD+XGjWrm/O4RmamYg4NwzgiMzMzM2N+1Qdu9Eq2JbIlOSTf1s3JgstgiyydGnXq2ap68RwGy3fY3F5edmIOz8yty7QZwdaZlw5fzSx7Bgw0NcKjj+2+pm42YWE/b2sek2vZoG9If/e860cvp1R6x096c/ehaIvg2XN7eNoIOXwL985TF1e50p+L2izGI06fjTRuHehX8tuaXr1e3eJvQKaxqQhTKJQkQkj3NuyN1tancY3is8bxbOotUrx6FlnYP2lmtWsXZQddZCTAuC7uRRtgYiMjGqFSahBC2rfPw7U8VtrNg//sP/DP/gP/HDgbpeQQiTHx+XfXlY9PnU+t1jmgbv4YktswsJNt1tWzD+T5JT93PorfrFtrU4xm07GrD/3l2fNxOEKIzL115o68VkCXuoVDT4yBEo6EjPk7q23olpDGJb50iKQLp58wmnRpY4YhhBCZG/E2CXNs7GNWdFKYbl4eRYPDSmgjX0bi1r5NncpcMfRaXXr5Mq/P6d5/3s6rkZLKntni+P72W82Evwf/PmbtsUeJikoS6BPKTHfo8/eN508f3Ll8/sr1e4+vbh/pnHBg6pwjSQUXSplmz8dwquNefBueV6+hG10a+SZe7/eU4f6DyrU5QuU6IZ70NiKHXtu3YdFXJuJ5NnCrYg6RuW/C4zGnpk3KfH8ZPAt4YvhrCb1Oc1+j0kM2POnlqwy6h18jYdFymrlvE1cs9vnL7MKzwnD2rMMr/BgTmBqzkEquQAhV1if1o5m26NLEqKozq5rshPdR+d7HpFXWU0pj1uv2R13p8THBfy45eOeDtMx5pFfzcBcVFYNT168+TxMVEV2m6xpqajLvZVg0KSTjzh3Mv673H7odT9LxuA8JZbIYz0uOLqhBVHSKlEC6qBfhckFDv7rFX1n0Gh9Tr89CaRZrXpw6F2fVvkujUt/WGF/AKzlKRgjl/3ZBaqlUgwnEopK9hSYUCZFcKi9sZozH55XqTRiLxSrbvUiEENLkSTWkNunZ5UuXLub/d+UtcvJqUD3/rq/s7qmr2c6dA1wKc5xZp2tAzdwbZ25LSaQLP3cpzrh11xZiDCHMtHVgc17EmfPROCKzrp+9p/boWuJ+PJF1dtmGpwoyOyY6s+STW3js+ZMveS26NC8IDlIhk5M0kVhY4pzQBSJBRdcGWXwFaGRyDSYyEpVbnV79t40n987sLArbNqFHi9b/m33kdZ7hCwcTNZ524N/1gz0kpxf36+jfcdTG68mGn7b7lDIjxOAU3cdhWzYeMfWPWqqn1x/lkgjpafb8UvF4Jc4qxhPw6Ugh03/9G+4/5dsc6emECpmCZIrE/BLH45eqYEVIuVRO0kRiUdn1DZ4FebnD5ZNK5SRTKC5VFaFYiBFyqayos5epKlZU0Ur6pH6YsMr1RAhPPDyxR0DXoICuQQFBfdc9+7gHszkew3Yf3zaxCXFjzcjOLTsOXHYuWlVcDg6HXaJadIGIjxTysmfbUFOTslwZSSri7l8uvK4vXYvl1m3oYVumjcncS7N7BBVUIXjxdTki5VIZEgjLPyzwTVA5X6x8fOpCqn1QgCerihuwxWIO+U6SU/Kk4NnZuUhkVK7vV44lFLAw49bTdk2tX74VyJybJ2/I64zqVLP4vNCdArp4/P3XmZs5/lbnLyRZdZzvkz8owcQturUSjz5/PmKoOPzcI8IrpLN9idOJ1ei7dW2LO2MGbJ66yvPADJ/8kQ4ecfpMpFGrCU2FhavxBHyMkObJCGRauDWhkMvLBk6Jf6tlMk3hP1l8PpPMy8nVl090s/rBUzf1GJv8+L8NS1cv/FMqPLmmo4mhwMT4NdoMW9xm8JTIy7uXLftr7Ch06N/RtfX2lKqWuSI0M0tzOqFSakiEkJ5mRwghQiaVEkhQcJJJaW4ejvFFAqxUa1SuXJvr64Q8AQ/TyvKUJCr8DidVckXJIRVW6kswPxQKRjUYT8DDiNycvBINUkjvWRDzBDxMm5crLz5cPrGRCNPmZMtIVHSiiJzsHIKe39mL4thAVSvpk5+P7vC/zee75Hc/jM43qXjIrQfbxrffHN8+E2NvHVyzePO0oRrjs7N9OQghROTllXycXJOdJUUCoaDMJW6oqTG+iI/R7IOW7BxSs8IaY0adlp3zVecfCeOaCBAmEotQXnaOrkQwfuxLRJ+OwnGx7O6pq1lOnQOq+vMPIaaHdz1O6r3bEcUDNcXjm49kQk+vsr/Mq7I3d686zJTb116pyn9GZlw5dUfnFdjepmQD0e07BXnp7l++ceP8lTT7Tl3rFz2eyvPt2s48/trF25fPPWU0CWpb8mlkTOju42FZb0ToxAYZB6YvuJj/UqH25alzcZbtSvwmwMSubrZk1MNHWUWnXxcVFl70yDXG43ExQpJZ/NKR8sXTN0XDEaZLHWd68t3bkQZHsRjXplGfhbN6WOW9DIupfBqaLnbpMHbFSB8U8+K13oSvQpkRwmg0DOl0hkdNpPTl80jczMnRhGag2RFCeOSzF0WXJyl98uANLnKr/bHhUr7N9XRCup27qxH+6v6T4kqoXj57W1QBjMvjIqUkq2iYRuaGPYkq/Bgzcq9tR76/dTvZ0NxkmbNAt3N3M8Zf3ribXbqJ6bZeDWzxVzdLLCdS7tx4hxwbeIqrNI1QUZ/8EhhCcxvbfDZWRhVORFeAJqjecuiyqW156S9fJRV0SiLh2fPiV29lj28+U3FcPZzKnG1DTY2JPRs4oqjr1+Iq6+M0nllhDWxtTLgYYjh5exkpntx6UvyKoPbdJ1bs41GWxQUDz4DOtap+QWGmnYb3dkzcN23e0SdxmZL0D/f2zpx3Iqd2v4EthZVvXRbNMmDYb9UT902atPXSy9iUtNS4yMfndm86HokjIunCqSc03y7tLGhlNmkX2Bh7sGPdNYlLYKkvEXaDwAD7+AtrDoXxWnbz1zfkZNTss2RWG+LinBmHY3T5wzG7ToH1SvwmoLsH/dYAu79u1rab79MlWQlhp5cv+C+56CA0c88G9sTLf9YefpaYlZ3+4eGhuSsu5NAKD0Wz7TKgg/mHPSEz99+JTEhKiHp29cjpFzISj7/w147TD97EpksV0rTX50/ey+A4uhh8WF719OC6w9efRyVlyxXZcQ+OXIwgrJydys98VK3MCDHsqtmSMZeP3PiQIUlLkajwmOOhobtP3wl7G5uckhB577/lI+ee0TYa3NeLabDZEUZT3147b//9D+mSzNiH++csv6Rw+u0P34+8/su3ud5OyPbu2dNRdn753H2P4jIlGTGPj8xbfSUPK2wBejUvTzPNvV0rz75OyZakvLu9Y/bmu5qi9qG7B/dvwg5bP2nx0UfvE5LiIx6d33/pHW74LHB8eveprbkaOnHVubAPSUkxr++dOnIzDkeMOn1GtmReXzF147XIZElWYvi5ZVM2PRN3GB5c1Sum8j5JGfzN8Y17Lj2OSMiSKXKTnh0/9UwpdnSyKqwY/mLn7L9uRqZKMmIf7p255GSWTdc+rcpNZBtoakR37Dm8s/GrjeOm77n1Nj4tLTnm9Z2TO7ZdSqh8/MFrMnhwfdnJhdN333ufJsmMe/rv/JlfvPKGUDVHQWZeOX1H22BKR9uP+jbg1hvz13r2whVr+neaqyMxhpFT61Gb5wx2q+osR2mCRpO2rxeGrj0wsdcGLYkQxjJxaj7aF+Gx50+95LRY7l/2IRqEmbYKarl8wpkcrxmda5S6JBjugQGOOzdEmvWcYei5IZpVpwWLnv42atXkLTWHJF3JqtW7S+nfBPQa/1uzJnfagu1/dt1AIIZJ7R5TxnRat/Bh4cfuQxZPeD9ty4K+F+aRGMu0dpfxy0Ycn3imsGwmbeZsX8RftHn9sO5LcRLDONbdV3QIwGjKqOOLN6yR4iRCGF1g79svdF7XsmlXXEMy8+6mFVuy1CSJEMYyq91x5soR9Qz/AK2kzIju3ndK//vT9oztsh8xao/573A3oTps/ez9K5VEfnlsG3aZu3t89+p0hH8w1OysxpO39ohePjFomUSHMI6Fd5/loSM9PvKky+6dKtPmBjohu86o9aHy6aHLB3ZaRGIsS+/+00c0n74ipeBjrt/YRUMT5uyZ9vsRAtE4ll6/hSztvXHqq4KPaXY9Vm3TLA3dvnDQYRVBYjRe9QFb/mjDM3gWmC5DN2wgl6zcN6PP3xoSYXRR/XH7erRANKuuoX/jK5dsnNxjo4rEaFxrr27Ldkxqb1blUK1Cn6QKLe/F7kV/LVXiJEIYQ+zYctTqkBaCghkBZqOhY90eze+5IU1NYkwTj+4LF0/x1XMPQn9Tt0OYaZsFO5aZhm7aOKrnEpxEGI1j7hYwuX0VGo7h2H/dX1jokh2jApZrSIwuqNZkQ6cvXnv9MHdPL+fankqFXKmQXzt34qM2Tk5ONjU1ZTAqD/SHDx/6+fl9aiHLw5WS9CwV29Sy1BtKn4pQ52Vm5GqYInNzsYG3kr4lUpWTmiGlG1tbCMh781v+eb/LnjPTiue0tdL0tBycb2ZpzNVbVlInl6RnKegic3OjwheWcFV2eoZUQ+ObW5mWfbdQzx600sx0iYJkG5lbitlVuvQrKbNOmpaag4QWFgW7w5WS9EyZliEwszCpvDyFcHlGskTLN7cyqfTFwS8AV0pSM5QccytTrubcGL/pqaNOHBpS9AVMqnPT0vMwUVGVyiI00qyMHDXTyNJcWPA+XsVnAVflZmbm6TgmlqVeHkOERpqZkYdE5ubCcjehf2g6eWaGRK5jCM0tTApfYiRzTwxvMU8x+dzePlZqSUqGgm1mbVZZD9HT1PlwZXZ6pozgGFmYlf6gUrgqNzNLThdbmAke3bvn4+NTpQrpdAihrKwsGxubKh6nc/D/EELpqclqpYLqdz0+EZ1rYm33xfZGY4ss7L7YO/OfDeMYWdsbIYQQ0uq5dcAUWthVNCWDMfimNnzTUsvoHGNre+Pif5PSFycP3U0t+6ONbtn4j6B6YowpNLcteQg84ebec2+VZcqCcVw79m2V/9ZwJWVmCC1LlZnONbG2N6mgEnrR+eb2VX3E7/PRuSa2DgY/xdhiK3txBZvTWGUasfxZKHM8jtjSTs8eaSyhhe0nzMHpUfl5/JYYfDNrvt5XjEmSRIjGNbF1qFIf0dPU+ejcihq8InSO2NK2otP7FfygWQw+k04hSUsrl8U0hkL/TTZ1bnpquUdIMY61ntue4DsG5/E7Bln8S8KMfQfN8q3y6nTHwKlzA79iecA3AefxewZZ/F1j+ky7eBdn8n6k0/QjlrkS3HbLbzUj2eX/7B74wjBRwLrbrUkOn/rbNt/cT3TB/JToHMGXmSr8hn7EMleCwRX+bFX6TmG/blP/gl8/AADw3YEsBgAA6kEWAwAA9SCLAQCAepDFAABAPchiAACgHmQxAABQD7IYAACoB1kMAADUgywGAADqQRYDAAD1IIsBAIB6kMUAAEA9yGIAAKAeZDEAAFAPshgAAKgHWQwAANSDLAYAAOpBFgMAAPUgiwEAgHqQxQAAQD3IYgAAoB5kMQAAUA+yGAAAqAdZDAAA1IMsBgAA6kEWAwAA9SCLAQCAepDFAABAPchiAACgHmQxAABQD7IYAACoB1kMAADUgywGAADqQRYDAAD1IIsBAIB6kMUAAEA9yGIAAKAeZDEAAFAPshgAAKgHWQwAANSDLAYAAOpBFgMAAPUgiwEAgHqQxQAAQD3IYgAAoB5kMQAAUA+yGAAAqAdZDAAA1IMsBgAA6kEWAwAA9b6DLNbmJka9fhn+9kOqVEt1WapOm3R93fhe7f39/Tv/MfdiBlHxyo9WBweO3PMeRwgh6ZU5QUGTT6ZXvMmvRvd8Y6/AoX+/xfV+Wrq1kxMfnrn4Oju/AUu1bYVwlUwqlauh3cF3iUHlwYms+9vmzt99K1aKkwghjM6z9Byw7K9x3lwqS1UVeOy+qZO3pfqNnTSkulbCczep+DuNVGTGxSZK1AghRBKy1NhYed4P9L1TNbg8M5swMhN+WpcilZnxsQlZKlLfnku3tnPqgREz9plOPLdvgAOtVNtWSPsgtPOQY2Zj/jsy0on+SWUE4CuiMIuJ1BOzx25+XqvP0oO/1bfEclPi3j1/kFitGpu6IlUVmfP4bjheb+K0YQG238Evi++C6sGKnutsth8cVutLB1251tY5LgitL/C1/7imx3h8LoZxeRzsC5cPgC+BwixWPrnxUG7z25RJneszEEI2NtXdvFoUfkhoFHI1xhVyiwuIK2UKgsnns0tcgrgiMykpQ8UysbaxFDIrX440uckJqXKWub2dSelrklBJEuJTZSTX1NbeSsCoeDmRI8kmaJYCpkwqpTF5Ag5SyxVaOk/AKcohUqeUKRFHwGUavPRxtVyhoXEFXEaJVXCVXKGllap4MVKVnZSULqeJLK0tjTil2iE9PjEL51na2ZaqF66SqRCXz6ETysz4+HQ117KavSkHK2xgxOHzmCV2Q6jlcg2tRKH1NhehUchxpoDLxHBpakxiDsva0UGsfHjxdqYuSCaV5tERo8R+cUVmYpIEF1k7WJYbMuukybGJOTSTatUsWchgO5VrbZqZRzNfGtdwphIqSXJChopn5WArZhUuxHg8HsK4PB5kMfgeUTiqo7M5TKSU6Z0kxmP39mvSYtIFefEize25rZv+vi2icF5QEXls7h9tmjXrGBQU1KmFb7Nh/6URFS0npeH/hPRo5dc2MLBrx6Ytuoze8Swn/wcxKbm/aXjbJi3aB/Xs3i2gpV+zzrMvZhCGlsvur+vfrtemNzr1tVn+3j6+rRbe0eheru7WpO2SB8VVIXNOjm/uO/xwiuHZSVJ+c3b7Jp2WPlQVLyOSDg73bdJ/54dys5+ahIvLh7Rp1qJNl+6Bnds2bvK/v6Py11FFn170R6smzTt3Cwrs0LR552Frb6YUbq25vcC/5bQjN7cN69isWefu3bp1atoiKOT4Bw1C6sfLO/t1mH2zRAuTklMTW/kEr3+prbC58Pi9g1r22fXm7ZGQzv5tOvfoNe/Cgy29Oo74L1UTsfU3v8bePs2GHkohEEK6pKurhrZr1rJd124dW7Xw77PobJym6AynXF/xv9bNWgUGdwto3SRg/N73uL4Bq77WxuP3DmraJOSiQl+rElkPt4wJbNqiQ0C3rq2bteo2/cjbgvUwLo9Lw3i8CjIcAOpQOC5me7draXL+9IKptZbM6OVj9VFTE2T2tUXD514SBIbsGtSyOjsvKSoOq21OM7gcEWlnZ4xY9rLuxN0be9Yzkr46PH/sqnFzLI+tCzDXPd4yfdv7urMOHw504iszYt88fkPzNKUh7SO9y/nCgav/abZ/+IDdlrNOL27FxdhCFnr9CfXHRM2DO1hcuHjy3oTGrQQIIYTwhAvnXpB1xgeU/Z2vfLJu5OQDmpbjNm5q7yJSpUa9U9WsSUeIzL21dNjMiya9lx4f3Kw6Jy/iwoaZSyeOwHYdGleXU7DpzWXzcgfOObjEx56T8+qfeRPXLlra0G/b7426drQ5duLs3byW7UQYQgiRmdfOPFDV7B9Yj1VRc2EIIUQknJszXmMbtPRAm1p8npm9qN1h01ld5qf027O1T3U6xhQY05D65aYxEw/SgxcfH9OqGi3xxtpJ06ePFzkcHluHhfAP+yaG7Iv3Grf3UK96xqq4W9tnzT2QQliXayR+fT2tnWywTfGY/RPHbs7wn3twd4ALJ/PhrqmTF49i252a5ydAGI/Pw5hcHqW3SAAwhMJxMWbUeta26W0591f179C2+/hVhx6lVH4DJh+RfHr3+QzHASvm/9G4lpWVnbOXf9sGFjSDyxEefWwRPrlMAAAgAElEQVT3NXWzCQv7eVvzmFzLBn1D+rvnXT96OYVAuuysXCSq4V7TjMPkGtu4Nenaw9eKhgwtxzgiUzMjPgNhbKGZmZmpqZBVeYH14zTq0aVG3vXjN7ILRpxxl869pjcM7GhfOorJ3Ot7jsaZ95i/fFBzV1tLm1qeLTr62NMRItLO7jqT6jxgSUgHN3M+V2hdv+ec+T3N3/2z61pe4U0wknDsPWe0v5MZjyOw8R70Z4C1Jvz5Wx1i1u0aUFN2++zNguEukXr1/GOde9cuzvQKmyt/5bx4Ts8Nq0e09XSq6WgrYgtNTIUshBg8YzMzMzNTMYeGpLd2H4q26T1nWgcnIxZLVLPd5LHt+e+P//dMgxD++sTRF0Sj0QsGNrLmsTgmTu0mzAi219dEH9fa2mcHdz3ndZk2O9jDjMMU2DX9c3IPm9RzR25KEUIYj8elc2FYDL5TlA4SMEHt3itOdhh09fjhg0cOzR/4z872Uzcu+c2ZU9mG2siXkbh1j6ZOjKotJ/NehkWTQsu4cwf3F1yKuniSjsd9SCCQte9vv9Uc/ffg3z/06t83uIO3XcGEIsfA8i+I4RrU3WP3hpNX0jv1tKTh78+fj2D7LmlrUeYbEo9+9UbBb9isftnnS3Rvw95obYMb1yjObo5nU2/RP/efReKdvBkIIUQz8/QsznbMyMQIUyuUBEIsl4AutXdsPX09K6C7GUYkXz77HGsQ0rkaHZHZFTSXDYYQQoy6nTvXqKjz6N4/fyWji3KfHz7wKn8JkZnLQdkxsTmkDyMyIglz6tbYrKiiTNcGHvzdYR/dgqXgiS9eppMCTeTJ/QkFi+TpDKSMj0nGkQudwecxYYoCfK+o/8HGMHFrP3he+/5jnuyaPm79kqlO9Y6OcNa3Iln8uJNGJtdgIiNR2cvK0HJSlisjSUXc/cvy4ht53LoNPWz5GMJEjacd+Nf7wPZdhxf327GsevO+U2cO97dhGlr+pSqOEEJ0h8AePpsWnTyX2GOgbcS5C9GCFiP8jcsVXy6VIaFYVO4BBbVUqsEE4lL1pQlFQiSXygsnqjG+gF/yc6zoH/RqnbrW37zizJXUoD8sEi6dfcX0ndfemoYQUVFzFR5FLK7wNxUpy8sjkebV1YuxxUe3a9DQyYSGSIVMTtJEYlGJPdAFIsFnp6Q0T0ai3Ijbl9KKd2Xq1dDGko0QQhiXJ4AsBt8r6rO4AMO04aBJf5zr+dfzV7mks7hgaYmnTdUymabwnyw+n0nm5eSWfRjV0HKML+JjNPugJTuH1NT3xBXGr9Fm2OI2g6dEXt69bNlfY0ehQ/+Ors0wuFzfLkp9WSBSLpWTVZgBwszaBbdaPfn0hdjevhcvxpm0ndq03DcJwngCPpLm5unKni+2WMwh30lyStYXz87ORSIjURVmn2hW7QN9Vi84dym5h9+F8695zVe1NsZQZc1V+UsVCCGE8YVCjF1/zLYV/uV+5pASAR8j8nKlBDIt3D+hUir1PVv8UQRCPka3HbB2a7CJnsSl2TYK6iA0g4cQwXfpe+qYuFymRGyxmIshjMfjYoQkM7voMQTli6dvdIX/YLrUcaYn370dWeYZDEPLMbFnA0cUdf1aXIVBQhe7dBi7YqQPinnxumSeG1pevH8uj4uUkixF0SRtbtiTKJ2eNctvKmwa3NE86srFcxeuJlq169pIz3su9Foeblz545tP5WU+YHp41+Ok3rsdUVxfxeObj2RCT6+y0zT6D27aOqgFN/zylTvnL0QZt+3aXIghVOXmKr0rGg1DOl1RnRlOXvWE8odXHuSVbzBM7OpmS0Y9eJhZdHp10S/C86p8MAPo9vXrW+IvLt/U/04j3b7d6EF+pjAuBt8l6rIYf3dw/sJNh89ffxD2Jupd+MOzmyfPOpRiG9jNh4MQzdyzgT3x8p+1h58lZmWnf3h4aO6KCzm0ol/Itl0GdDD/sCdk5v47kQlJCVHPrh45/UJGGlqO6I49h3c2frVx3PQ9t97Gp6Ulx7y+c3LHtksJOEKqpwfXHb7+PCopW67Ijntw5GIEYeXsJMIMLddTF3o1L08zzb1dK8++TsmWpLy7vWP25ruaKl70HO/ugdXeHVl3NtmhU2B9fbemMKNW/Xs4ZBybN3nbtfC4pMQPr24eP/Egg0CYaafhvR0T902bd/RJXKYk/cO9vTPnncip3W9gS2GVjo2JmgW1Fr/6d+2ZGKtOxd8DFTWXAQy7arZkzOUjNz5kSNJSJCokbD54gIf01JzRq08/+ZCclpYY9ezKgfWHnqkQQnT3oN8a0B6un/nXzffpksyEsDMr5/+b8Pm/0Zj1+/zpx7gdOnbBkQfvktJSEz+8uHl08547mSRCSHl3Ucd6jXtti6z6FwwA3w6FcxQctvzp/tAj2WqCRAhhTBPnFoPXTRnhJ8QQQnT3IYsnvJ+2ZUHfC/NIjGVau8v4ZSOOTzxTsC1m0mbO9kX8RZvXD+u+FCcxjGPdfUWHAIPLEWbaZsGOZaahmzaO6rkEJxFG45i7BUxujyGEkZl3N63YkqUmSYQwllntjjNXjqjHRBoDy/Xh+o1dNDRhzp5pvx8hEI1j6fVbyNLeG6e+qlJD0F279vDYueyl47gAVwPng9do4tY1zCVrdo0PXoeTCGOa+c9rFIgQ4tYb89d69sIVa/p3mqsjMYaRU+tRm+cMdqvysx3cxl3bmZ3Yn1jzz66exRtV0FyGKuHed0r/+9P2jO2yHzFqj/nv3z8d3YZs/Ju5YsXeeX13qggSYQyRg/eApflr1/jfmjW50xdu/7PrBgIxjGt3n7Fqwolh+6paaoOlsOu58m9s9fJtK4YdmoeTCKPzrOv9PqsXQgjp8rJytSoyU/bZUyEAfAWYu6eXc21PpUKuVMivnTvxURsnJyebmpoyGJUH+sOHD/38/PR8gCskmRKpGnGMzC1E7HKXulaanpaD880sjbl6R/CkTi5Jz1LQRebmpd5DM7QcIVyZnZ4pIzhGFmbC4lfiSK00M12iINlG5pbiEsUwtFw/Up2blp6HiSwsKl+3JCLlnyEBodpxZ/f0q+S9XlwpSc+SIZ65hQmXXu4DFdvUsszyz6W/uQzSSdNSc5CwVAMQGqkkI1tJF5qbG3PKPKyX32BG1uVfyfs8pE4uyciWk1xTC1N+4a5JeVJEMrOmk8UP8JY9+G7cu3fPx8enKmvmT9FlZWXZ2NhUceedg/+HEEpPTVYrFVTfu6PzTCx5JgY/Zgot7Cr6tY0x+KY2fNMqL0eIzjW2tjcutz5TaG6r50CGlhsoDVtsZS+ufL0ytBFHDz5lNV3Yya7SGSM618TaTl9z0bkm1nYffeTK6W8ugxhCy3Lni8YSmhlow09ssMphDL6pddnzj/Ft3Zy+wsEA+BKozuJfGS6Je58py3q+P3R3gsuQ0A5mcFcJgF8WZDFlSPmd0F4zrqtZ5vW6Lw0dWvuTX98DAPz4IIspg4kCNz1oqyJZPDb8OV0AfnWQxVSisbg8qssAAPgefE/vegAAwK8KshgAAKgHWQwAANSDLAYAAOpBFgMAAPUgiwEAgHqQxQAAQD3IYgAAoB5kMQAAUA+yGAAAqAdZDAAA1IMsBgAA6kEWAwAA9SCLAQCAepDFAABAPchiAACgHmQxAABQD7IYAACoB1kMAADUgywGAADqQRYDAAD1IIsBAIB6kMUAAEA9yGIAAKAeZDEAAFAPshgAAKgHWQwAANSDLAYAAOpBFgMAAPUgiwEAgHqQxQAAQD3IYgAAoB5kMQAAUA+yGAAAqAdZDAAA1IMsBgAA6kEWAwAA9SCLAQCAepDFAABAPchiAACgHmQxAABQD7IYAACoB1kMAADUgywGAADqQRYDAAD1IIsBAIB6kMUAAEA9yGIAAKAeZDEAAFAPshgAAKgHWQwAANSDLAYAAOpBFgMAAPUgiwEAgHqQxQAAQD3IYgAAoB5kMQAAUA+yGAAAqAdZDAAA1IMsBgAA6kEWAwAA9SCLAQCAepDFAABAPchiAACgHmQxAABQD7IYAACoB1kMAADUgywGAADqQRYDAAD1IIsBAIB6kMUAAEA9yGIAAKAeZDEAAFAPshgAAKgHWQwAANSDLAYAAOpBFgMAAPUgiwEAgHqQxQAAQD3IYgAAoB5kMQAAUA+yGAAAqAdZDAAA1GN8syMpFIqPWv/+/fsYhrVt2/YrlQdQ6/Hjxzqdzt3dneqCgJ+fQqGIjY1FCHl4eHzUhgRBfJUC6fPtslgoFH7U+sbGxl+pJOD7QafTqS4C+PnldzMGg/GxKfQtwRwFAABQD7IYAACo911kMUEQW7f9RXUpAAC/lk1btnzLGeGKfbv5YkM2bNqcnJLMoFNfEgDALyU1NW3mnDk21jZjRo2kuixUj4uzs3NSUlKoLQMA4FeWkpKSnZ1DdSkoHRfPX7hIrVaTiKSwDACAXxyJyBWrVrHZ7LmzZ1FYDMrGxRERkRDEAIDvAYlItVodERFJYRm+i3t3AADwi6Msi11dXdhsNoYwqgoAAAD5MISx2WxXVxcKy0DlfPHc2bOys3NWrFoFMxUAAKpgCAuZNMnY2IjaYlA8R2FsbDR39iynWo7UFgMA8GtyquU4d/YsyoMYUZ7FCCE2mz2gfz8rK0uqCwIA+LXY2tgM6N+PzWZTXRCEvod3PRBCNBpt1IgRVJcCAPBz4vF4epf/OXzYNy5JBb6LLAa/LJKEWwUAIARZDChEkiSO41SXAvwSvv9v/e83i729vakuAvjqvv8rBPwc3NzcvvM/if7tsvj27dvf7FjgRxEeHk51EQCoiI+Pz7c50DfK4m9WHwAA+BFR/0wbAAAAyGIAAKAeZDEAAFAPshgAAKgHWQwAANSDLAYAAOpBFgMAAPUgiwEAgHqQxQAAQD3IYgAAoN7nvgMNf9sFAADQZ4fhZ2UxjuOQxQAAgAqz+JP/DOxnZbFOp1MoFCRJ0mg0hBCGwf+pMwDgl0OSJEEQCoUCIaTVaj9tJzBfDAAA1PuscbGFhUVGRoZCoaDT6V+qQAAA8MPBcTx/dsLS8hP/b5Q/K4v5fD6fz/+cPQAAAEAwRwEAAN8DyGIAAKAeZDEAAFAPshgAAKgHWQwAANSDLAYAAOpBFgMAAPU+928Dgc+UmJgYExMjl8upLsgPQCAQ1KhRw9bWtoJ1MjIyUlJSlErlNyvVj4vL5VpbW5ubmxtagUTodrLybKwyRa77lgX7QdnwGQHVeU1sOJ/2tyAgi6mUmJj49u1bZ2dngUCQ/zc9gCEEQchksjdv3iCEDMVxRkZGTEyMg4MDl8uFv45SMZIklUplbGwsQshQHN9OVu59Kwt2Etry6dA/K0YQRJIc3xMhJRFqZsP5hD1AFlMpJibG2dm5Zs2aVBfkx2BhYYEQiomJMZTFKSkpDg4O1tbW37ZcPyojIyOEUEpKiqEsPhurDHYSdKzO+7bl+lHVNUckSZ6NVUAW/3jkcjmfz4e/O1p1fD5fJpMZ+lSpVHK53G9Znh8dl8utYD4nRa6z5cOfmvkIdgJ68qfO50AWUwx++n2UqjQXfLd9QRiNBs1ZddhnXM4QBOCnAtPEHwWa6/sB42LwUyFJEsbFVVdpW5EIQWtW3ee0FYyLAQCAejAuBj8VGBd/lMrHxSTMv3+Ez2kqyGLqQV8HAEAW/zx0srT4hHSpjimysLO3FPyyp/arf7fhGqWaYHI5jJL3vUhF7JMH0Sz3lp5WP9lTYN9gpEBqcpPjE7MUJNvIyt7WjEdHCCHto9X/WxQVsHpjP8efrEX1+2Uv2J8JKY86u3Hl1qN3Y3JxEiGEMLrA3m/Mmo0D3ZlUl60YqZJkaAQWIhbVBflMZO67O9cjldYN2/rYlawLoVHIZITuyyYXrlHhdA6Lwiz6yjfviJxXR9ev3n76SZKioO8yxDXbh2wK7eZAKjLiYxMlqh/q7iHMUfzCSOnT9QP//DvSyK/fvGkdG9Y0ZSrTo57fuif1qP4dBTFC+OutAyco556f3uCr9rmvPl9MZMUlyJlsenp8ktKmevGfHig46Bc9PKmIeXgzu1b7htZf6x47tc9RkFk3Fg6Y+G+aTduBSxe29rQXI1lK5JMbT+lu1jSEil6Z+DWiGLL4R6d8sn7G9tdGgesOLGxnUTB8srat5dmy1FqkShIfn67mmNkV/gDMh6vlCpIt5DCQOjs+LlXBMqvmYM6lIYQQoVHI1YjD5zFL5AChlss1NI6Ay8zPIJ00NSE5DzOxszcv3i2pU8rUND6fTSMUGbFxmci8Zk0z8s3F63FaL3meVMpANDaPz/4xf3fqMuKTVEaOHvzo8IRERTVHfpnnczEMIVwtl6sJBrd02+UjdSq5Qk3SOWVagMR1OKIz6BjC1XK5EmcKRFyaIiU5m+DgWq2WhjAag0Gn4mHgr5bGZM7V5XOOJjn03bY7xFtcUDUrO6f6rQuPq6cAmpzEuFQFw9ja3lJYJrwIlSQxPlVKcs1sy07R4YrMpCQJLtKz1Zf26W0FWfxjk946dCKR13LJpLYWBrJNl3x13exF+x8mqwgSYVxr7+BJc6d0rsFGCCHdy/U9+ocHr233duW6S9FSnEQY177l+FXLB9Thqx8v7zT8qt+GC8v8C/+vvknJqYkdpkd1339mmhdL9f7U8lmrjj1P15AYjWvj22/OovHNLekIkXmnx7bcUmPL1noXQ+b+G5GLuY3b2OPF3GU30zTku+GNDyJEr/Xn4RMTa3+VMM4f6H21obEmNT5FY+RsYyeUv3sUH59b07UwREiSRIiGFInPb4Qn5GpJhDCWkYOHVx07QUEg49LEN2Gv4yRqAiGEMfgWNTw8XS25GEIIEWkvLj4l67e0y37+/H2WGnFrertpw18kKAiEnl5IQgixq/m29bT4ouNjDMMqbygSIfKrhDGRduHg5WzTTgtHNhTrPUR+0cjC/0FIHu+YP3/H9VgZQSKMZebReeTsaT3dBRhCiJQ82DJ97q57yUqCRAhjiGoGzts+r705DSFd0rX185YdvJ+kJBHGtqjXPWTRlI7VvspEGYZgjuLXpXv7JEzG9GzV1MTAiEkVtmHU+P26zrMOjG3nIlZ+uLF93uxpf2pF/85vJsrfRPt883Rlj1m7rvjXEiqjziyesHDlvP1Njwx3ahTYyfa/42fu5rVsl78qmXntzH1VrQFd67HIvNuhw2Zeshm6/tJAX0vN+zOh4+dMnGL2387+1egIIUSm31o28YpRizl7QmsbcYxsTXofMg3tOemB/7rDY+vSMQbf6IccFZOqlPh00tTdhsdg21lzEhITJM5i0xL5qEt9F21fx6+NlZCJS5PfPn0Z9ojBa1HbhI6QJi38wfNkdo0GLR0tBHRtbnJEWPiTh5hfM1fjgrbAsyMfSWimrr51TLk0BodLb8Zm3XsQJ6jn72lBQxi9/CD7h6Z59TRcy2/ZshG/8nURwj/smzB6c2rjidu3BNYxxZMfHVwye/EIGe/f1QEWNO2TLbP+el93xuF/ujrxFRmxbx+/xTxNaQgh9avNY0IO0XssOj7Svxot8caGkOmzJojsD431+P5uW/xcp/cHRH4WTXqahBRYWwsN7Cfvxq5D7y2CZ8/tXtdawOaZu3WasniIS+rx7aeT8cKZVcIiaOrkAHcLPptr5tF9dE9XMjrspZQgGXUDO9eU3T5zI5sgSZIk8ZQr5x7p3AMDnGh42pldp9LrDF00qpmDgME2ce0+bVgT/PmRk+90+fsktfHapis3jQ9o4Fijpp0xm2dkIuLQMBpXbGpqamYi5tI+vc5fuUkrQMgT4zORmb01B5GYsa01V5kcn6EtLheJEMvarbadmMOg0dlie4/atixZQmy6jiQJRVJ0olJUq567tYhNpzE4xg516jpw8mLep2gKtycVGrGHj4eDmZDP57PpNAaLRccQojFYLBaLxaRjX6FKVeqiX+U/QpKWocbMbayZFaxWVAD103/2hbHaTl74v0b2Ii7PuFbLP5eM8VFc3/HvOx1CWklWHhJVc69pwmayjW1c/LoG+VphCJGyW3sPR9v0mjO5vZOYxRLWbDd+dHte9PFjzzRfp1KfBbL4/+3de3QTVRoA8HtnMnk1kzSPpm1oKVBKKa0t9CEPj3CQVVBYi4quu66PXTysj3VdYRV3PavrurKIR0ERD7K6sCDF5/pYxC5PxdcitRTSmkLLqTR9pkmTNI8mk2Tu/tEn2KQpbZi2fL/T09PO3NzcuZ1+ufPl5s44EPZfKlhzstKjKJyX27eEHz35qrkpwaoTlVzPFkn2rBm9gwRKrVVTvNfbSRCiM5f9NNv/9X+O2AhCiG868MkJnH/j0jQaBUwnKgNycevne0re3F3y5u6S3Z/UdEr5hrr6QE89UxYvzR1nK6YRl9nspHVJGsRxHBeU6xPlXLPZwvUrQrFqVd+lpkitVeJAh9NDEHG2O3i5TtcvvUyr9Vom6Gjv4Ls3YEliSsLoG67FVnTxK9R0ymilc+YWsb39RyXMnZeJz1WcshMknXvbisnmN+792SMv/ft4o7e3zmDtiUo3LXeeeK+kZE9JyZ6Skg+MTimxnzvnGIXvB0KOYkxjEvRq7Gpq6iBIO0CWgnhcbqRg2fMSAkqVAgfcbj9BUoQQwtK4cMsi0mk3FM969fm9B1uW36437//EyMz9y+JkCiGuw8WRQGP5gf2mvtIZBfmTlD2/UEoVK8iqM0Ma8Q0J317f4OYDroqDLf22+szNvuSJkp4UNU3T/Z6bFokwCgWChIQCAR6LGFH/TDYRiUQoGAj0tpc5fz8iXVnU2BxOz1NEMY8iJvliSpWgE5PqxmaOZA38ot2dLyaIEOTq8BAmjZXhfu1llSzmnS43j7TsnDW73s3f8/rOd55d+cZzaQvuXPP4bxYYGN7V4SKIqzy0/4e+k3FCfmG6OlaLz8E8issWnZmXI9tz7MiX7bcWDxCMsVKlRB12R7DfH5rY251EMim+dzZWhJBJJS2+cfaLf923v+mWeaWfVsnnv7BIjRFCYlYhxupFj29fO+vHJ9AoHHGMhGCbublTlpJ7RYq8t8e4VlNFvbnRmzqlZ1swECCo9zMgAS5AEM2IEKIYMU1cfo7072+OCyBGzIzyldJiNY9Ckp03XfTf459967lmfpiUMen5jpXxShxwONw86n1nhNjtTp5WxisxQQjhuEnX3Pu3a3716JmDO17YsG3NQ2jX2w9mxLEKLJn5wGvrFkrCVD7iLr5ayFGMaVi54ObFCd7PX9142Mr/eLcoo6gg3lt2tKzvbnqBM0e/ahLnFmRHNfkYaxctXyCrPHDwy09La9TXFs/vGuwyMwquYJq/OGz0Rd9SiqZQKBjz26bFIKdKCCHE32pu4RSGyak6rU7b85U0eaIG2RsaXHz30JXvaLf3JpAJZ7M6CaNSyRDBKo2a7myzOEO9ewPWVltQpNZ05foHbDtCGBHC87E6KNLzzBH6M2ZfOOm64nkK276XX/vOxQ+SL6aSC2YZQsajX9t7S4aavzp6Gk2ZmavE/R5CqzIW/27d/bPRDyernITOyM9lPd8e+sZJYnggI5Uyhlg8tmH26tVP3pTa+tHqX9y/fs+hb6vO1JypOv7Zxzu27asJISS/auXKWe6Pnvnjjq9rW9ut57579+knttel3nrv9VHOjsLKq5cvUhnf3bS3LumG4iu7LyapxGWrbpvUsGvNmq37T/3Q3Npy7vTxfTu2fHA6FLYiypCWQrV98f7HplabpcnqHc5Je+kRX0uDJaSckHJ+4gXLklMSaFej2dH9QohDlmpjndXt4/weW53R1BxkJ07U0QghiWHqJNZbd9JY3+7xcz63te6UsYFTTZ6iD39piqVxcpq3NdTbOzl/p0+Y23/GMBjrlz362ML4mp0P3vGHzR98UW6qrT1deezQh9v/9Xkj3xfYCEIEibJ/uWoBc/SFtVsPn2622RqN+15cu6UifsnKm9MpgvzfvbXl7SMVNY0Ot9dx7n/v7zfxSdPSWYzi5t9zV45771OrN+4tP9tkaWmoLT/01ua3KzpHYzCGHMVYR+kWPlnyz8yXNu98b93D20MEIYTpuOTCVQUrEUKiqXe/tA2vX/fGg8s2cATTirSr7t7054dmK6K+MJbNKb5O9+GbDVPuK87re2NJceWa119m12/avfrnm7vm0moy5v92boRmGm5e/cCR37/6p1v2Ejr5ru2lTxTG6tyLZrg3xBo9jWYbUWcZZBcmWBn9hESmvMlsm6aSEUTpsopS3Kbyo99zBCFKqp00Ky9D1TWJl4rPKCqgqqpPf/OZkSCEGTYpozB7Ctu1t9/IuF/tosRp0xPLTN9/dfh7RBsKrp2ZJMTYaZjDvQio1OXrd+p3bd7yzq6nDm3jCUIIi5QTFz688M7zx8UIUUlLn90W3Pj3rWtXbPURTMkS82965rXVP9FhghAhbd9sff4fNj8hCGGxdsaSx567L5dBBImn/fqVV5gNm3Y9tXKHnycIi5Sphfc8jWN1RMOBZ+QVTMvO6/R6Or2ew/s+FLo9l5fS0tLCwkKtVjsitYV8dktbB4clrDZBIzv//biQ32m1emiVXjeyawbx/g5rmzPAKHUJKsnggSLktbW0czKt/sL2Rctms5WVlS1ZsmTAvceOHUtPT1coFCMci4eIBP2dHC+SSMUDfFCOhDifP0QPvHPA2kKczx+ixFKJaIQzyxhjt9t99uzZ2bNnD1jgrgOWR2bGZ6mZmPdmyNtusbkDlFSl00U8kXjOZbN2IDZBx4rP6w4ScFst9k4iViXoVZILe4rn3O1tdh/N6vTx0li9oGGETPbAxgrHzmv1UT5k6Yo7EEKWliZ/pxfGxeMHLVUnp6rD7JOoEieoRv45KYlSn6IcvFxPM+TaCbG9qXCUadDYosVdd0AdsBkUI5Ux4XYOZMgPGILB88XkkqxgTMnUSSnqKNqEGYUuWTFQMVGczhAXrgbMxGm798bwYPCwKod8MQAACA16OY0AAAI3SURBVA/GxWPV9OycQctUV1VegpaMKrEYF39aWjpomevDpE1GuejnUVxK+XlXXLCl/KTx0jbhIg2noyAWj1WXYZwVyhiNs2PXWIm8IwtiMRhXRkW+eOyIalxMhnUbt8sKjIvHMAgcQwJ9dYlBdw8JxOKxqmsB2aiWkQX9uitCAZ7nEYTs6HR1V4T+pDHieYIQis0KxuMNRjjEk4te8B9isZCUSqXNZtPpdBCOB9XVRTabTakMO4dOLpe73W6WZSkKJggNjhDidrvl8rCzDNNYUbWdy9YwVKRVS0A3Qkh1O5d2sXcOgVgspMzMzLKyMr/fr1AoIgxPAOoJHBaLpaioKFyZtLQ0k8kUDAalUin0Z2SEEJ/P53K5srKywpW5fRq7odzh8JPkOIqG/owoREizhz9p49bmx19cDRCLhaTRaHJycmpra61WK8SOyAghYrE4NzdXrQ7zeRaEWJadOnVqfX291+uF64zIMMY0Taenp7MsG67MdDWzKpt9r9ZT7ejKVYCwKIziRNSqbDZTfZH3/IVYLDCDwWAwGIRuxfih0Wg0Go3QrRg/5iRJ5yRJBy8Hhg3SagAAIDyIxQAAIDyIxQAAIDyIxQAAIDyIxQAAIDyIxQAAIDyIxQAAIDyIxQAAIDyIxQAAIDyIxQAAIDyIxQAAIDyIxQAAIDyIxQAAILy+ddpk8rilK+4QsCkAAHDZgnExAAAI78L1i811tYK0AwAALjepk6f2/oxn5BUI2BQAAAAIof8DrylVnV9ArbsAAAAASUVORK5CYII=;imageBorder=#FF0000;strokeWidth=4;perimeterSpacing=0;" vertex="1" parent="1">
          <mxGeometry x="630" y="99.58" width="333" height="480.84" as="geometry" />
        </mxCell>
        <mxCell id="6Ym5UJqBqQDuSW6-4cnc-4" style="edgeStyle=orthogonalEdgeStyle;rounded=0;orthogonalLoop=1;jettySize=auto;html=1;exitX=0.5;exitY=1;exitDx=0;exitDy=0;entryX=0.5;entryY=0;entryDx=0;entryDy=0;strokeWidth=8;strokeColor=#FF0000;" edge="1" parent="1" source="6Ym5UJqBqQDuSW6-4cnc-3" target="6Ym5UJqBqQDuSW6-4cnc-2">
          <mxGeometry relative="1" as="geometry" />
        </mxCell>
        <mxCell id="6Ym5UJqBqQDuSW6-4cnc-3" value="" style="rounded=0;whiteSpace=wrap;html=1;strokeWidth=4;fillColor=none;strokeColor=#FF0000;" vertex="1" parent="1">
          <mxGeometry x="860" y="-60" width="210" height="40" as="geometry" />
        </mxCell>
        <mxCell id="6Ym5UJqBqQDuSW6-4cnc-5" value="" style="rounded=0;whiteSpace=wrap;html=1;strokeWidth=4;fillColor=none;strokeColor=#3399FF;" vertex="1" parent="1">
          <mxGeometry x="640" y="150" width="310" height="70" as="geometry" />
        </mxCell>
        <mxCell id="6Ym5UJqBqQDuSW6-4cnc-6" value="Choose the file containing your SPICE .MODEL directives as the input file, and choose SPICE Netlist as the input file format.&lt;div&gt;&lt;br&gt;&lt;/div&gt;&lt;div&gt;SPICE Netlists are the only type of data that this tool can use to produce a QUCS-S Library.&lt;/div&gt;" style="shape=callout;whiteSpace=wrap;html=1;perimeter=calloutPerimeter;fillColor=#dae8fc;strokeColor=#6c8ebf;direction=south;spacing=10;size=50;position=0.42;position2=0.84;fontSize=16;" vertex="1" parent="1">
          <mxGeometry x="950" y="70" width="710" height="140" as="geometry" />
        </mxCell>
        <mxCell id="6Ym5UJqBqQDuSW6-4cnc-7" value="" style="rounded=0;whiteSpace=wrap;html=1;strokeWidth=4;fillColor=none;strokeColor=#3399FF;" vertex="1" parent="1">
          <mxGeometry x="640" y="220" width="310" height="70" as="geometry" />
        </mxCell>
        <mxCell id="6Ym5UJqBqQDuSW6-4cnc-8" value="Select &quot;QUCS Library&quot; as the Output File format.&lt;div&gt;&lt;br&gt;&lt;/div&gt;&lt;div&gt;Then, choose a location for the Output File.&amp;nbsp;&lt;span style=&quot;background-color: transparent; color: light-dark(rgb(0, 0, 0), rgb(255, 255, 255));&quot;&gt;To make your Library a User Library, select &lt;/span&gt;&lt;font style=&quot;background-color: transparent; color: light-dark(rgb(0, 0, 0), rgb(255, 255, 255));&quot; face=&quot;Courier New&quot;&gt;&lt;b&gt;$HOME/QucsWorkspace/user_lib/myNewLibrary.lib&lt;/b&gt;&lt;/font&gt;&lt;span style=&quot;background-color: transparent; color: light-dark(rgb(0, 0, 0), rgb(255, 255, 255));&quot;&gt; as the output file location.&lt;/span&gt;&lt;/div&gt;" style="shape=callout;whiteSpace=wrap;html=1;perimeter=calloutPerimeter;fillColor=#dae8fc;strokeColor=#6c8ebf;direction=south;spacing=10;size=50;position=0.42;position2=0.28;fontSize=16;" vertex="1" parent="1">
          <mxGeometry x="950" y="220" width="710" height="140" as="geometry" />
        </mxCell>
        <mxCell id="6Ym5UJqBqQDuSW6-4cnc-9" value="Creating a QUCS-S Library from SPICE .MODEL data using QucsConv" style="text;strokeColor=none;align=center;fillColor=none;html=1;verticalAlign=middle;whiteSpace=wrap;rounded=0;fontSize=30;fontStyle=1" vertex="1" parent="1">
          <mxGeometry x="630" y="-330" width="1030" height="60" as="geometry" />
        </mxCell>
      </root>
    </mxGraphModel>
  </diagram>
</mxfile>
